{
  "accessors": [
    {
      "bufferView": 2,
      "componentType": 5126,
      "count": 65532,
      "max": [
        1.8680700063705444,
        1.2214410305023193,
        0.78052002191543579
      ],
      "min": [
        -1.2042479515075684,
        -1.3806979656219482,
        -0.68375998735427856
      ],
      "type": "VEC3"
    },
    {
      "bufferView": 2,
      "byteOffset": 786384,
      "componentType": 5126,
      "count": 65532,
      "max": [
        0.99999397993087769,
        0.99995124340057373,
        0.99999195337295532
      ],
      "min": [
        -0.99639326333999634,
        -0.99996960163116455,
        -0.99999457597732544
      ],
      "type": "VEC3"
    },
    {
      "bufferView": 1,
      "componentType": 5126,
      "count": 65532,
      "max": [
        0.80406999588012695,
        0.71389502286911011
      ],
      "min": [
        0.0047780000604689121,
        0.0024920001160353422
      ],
      "type": "VEC2"
    },
    {
      "bufferView": 0,
      "componentType": 5125,
      "count": 360729,
      "max": [
        65531
      ],
      "min": [
        0
      ],
      "type": "SCALAR"
    },
    {
      "bufferView": 2,
      "byteOffset": 1572768,
      "componentType": 5126,
      "count": 65532,
      "max": [
        1.8125619888305664,
        1.4424819946289062,
        0.78027802705764771
      ],
      "min": [
        -0.81515598297119141,
        -1.3639990091323853,
        -0.6898149847984314
      ],
      "type": "VEC3"
    },
    {
      "bufferView": 2,
      "byteOffset": 2359152,
      "componentType": 5126,
      "count": 65532,
      "max": [
        0.9999382495880127,
        0.99999803304672241,
        0.99292212724685669
      ],
      "min": [
        -0.9824489951133728,
        -0.9999651312828064,
        -0.99998950958251953
      ],
      "type": "VEC3"
    },
    {
      "bufferView": 1,
      "byteOffset": 524256,
      "componentType": 5126,
      "count": 65532,
      "max": [
        0.80003100633621216,
        0.73358899354934692
      ],
      "min": [
        0.059473998844623566,
        0.0031210000161081553
      ],
      "type": "VEC2"
    },
    {
      "bufferView": 0,
      "byteOffset": 1442916,
      "componentType": 5125,
      "count": 336459,
      "max": [
        65531
      ],
      "min": [
        0
      ],
      "type": "SCALAR"
    },
    {
      "bufferView": 2,
      "byteOffset": 3145536,
      "componentType": 5126,
      "count": 65532,
      "max": [
        1.7943530082702637,
        1.4921480417251587,
        0.80149000883102417
      ],
      "min": [
        -1.5814709663391113,
        -1.3876789808273315,
        -0.7849699854850769
      ],
      "type": "VEC3"
    },
    {
      "bufferView": 2,
      "byteOffset": 3931920,
      "componentType": 5126,
      "count": 65532,
      "max": [
        0.99999570846557617,
        0.99947589635848999,
        0.99995952844619751
      ],
      "min": [
        -0.98786729574203491,
        -0.99996709823608398,
        -0.99999731779098511
      ],
      "type": "VEC3"
    },
    {
      "bufferView": 1,
      "byteOffset": 1048512,
      "componentType": 5126,
      "count": 65532,
      "max": [
        0.80244201421737671,
        0.89862298965454102
      ],
      "min": [
        0.013128999620676041,
        0.00019099999917671084
      ],
      "type": "VEC2"
    },
    {
      "bufferView": 0,
      "byteOffset": 2788752,
      "componentType": 5125,
      "count": 333240,
      "max": [
        65531
      ],
      "min": [
        0
      ],
      "type": "SCALAR"
    },
    {
      "bufferView": 2,
      "byteOffset": 4718304,
      "componentType": 5126,
      "count": 65532,
      "max": [
        1.7315059900283813,
        1.072147011756897,
        0.79393798112869263
      ],
      "min": [
        -0.8068159818649292,
        -1.3993740081787109,
        -0.70082902908325195
      ],
      "type": "VEC3"
    },
    {
      "bufferView": 2,
      "byteOffset": 5504688,
      "componentType": 5126,
      "count": 65532,
      "max": [
        0.99999570846557617,
        0.99982684850692749,
        0.99999350309371948
      ],
      "min": [
        -0.97760379314422607,
        -0.99998944997787476,
        -0.99998027086257935
      ],
      "type": "VEC3"
    },
    {
      "bufferView": 1,
      "byteOffset": 1572768,
      "componentType": 5126,
      "count": 65532,
      "max": [
        0.79082101583480835,
        0.92244899272918701
      ],
      "min": [
        0.0001340000017080456,
        0.067091003060340881
      ],
      "type": "VEC2"
    },
    {
      "bufferView": 0,
      "byteOffset": 4121712,
      "componentType": 5125,
      "count": 341760,
      "max": [
        65531
      ],
      "min": [
        0
      ],
      "type": "SCALAR"
    },
    {
      "bufferView": 2,
      "byteOffset": 6291072,
      "componentType": 5126,
      "count": 65532,
      "max": [
        1.6896729469299316,
        1.1635409593582153,
        0.79942899942398071
      ],
      "min": [
        -1.3188550472259521,
        -1.3987890481948853,
        -0.80041497945785522
      ],
      "type": "VEC3"
    },
    {
      "bufferView": 2,
      "byteOffset": 7077456,
      "componentType": 5126,
      "count": 65532,
      "max": [
        0.99950915575027466,
        0.99703824520111084,
        0.99999350309371948
      ],
      "min": [
        -0.97627025842666626,
        -0.99998944997787476,
        -0.99999904632568359
      ],
      "type": "VEC3"
    },
    {
      "bufferView": 1,
      "byteOffset": 2097024,
      "componentType": 5126,
      "count": 65532,
      "max": [
        0.90567499399185181,
        0.92935299873352051
      ],
      "min": [
        0.004954999778419733,
        0.029071999713778496
      ],
      "type": "VEC2"
    },
    {
      "bufferView": 0,
      "byteOffset": 5488752,
      "componentType": 5125,
      "count": 318171,
      "max": [
        65531
      ],
      "min": [
        0
      ],
      "type": "SCALAR"
    },
    {
      "bufferView": 2,
      "byteOffset": 7863840,
      "componentType": 5126,
      "count": 65532,
      "max": [
        1.3840219974517822,
        1.2805119752883911,
        0.72123801708221436
      ],
      "min": [
        -1.3790340423583984,
        -1.3692480325698853,
        -0.73870998620986938
      ],
      "type": "VEC3"
    },
    {
      "bufferView": 2,
      "byteOffset": 8650224,
      "componentType": 5126,
      "count": 65532,
      "max": [
        0.99472999572753906,
        0.99979031085968018,
        0.99999058246612549
      ],
      "min": [
        -0.99545997381210327,
        -0.99994689226150513,
        -0.99998849630355835
      ],
      "type": "VEC3"
    },
    {
      "bufferView": 1,
      "byteOffset": 2621280,
      "componentType": 5126,
      "count": 65532,
      "max": [
        0.91155999898910522,
        0.89790201187133789
      ],
      "min": [
        0.012516999617218971,
        0.0040959999896585941
      ],
      "type": "VEC2"
    },
    {
      "bufferView": 0,
      "byteOffset": 6761436,
      "componentType": 5125,
      "count": 319443,
      "max": [
        65531
      ],
      "min": [
        0
      ],
      "type": "SCALAR"
    },
    {
      "bufferView": 2,
      "byteOffset": 9436608,
      "componentType": 5126,
      "count": 65532,
      "max": [
        1.0701340436935425,
        1.2689739465713501,
        0.66718101501464844
      ],
      "min": [
        -1.5202009677886963,
        -1.39894700050354,
        -0.70634198188781738
      ],
      "type": "VEC3"
    },
    {
      "bufferView": 2,
      "byteOffset": 10222992,
      "componentType": 5126,
      "count": 65532,
      "max": [
        0.99069046974182129,
        0.99998295307159424,
        0.99999868869781494
      ],
      "min": [
        -0.99977213144302368,
        -0.99996459484100342,
        -0.99999731779098511
      ],
      "type": "VEC3"
    },
    {
      "bufferView": 1,
      "byteOffset": 3145536,
      "componentType": 5126,
      "count": 65532,
      "max": [
        0.89489901065826416,
        0.95720899105072021
      ],
      "min": [
        0,
        0.003229999914765358
      ],
      "type": "VEC2"
    },
    {
      "bufferView": 0,
      "byteOffset": 8039208,
      "componentType": 5125,
      "count": 294201,
      "max": [
        65531
      ],
      "min": [
        0
      ],
      "type": "SCALAR"
    },
    {
      "bufferView": 2,
      "byteOffset": 11009376,
      "componentType": 5126,
      "count": 65532,
      "max": [
        0.5402519702911377,
        1.3316550254821777,
        0.68800801038742065
      ],
      "min": [
        -1.8114700317382812,
        -1.3855860233306885,
        -0.71326702833175659
      ],
      "type": "VEC3"
    },
    {
      "bufferView": 2,
      "byteOffset": 11795760,
      "componentType": 5126,
      "count": 65532,
      "max": [
        0.99245470762252808,
        0.99978035688400269,
        0.99998581409454346
      ],
      "min": [
        -0.98650497198104858,
        -0.99999850988388062,
        -0.99999827146530151
      ],
      "type": "VEC3"
    },
    {
      "bufferView": 1,
      "byteOffset": 3669792,
      "componentType": 5126,
      "count": 65532,
      "max": [
        0.91074299812316895,
        0.9535449743270874
      ],
      "min": [
        0.13443399965763092,
        0.0083569996058940887
      ],
      "type": "VEC2"
    },
    {
      "bufferView": 0,
      "byteOffset": 9216012,
      "componentType": 5125,
      "count": 298368,
      "max": [
        65531
      ],
      "min": [
        0
      ],
      "type": "SCALAR"
    },
    {
      "bufferView": 2,
      "byteOffset": 12582144,
      "componentType": 5126,
      "count": 65532,
      "max": [
        -0.01030499953776598,
        1.5152289867401123,
        0.72205197811126709
      ],
      "min": [
        -1.8446780443191528,
        -1.3707129955291748,
        -0.78654402494430542
      ],
      "type": "VEC3"
    },
    {
      "bufferView": 2,
      "byteOffset": 13368528,
      "componentType": 5126,
      "count": 65532,
      "max": [
        0.99154561758041382,
        0.99949663877487183,
        0.99998122453689575
      ],
      "min": [
        -0.99996131658554077,
        -0.99996596574783325,
        -0.99999147653579712
      ],
      "type": "VEC3"
    },
    {
      "bufferView": 1,
      "byteOffset": 4194048,
      "componentType": 5126,
      "count": 65532,
      "max": [
        0.91473400592803955,
        0.92852699756622314
      ],
      "min": [
        0.085749998688697815,
        0
      ],
      "type": "VEC2"
    },
    {
      "bufferView": 0,
      "byteOffset": 10409484,
      "componentType": 5125,
      "count": 320274,
      "max": [
        65531
      ],
      "min": [
        0
      ],
      "type": "SCALAR"
    },
    {
      "bufferView": 2,
      "byteOffset": 14154912,
      "componentType": 5126,
      "count": 65534,
      "max": [
        -0.27781000733375549,
        1.5322630405426025,
        0.72246301174163818
      ],
      "min": [
        -1.8820029497146606,
        -1.3707129955291748,
        -0.79541099071502686
      ],
      "type": "VEC3"
    },
    {
      "bufferView": 2,
      "byteOffset": 14941320,
      "componentType": 5126,
      "count": 65534,
      "max": [
        0.99129360914230347,
        0.99996477365493774,
        0.99998569488525391
      ],
      "min": [
        -0.99999850988388062,
        -0.99994957447052002,
        -0.99999868869781494
      ],
      "type": "VEC3"
    },
    {
      "bufferView": 1,
      "byteOffset": 4718304,
      "componentType": 5126,
      "count": 65534,
      "max": [
        0.96277600526809692,
        0.90045100450515747
      ],
      "min": [
        0.0068410001695156097,
        0.00060299999313428998
      ],
      "type": "VEC2"
    },
    {
      "bufferView": 0,
      "byteOffset": 11690580,
      "componentType": 5125,
      "count": 277800,
      "max": [
        65533
      ],
      "min": [
        0
      ],
      "type": "SCALAR"
    },
    {
      "bufferView": 2,
      "byteOffset": 15727728,
      "componentType": 5126,
      "count": 65532,
      "max": [
        -0.97884202003479004,
        1.5322630405426025,
        0.65109097957611084
      ],
      "min": [
        -1.8897960186004639,
        -1.2068469524383545,
        -0.79966998100280762
      ],
      "type": "VEC3"
    },
    {
      "bufferView": 2,
      "byteOffset": 16514112,
      "componentType": 5126,
      "count": 65532,
      "max": [
        0.99111437797546387,
        0.99948430061340332,
        0.99999964237213135
      ],
      "min": [
        -0.99999743700027466,
        -0.99942737817764282,
        -0.99999386072158813
      ],
      "type": "VEC3"
    },
    {
      "bufferView": 1,
      "byteOffset": 5242576,
      "componentType": 5126,
      "count": 65532,
      "max": [
        1,
        0.934253990650177
      ],
      "min": [
        0.0048469998873770237,
        0
      ],
      "type": "VEC2"
    },
    {
      "bufferView": 0,
      "byteOffset": 12801780,
      "componentType": 5125,
      "count": 324531,
      "max": [
        65531
      ],
      "min": [
        0
      ],
      "type": "SCALAR"
    },
    {
      "bufferView": 2,
      "byteOffset": 17300496,
      "componentType": 5126,
      "count": 10326,
      "max": [
        -1.4647730588912964,
        1.473101019859314,
        0.31126698851585388
      ],
      "min": [
        -1.8820029497146606,
        -0.44143399596214294,
        -0.28456100821495056
      ],
      "type": "VEC3"
    },
    {
      "bufferView": 2,
      "byteOffset": 17424408,
      "componentType": 5126,
      "count": 10326,
      "max": [
        0.95586574077606201,
        0.99860334396362305,
        0.99183785915374756
      ],
      "min": [
        -0.99997532367706299,
        -0.91453492641448975,
        -0.99076646566390991
      ],
      "type": "VEC3"
    },
    {
      "bufferView": 1,
      "byteOffset": 5766832,
      "componentType": 5126,
      "count": 10326,
      "max": [
        0.99762201309204102,
        0.76945102214813232
      ],
      "min": [
        5.199999941396527e-05,
        0.03102399967610836
      ],
      "type": "VEC2"
    },
    {
      "bufferView": 0,
      "byteOffset": 14099904,
      "componentType": 5125,
      "count": 45036,
      "max": [
        10325
      ],
      "min": [
        0
      ],
      "type": "SCALAR"
    }
  ],
  "asset": {
    "extras": {
      "author": "rocksandminerals (https://sketchfab.com/rocksandminerals)",
      "license": "CC-BY-4.0 (http://creativecommons.org/licenses/by/4.0/)",
      "source": "https://sketchfab.com/3d-models/diorite-25-04-20-2020-4f0f2b158f6f42a49550a059b13e4759",
      "title": "Diorite #25 04-20-2020"
    },
    "generator": "Sketchfab-8.27.0",
    "version": "2.0"
  },
  "bufferViews": [
    {
      "buffer": 0,
      "byteLength": 14280048,
      "byteOffset": 0,
      "name": "floatBufferViews",
      "target": 34963
    },
    {
      "buffer": 0,
      "byteLength": 5849440,
      "byteOffset": 14280048,
      "byteStride": 8,
      "name": "floatBufferViews",
      "target": 34962
    },
    {
      "buffer": 0,
      "byteLength": 17548320,
      "byteOffset": 20129488,
      "byteStride": 12,
      "name": "floatBufferViews",
      "target": 34962
    }
  ],
  "buffers": [
    {
      "byteLength": 37677808,
      "uri": "scene.bin"
    }
  ],
  "extensionsUsed": [
    "KHR_materials_unlit"
  ],
  "images": [
    {
      "uri": "textures/model_baseColor.jpeg"
    }
  ],
  "materials": [
    {
      "doubleSided": true,
      "emissiveFactor": [
        0,
        0,
        0
      ],
      "extensions": {
        "KHR_materials_unlit": {}
      },
      "name": "model",
      "pbrMetallicRoughness": {
        "baseColorFactor": [
          1,
          1,
          1,
          1
        ],
        "baseColorTexture": {
          "index": 0,
          "texCoord": 0
        },
        "metallicFactor": 0,
        "roughnessFactor": 1
      }
    }
  ],
  "meshes": [
    {
      "primitives": [
        {
          "attributes": {
            "NORMAL": 1,
            "POSITION": 0,
            "TEXCOORD_0": 2
          },
          "indices": 3,
          "material": 0,
          "mode": 4
        }
      ]
    },
    {
      "primitives": [
        {
          "attributes": {
            "NORMAL": 5,
            "POSITION": 4,
            "TEXCOORD_0": 6
          },
          "indices": 7,
          "material": 0,
          "mode": 4
        }
      ]
    },
    {
      "primitives": [
        {
          "attributes": {
            "NORMAL": 9,
            "POSITION": 8,
            "TEXCOORD_0": 10
          },
          "indices": 11,
          "material": 0,
          "mode": 4
        }
      ]
    },
    {
      "primitives": [
        {
          "attributes": {
            "NORMAL": 13,
            "POSITION": 12,
            "TEXCOORD_0": 14
          },
          "indices": 15,
          "material": 0,
          "mode": 4
        }
      ]
    },
    {
      "primitives": [
        {
          "attributes": {
            "NORMAL": 17,
            "POSITION": 16,
            "TEXCOORD_0": 18
          },
          "indices": 19,
          "material": 0,
          "mode": 4
        }
      ]
    },
    {
      "primitives": [
        {
          "attributes": {
            "NORMAL": 21,
            "POSITION": 20,
            "TEXCOORD_0": 22
          },
          "indices": 23,
          "material": 0,
          "mode": 4
        }
      ]
    },
    {
      "primitives": [
        {
          "attributes": {
            "NORMAL": 25,
            "POSITION": 24,
            "TEXCOORD_0": 26
          },
          "indices": 27,
          "material": 0,
          "mode": 4
        }
      ]
    },
    {
      "primitives": [
        {
          "attributes": {
            "NORMAL": 29,
            "POSITION": 28,
            "TEXCOORD_0": 30
          },
          "indices": 31,
          "material": 0,
          "mode": 4
        }
      ]
    },
    {
      "primitives": [
        {
          "attributes": {
            "NORMAL": 33,
            "POSITION": 32,
            "TEXCOORD_0": 34
          },
          "indices": 35,
          "material": 0,
          "mode": 4
        }
      ]
    },
    {
      "primitives": [
        {
          "attributes": {
            "NORMAL": 37,
            "POSITION": 36,
            "TEXCOORD_0": 38
          },
          "indices": 39,
          "material": 0,
          "mode": 4
        }
      ]
    },
    {
      "primitives": [
        {
          "attributes": {
            "NORMAL": 41,
            "POSITION": 40,
            "TEXCOORD_0": 42
          },
          "indices": 43,
          "material": 0,
          "mode": 4
        }
      ]
    },
    {
      "primitives": [
        {
          "attributes": {
            "NORMAL": 45,
            "POSITION": 44,
            "TEXCOORD_0": 46
          },
          "indices": 47,
          "material": 0,
          "mode": 4
        }
      ]
    }
  ],
  "nodes": [
    {
      "children": [
        1
      ],
      "name": "RootNode (gltf orientation matrix)",
      "rotation": [
        -0.70710678118654746,
        -0,
        -0,
        0.70710678118654757
      ]
    },
    {
      "children": [
        2
      ],
      "name": "RootNode (model correction matrix)"
    },
    {
      "children": [
        3,
        4,
        5,
        6,
        7,
        8,
        9,
        10,
        11,
        12,
        13,
        14
      ],
      "name": "model.obj.cleaner.materialmerger.gles"
    },
    {
      "mesh": 0,
      "name": ""
    },
    {
      "mesh": 1,
      "name": ""
    },
    {
      "mesh": 2,
      "name": ""
    },
    {
      "mesh": 3,
      "name": ""
    },
    {
      "mesh": 4,
      "name": ""
    },
    {
      "mesh": 5,
      "name": ""
    },
    {
      "mesh": 6,
      "name": ""
    },
    {
      "mesh": 7,
      "name": ""
    },
    {
      "mesh": 8,
      "name": ""
    },
    {
      "mesh": 9,
      "name": ""
    },
    {
      "mesh": 10,
      "name": ""
    },
    {
      "mesh": 11,
      "name": ""
    }
  ],
  "samplers": [
    {
      "magFilter": 9729,
      "minFilter": 9987,
      "wrapS": 10497,
      "wrapT": 10497
    }
  ],
  "scene": 0,
  "scenes": [
    {
      "name": "OSG_Scene",
      "nodes": [
        0
      ]
    }
  ],
  "textures": [
    {
      "sampler": 0,
      "source": 0
    }
  ]
}

