{
  "accessors": [
    {
      "bufferView": 2,
      "componentType": 5126,
      "count": 65532,
      "max": [
        1.0399589538574219,
        0.12217199802398682,
        0.19717000424861908
      ],
      "min": [
        -0.0092650000005960464,
        -0.21878699958324432,
        -0.95279997587203979
      ],
      "type": "VEC3"
    },
    {
      "bufferView": 2,
      "byteOffset": 786384,
      "componentType": 5126,
      "count": 65532,
      "max": [
        0.99995607137680054,
        0.99999916553497314,
        0.99636459350585938
      ],
      "min": [
        -0.97967952489852905,
        -0.99999940395355225,
        -0.99999779462814331
      ],
      "type": "VEC3"
    },
    {
      "bufferView": 1,
      "componentType": 5126,
      "count": 65532,
      "max": [
        0.86028701066970825,
        0.78088802099227905
      ],
      "min": [
        0.29355901479721069,
        0.14330899715423584
      ],
      "type": "VEC2"
    },
    {
      "bufferView": 0,
      "componentType": 5125,
      "count": 366711,
      "max": [
        65531
      ],
      "min": [
        0
      ],
      "type": "SCALAR"
    },
    {
      "bufferView": 2,
      "byteOffset": 1572768,
      "componentType": 5126,
      "count": 65532,
      "max": [
        0.9505469799041748,
        0.21864800155162811,
        0.77793002128601074
      ],
      "min": [
        -0.58730101585388184,
        -0.21263900399208069,
        -1.0216710567474365
      ],
      "type": "VEC3"
    },
    {
      "bufferView": 2,
      "byteOffset": 2359152,
      "componentType": 5126,
      "count": 65532,
      "max": [
        0.99991518259048462,
        0.99999874830245972,
        0.99989432096481323
      ],
      "min": [
        -0.99971979856491089,
        -0.9999966025352478,
        -0.99999403953552246
      ],
      "type": "VEC3"
    },
    {
      "bufferView": 1,
      "byteOffset": 524256,
      "componentType": 5126,
      "count": 65532,
      "max": [
        0.83959102630615234,
        0.9571719765663147
      ],
      "min": [
        0.05804700031876564,
        0.14143399894237518
      ],
      "type": "VEC2"
    },
    {
      "bufferView": 0,
      "byteOffset": 1466844,
      "componentType": 5125,
      "count": 332625,
      "max": [
        65531
      ],
      "min": [
        0
      ],
      "type": "SCALAR"
    },
    {
      "bufferView": 2,
      "byteOffset": 3145536,
      "componentType": 5126,
      "count": 65532,
      "max": [
        0.94925302267074585,
        0.25315499305725098,
        0.78140801191329956
      ],
      "min": [
        -0.69260597229003906,
        -0.24266600608825684,
        -1.0209089517593384
      ],
      "type": "VEC3"
    },
    {
      "bufferView": 2,
      "byteOffset": 3931920,
      "componentType": 5126,
      "count": 65532,
      "max": [
        0.99949586391448975,
        0.99999743700027466,
        0.99996358156204224
      ],
      "min": [
        -0.99999314546585083,
        -0.9999966025352478,
        -0.99994641542434692
      ],
      "type": "VEC3"
    },
    {
      "bufferView": 1,
      "byteOffset": 1048512,
      "componentType": 5126,
      "count": 65532,
      "max": [
        0.91874301433563232,
        1
      ],
      "min": [
        3.5000000934815034e-05,
        0.11953800171613693
      ],
      "type": "VEC2"
    },
    {
      "bufferView": 0,
      "byteOffset": 2797344,
      "componentType": 5125,
      "count": 331707,
      "max": [
        65531
      ],
      "min": [
        0
      ],
      "type": "SCALAR"
    },
    {
      "bufferView": 2,
      "byteOffset": 4718304,
      "componentType": 5126,
      "count": 65532,
      "max": [
        0.92268401384353638,
        0.25301399827003479,
        0.75921297073364258
      ],
      "min": [
        -0.7004539966583252,
        -0.29660001397132874,
        -0.98853600025177002
      ],
      "type": "VEC3"
    },
    {
      "bufferView": 2,
      "byteOffset": 5504688,
      "componentType": 5126,
      "count": 65532,
      "max": [
        0.99922430515289307,
        0.9999966025352478,
        0.99983119964599609
      ],
      "min": [
        -0.99870914220809937,
        -0.99999678134918213,
        -0.99974888563156128
      ],
      "type": "VEC3"
    },
    {
      "bufferView": 1,
      "byteOffset": 1572768,
      "componentType": 5126,
      "count": 65532,
      "max": [
        0.91548597812652588,
        0.99099701642990112
      ],
      "min": [
        0.0024109999649226665,
        0.074796997010707855
      ],
      "type": "VEC2"
    },
    {
      "bufferView": 0,
      "byteOffset": 4124172,
      "componentType": 5125,
      "count": 322614,
      "max": [
        65531
      ],
      "min": [
        0
      ],
      "type": "SCALAR"
    },
    {
      "bufferView": 2,
      "byteOffset": 6291072,
      "componentType": 5126,
      "count": 65532,
      "max": [
        0.88285601139068604,
        0.32357901334762573,
        0.89298498630523682
      ],
      "min": [
        -0.88144201040267944,
        -0.29761800169944763,
        -0.92364102602005005
      ],
      "type": "VEC3"
    },
    {
      "bufferView": 2,
      "byteOffset": 7077456,
      "componentType": 5126,
      "count": 65532,
      "max": [
        0.99516129493713379,
        0.99999123811721802,
        0.99990665912628174
      ],
      "min": [
        -0.99999314546585083,
        -0.99999898672103882,
        -0.99974524974822998
      ],
      "type": "VEC3"
    },
    {
      "bufferView": 1,
      "byteOffset": 2097024,
      "componentType": 5126,
      "count": 65532,
      "max": [
        0.91802597045898438,
        0.98694497346878052
      ],
      "min": [
        0.030990000814199448,
        0.089193999767303467
      ],
      "type": "VEC2"
    },
    {
      "bufferView": 0,
      "byteOffset": 5414628,
      "componentType": 5125,
      "count": 319944,
      "max": [
        65531
      ],
      "min": [
        0
      ],
      "type": "SCALAR"
    },
    {
      "bufferView": 2,
      "byteOffset": 7863840,
      "componentType": 5126,
      "count": 65532,
      "max": [
        0.69036698341369629,
        0.32012501358985901,
        0.84820002317428589
      ],
      "min": [
        -0.98523199558258057,
        -0.29653799533843994,
        -0.78222799301147461
      ],
      "type": "VEC3"
    },
    {
      "bufferView": 2,
      "byteOffset": 8650224,
      "componentType": 5126,
      "count": 65532,
      "max": [
        0.99787169694900513,
        0.9999995231628418,
        0.9999203085899353
      ],
      "min": [
        -0.99999898672103882,
        -0.99999678134918213,
        -0.99853432178497314
      ],
      "type": "VEC3"
    },
    {
      "bufferView": 1,
      "byteOffset": 2621280,
      "componentType": 5126,
      "count": 65532,
      "max": [
        0.92187398672103882,
        0.99983102083206177
      ],
      "min": [
        9.2000002041459084e-05,
        0.078699000179767609
      ],
      "type": "VEC2"
    },
    {
      "bufferView": 0,
      "byteOffset": 6694404,
      "componentType": 5125,
      "count": 306198,
      "max": [
        65531
      ],
      "min": [
        0
      ],
      "type": "SCALAR"
    },
    {
      "bufferView": 2,
      "byteOffset": 9436608,
      "componentType": 5126,
      "count": 65532,
      "max": [
        0.36728000640869141,
        0.32414698600769043,
        1.2171039581298828
      ],
      "min": [
        -0.98326098918914795,
        -0.24942700564861298,
        -0.54765802621841431
      ],
      "type": "VEC3"
    },
    {
      "bufferView": 2,
      "byteOffset": 10222992,
      "componentType": 5126,
      "count": 65532,
      "max": [
        0.99960535764694214,
        0.9999995231628418,
        0.99991482496261597
      ],
      "min": [
        -0.99998033046722412,
        -0.9999992847442627,
        -0.99995774030685425
      ],
      "type": "VEC3"
    },
    {
      "bufferView": 1,
      "byteOffset": 3145536,
      "componentType": 5126,
      "count": 65532,
      "max": [
        0.99528098106384277,
        0.997173011302948
      ],
      "min": [
        0.00024699998903088272,
        0.04221000149846077
      ],
      "type": "VEC2"
    },
    {
      "bufferView": 0,
      "byteOffset": 7919196,
      "componentType": 5125,
      "count": 310614,
      "max": [
        65531
      ],
      "min": [
        0
      ],
      "type": "SCALAR"
    },
    {
      "bufferView": 2,
      "byteOffset": 11009376,
      "componentType": 5126,
      "count": 59024,
      "max": [
        0.078859999775886536,
        0.32322698831558228,
        1.2157349586486816
      ],
      "min": [
        -0.98512399196624756,
        -0.25462400913238525,
        -0.21920199692249298
      ],
      "type": "VEC3"
    },
    {
      "bufferView": 2,
      "byteOffset": 11717664,
      "componentType": 5126,
      "count": 59024,
      "max": [
        0.99888724088668823,
        0.99996250867843628,
        0.99991482496261597
      ],
      "min": [
        -0.99998033046722412,
        -0.99999797344207764,
        -0.99391698837280273
      ],
      "type": "VEC3"
    },
    {
      "bufferView": 1,
      "byteOffset": 3669792,
      "componentType": 5126,
      "count": 59024,
      "max": [
        0.99672400951385498,
        0.96968698501586914
      ],
      "min": [
        0.019394999369978905,
        0.00010699999984353781
      ],
      "type": "VEC2"
    },
    {
      "bufferView": 0,
      "byteOffset": 9161652,
      "componentType": 5125,
      "count": 306993,
      "max": [
        59023
      ],
      "min": [
        0
      ],
      "type": "SCALAR"
    }
  ],
  "asset": {
    "extras": {
      "author": "rocksandminerals (https://sketchfab.com/rocksandminerals)",
      "license": "CC-BY-4.0 (http://creativecommons.org/licenses/by/4.0/)",
      "source": "https://sketchfab.com/3d-models/fossiliferous-limestone-2162020-106bbda8989e47ed95a676e5cbff4964",
      "title": "Fossiliferous Limestone 2/16/2020"
    },
    "generator": "Sketchfab-7.86.0",
    "version": "2.0"
  },
  "bufferViews": [
    {
      "buffer": 0,
      "byteLength": 10389624,
      "byteOffset": 0,
      "name": "floatBufferViews",
      "target": 34963
    },
    {
      "buffer": 0,
      "byteLength": 4141984,
      "byteOffset": 10389624,
      "byteStride": 8,
      "name": "floatBufferViews",
      "target": 34962
    },
    {
      "buffer": 0,
      "byteLength": 12425952,
      "byteOffset": 14531608,
      "byteStride": 12,
      "name": "floatBufferViews",
      "target": 34962
    }
  ],
  "buffers": [
    {
      "byteLength": 26957560,
      "uri": "scene.bin"
    }
  ],
  "extensionsUsed": [
    "KHR_materials_unlit"
  ],
  "images": [
    {
      "uri": "textures/model_baseColor.jpeg"
    }
  ],
  "materials": [
    {
      "doubleSided": true,
      "emissiveFactor": [
        0,
        0,
        0
      ],
      "extensions": {
        "KHR_materials_unlit": {}
      },
      "name": "model",
      "pbrMetallicRoughness": {
        "baseColorFactor": [
          1,
          1,
          1,
          1
        ],
        "baseColorTexture": {
          "index": 0,
          "texCoord": 0
        },
        "metallicFactor": 0,
        "roughnessFactor": 1
      }
    }
  ],
  "meshes": [
    {
      "primitives": [
        {
          "attributes": {
            "NORMAL": 1,
            "POSITION": 0,
            "TEXCOORD_0": 2
          },
          "indices": 3,
          "material": 0,
          "mode": 4
        }
      ]
    },
    {
      "primitives": [
        {
          "attributes": {
            "NORMAL": 5,
            "POSITION": 4,
            "TEXCOORD_0": 6
          },
          "indices": 7,
          "material": 0,
          "mode": 4
        }
      ]
    },
    {
      "primitives": [
        {
          "attributes": {
            "NORMAL": 9,
            "POSITION": 8,
            "TEXCOORD_0": 10
          },
          "indices": 11,
          "material": 0,
          "mode": 4
        }
      ]
    },
    {
      "primitives": [
        {
          "attributes": {
            "NORMAL": 13,
            "POSITION": 12,
            "TEXCOORD_0": 14
          },
          "indices": 15,
          "material": 0,
          "mode": 4
        }
      ]
    },
    {
      "primitives": [
        {
          "attributes": {
            "NORMAL": 17,
            "POSITION": 16,
            "TEXCOORD_0": 18
          },
          "indices": 19,
          "material": 0,
          "mode": 4
        }
      ]
    },
    {
      "primitives": [
        {
          "attributes": {
            "NORMAL": 21,
            "POSITION": 20,
            "TEXCOORD_0": 22
          },
          "indices": 23,
          "material": 0,
          "mode": 4
        }
      ]
    },
    {
      "primitives": [
        {
          "attributes": {
            "NORMAL": 25,
            "POSITION": 24,
            "TEXCOORD_0": 26
          },
          "indices": 27,
          "material": 0,
          "mode": 4
        }
      ]
    },
    {
      "primitives": [
        {
          "attributes": {
            "NORMAL": 29,
            "POSITION": 28,
            "TEXCOORD_0": 30
          },
          "indices": 31,
          "material": 0,
          "mode": 4
        }
      ]
    }
  ],
  "nodes": [
    {
      "children": [
        1
      ],
      "name": "RootNode (gltf orientation matrix)",
      "rotation": [
        -0.70710678118654746,
        -0,
        -0,
        0.70710678118654757
      ]
    },
    {
      "children": [
        2
      ],
      "name": "RootNode (model correction matrix)"
    },
    {
      "children": [
        3,
        4,
        5,
        6,
        7,
        8,
        9,
        10
      ],
      "name": "model.obj.cleaner.materialmerger.gles"
    },
    {
      "mesh": 0,
      "name": ""
    },
    {
      "mesh": 1,
      "name": ""
    },
    {
      "mesh": 2,
      "name": ""
    },
    {
      "mesh": 3,
      "name": ""
    },
    {
      "mesh": 4,
      "name": ""
    },
    {
      "mesh": 5,
      "name": ""
    },
    {
      "mesh": 6,
      "name": ""
    },
    {
      "mesh": 7,
      "name": ""
    }
  ],
  "samplers": [
    {
      "magFilter": 9729,
      "minFilter": 9987,
      "wrapS": 10497,
      "wrapT": 10497
    }
  ],
  "scene": 0,
  "scenes": [
    {
      "name": "OSG_Scene",
      "nodes": [
        0
      ]
    }
  ],
  "textures": [
    {
      "sampler": 0,
      "source": 0
    }
  ]
}

