{
  "accessors": [
    {
      "bufferView": 2,
      "componentType": 5126,
      "count": 65532,
      "max": [
        0.94825899600982666,
        0.99893701076507568,
        1.2696290016174316
      ],
      "min": [
        -1.30942702293396,
        0.090527996420860291,
        0.20953400433063507
      ],
      "type": "VEC3"
    },
    {
      "bufferView": 2,
      "byteOffset": 786384,
      "componentType": 5126,
      "count": 65532,
      "max": [
        0.99990147352218628,
        0.99999964237213135,
        0.99999451637268066
      ],
      "min": [
        -0.99988812208175659,
        -0.99690616130828857,
        -0.99924975633621216
      ],
      "type": "VEC3"
    },
    {
      "bufferView": 1,
      "componentType": 5126,
      "count": 65532,
      "max": [
        0.78240501880645752,
        0.93318498134613037
      ],
      "min": [
        0.055061999708414078,
        0.20249499380588531
      ],
      "type": "VEC2"
    },
    {
      "bufferView": 0,
      "componentType": 5125,
      "count": 363522,
      "max": [
        65531
      ],
      "min": [
        0
      ],
      "type": "SCALAR"
    },
    {
      "bufferView": 2,
      "byteOffset": 1572768,
      "componentType": 5126,
      "count": 65532,
      "max": [
        1.2065980434417725,
        0.98359698057174683,
        1.2147140502929688
      ],
      "min": [
        -1.3334900140762329,
        -0.30246299505233765,
        -0.65838700532913208
      ],
      "type": "VEC3"
    },
    {
      "bufferView": 2,
      "byteOffset": 2359152,
      "componentType": 5126,
      "count": 65532,
      "max": [
        0.99999815225601196,
        0.99999868869781494,
        0.99989849328994751
      ],
      "min": [
        -0.99981474876403809,
        -0.99970060586929321,
        -0.99872612953186035
      ],
      "type": "VEC3"
    },
    {
      "bufferView": 1,
      "byteOffset": 524256,
      "componentType": 5126,
      "count": 65532,
      "max": [
        0.95262998342514038,
        0.94944202899932861
      ],
      "min": [
        0.10728999972343445,
        0.16861400008201599
      ],
      "type": "VEC2"
    },
    {
      "bufferView": 0,
      "byteOffset": 1454088,
      "componentType": 5125,
      "count": 335391,
      "max": [
        65531
      ],
      "min": [
        0
      ],
      "type": "SCALAR"
    },
    {
      "bufferView": 2,
      "byteOffset": 3145536,
      "componentType": 5126,
      "count": 65532,
      "max": [
        1.2467999458312988,
        0.98937702178955078,
        1.1789009571075439
      ],
      "min": [
        -1.3357839584350586,
        -0.67718899250030518,
        -0.64428502321243286
      ],
      "type": "VEC3"
    },
    {
      "bufferView": 2,
      "byteOffset": 3931920,
      "componentType": 5126,
      "count": 65532,
      "max": [
        0.99997848272323608,
        0.99999934434890747,
        0.99991315603256226
      ],
      "min": [
        -0.999961256980896,
        -0.99999821186065674,
        -0.99351155757904053
      ],
      "type": "VEC3"
    },
    {
      "bufferView": 1,
      "byteOffset": 1048512,
      "componentType": 5126,
      "count": 65532,
      "max": [
        0.9382290244102478,
        0.95535999536514282
      ],
      "min": [
        0.086346998810768127,
        0.097699999809265137
      ],
      "type": "VEC2"
    },
    {
      "bufferView": 0,
      "byteOffset": 2795652,
      "componentType": 5125,
      "count": 324396,
      "max": [
        65531
      ],
      "min": [
        0
      ],
      "type": "SCALAR"
    },
    {
      "bufferView": 2,
      "byteOffset": 4718304,
      "componentType": 5126,
      "count": 65532,
      "max": [
        1.2596540451049805,
        0.99855101108551025,
        1.1094080209732056
      ],
      "min": [
        -1.3274270296096802,
        -0.77223402261734009,
        -0.5867990255355835
      ],
      "type": "VEC3"
    },
    {
      "bufferView": 2,
      "byteOffset": 5504688,
      "componentType": 5126,
      "count": 65532,
      "max": [
        0.99999624490737915,
        0.99999868869781494,
        0.99991315603256226
      ],
      "min": [
        -0.99969196319580078,
        -0.99996072053909302,
        -0.99997562170028687
      ],
      "type": "VEC3"
    },
    {
      "bufferView": 1,
      "byteOffset": 1572768,
      "componentType": 5126,
      "count": 65532,
      "max": [
        0.94751101732254028,
        0.95462799072265625
      ],
      "min": [
        0.05609000101685524,
        0.07245200127363205
      ],
      "type": "VEC2"
    },
    {
      "bufferView": 0,
      "byteOffset": 4093236,
      "componentType": 5125,
      "count": 316884,
      "max": [
        65531
      ],
      "min": [
        0
      ],
      "type": "SCALAR"
    },
    {
      "bufferView": 2,
      "byteOffset": 6291072,
      "componentType": 5126,
      "count": 65532,
      "max": [
        1.2445590496063232,
        0.95152497291564941,
        1.0360720157623291
      ],
      "min": [
        -1.3357579708099365,
        -0.77893602848052979,
        -0.64170300960540771
      ],
      "type": "VEC3"
    },
    {
      "bufferView": 2,
      "byteOffset": 7077456,
      "componentType": 5126,
      "count": 65532,
      "max": [
        0.99999213218688965,
        0.99999874830245972,
        0.99983876943588257
      ],
      "min": [
        -0.99994784593582153,
        -0.99999266862869263,
        -0.99069732427597046
      ],
      "type": "VEC3"
    },
    {
      "bufferView": 1,
      "byteOffset": 2097024,
      "componentType": 5126,
      "count": 65532,
      "max": [
        0.98315298557281494,
        0.94857597351074219
      ],
      "min": [
        0.023822000250220299,
        0.037503998726606369
      ],
      "type": "VEC2"
    },
    {
      "bufferView": 0,
      "byteOffset": 5360772,
      "componentType": 5125,
      "count": 325599,
      "max": [
        65531
      ],
      "min": [
        0
      ],
      "type": "SCALAR"
    },
    {
      "bufferView": 2,
      "byteOffset": 7863840,
      "componentType": 5126,
      "count": 65532,
      "max": [
        1.1688649654388428,
        0.95102399587631226,
        0.92625802755355835
      ],
      "min": [
        -1.3173539638519287,
        -0.80905801057815552,
        -0.60336399078369141
      ],
      "type": "VEC3"
    },
    {
      "bufferView": 2,
      "byteOffset": 8650224,
      "componentType": 5126,
      "count": 65532,
      "max": [
        0.9998285174369812,
        0.99999982118606567,
        0.99483144283294678
      ],
      "min": [
        -0.9996219277381897,
        -0.99999946355819702,
        -0.9996875524520874
      ],
      "type": "VEC3"
    },
    {
      "bufferView": 1,
      "byteOffset": 2621280,
      "componentType": 5126,
      "count": 65532,
      "max": [
        0.99987798929214478,
        0.95540601015090942
      ],
      "min": [
        0.0098019996657967567,
        0.0094419997185468674
      ],
      "type": "VEC2"
    },
    {
      "bufferView": 0,
      "byteOffset": 6663168,
      "componentType": 5125,
      "count": 324456,
      "max": [
        65531
      ],
      "min": [
        0
      ],
      "type": "SCALAR"
    },
    {
      "bufferView": 2,
      "byteOffset": 9436608,
      "componentType": 5126,
      "count": 65532,
      "max": [
        1.178130030632019,
        0.93249398469924927,
        0.77640897035598755
      ],
      "min": [
        -1.283079981803894,
        -0.82370597124099731,
        -0.71656399965286255
      ],
      "type": "VEC3"
    },
    {
      "bufferView": 2,
      "byteOffset": 10222992,
      "componentType": 5126,
      "count": 65532,
      "max": [
        0.9999421238899231,
        0.99999868869781494,
        0.99321746826171875
      ],
      "min": [
        -0.99998372793197632,
        -0.99999964237213135,
        -0.99972611665725708
      ],
      "type": "VEC3"
    },
    {
      "bufferView": 1,
      "byteOffset": 3145536,
      "componentType": 5126,
      "count": 65532,
      "max": [
        0.99987602233886719,
        0.84347301721572876
      ],
      "min": [
        0.00050399999599903822,
        1.1000000085914508e-05
      ],
      "type": "VEC2"
    },
    {
      "bufferView": 0,
      "byteOffset": 7960992,
      "componentType": 5125,
      "count": 330516,
      "max": [
        65531
      ],
      "min": [
        0
      ],
      "type": "SCALAR"
    },
    {
      "bufferView": 2,
      "byteOffset": 11009376,
      "componentType": 5126,
      "count": 65532,
      "max": [
        1.1473020315170288,
        0.90470099449157715,
        0.66990399360656738
      ],
      "min": [
        -1.2223269939422607,
        -0.82425600290298462,
        -0.81952100992202759
      ],
      "type": "VEC3"
    },
    {
      "bufferView": 2,
      "byteOffset": 11795760,
      "componentType": 5126,
      "count": 65532,
      "max": [
        0.99996346235275269,
        0.9999992847442627,
        0.99681812524795532
      ],
      "min": [
        -0.99980539083480835,
        -1,
        -0.99996477365493774
      ],
      "type": "VEC3"
    },
    {
      "bufferView": 1,
      "byteOffset": 3669792,
      "componentType": 5126,
      "count": 65532,
      "max": [
        0.998649001121521,
        0.85429298877716064
      ],
      "min": [
        0.021555999293923378,
        0.00023700000019744039
      ],
      "type": "VEC2"
    },
    {
      "bufferView": 0,
      "byteOffset": 9283056,
      "componentType": 5125,
      "count": 311058,
      "max": [
        65531
      ],
      "min": [
        0
      ],
      "type": "SCALAR"
    },
    {
      "bufferView": 2,
      "byteOffset": 12582144,
      "componentType": 5126,
      "count": 65532,
      "max": [
        1.2467999458312988,
        0.86264699697494507,
        0.4912790060043335
      ],
      "min": [
        -1.1174650192260742,
        -0.81938600540161133,
        -0.91614300012588501
      ],
      "type": "VEC3"
    },
    {
      "bufferView": 2,
      "byteOffset": 13368528,
      "componentType": 5126,
      "count": 65532,
      "max": [
        0.99994170665740967,
        0.99999982118606567,
        0.97743314504623413
      ],
      "min": [
        -0.99920123815536499,
        -0.99999970197677612,
        -0.9989159107208252
      ],
      "type": "VEC3"
    },
    {
      "bufferView": 1,
      "byteOffset": 4194048,
      "componentType": 5126,
      "count": 65532,
      "max": [
        0.99605399370193481,
        0.85223698616027832
      ],
      "min": [
        0.0067819999530911446,
        0.0022619999945163727
      ],
      "type": "VEC2"
    },
    {
      "bufferView": 0,
      "byteOffset": 10527288,
      "componentType": 5125,
      "count": 290331,
      "max": [
        65531
      ],
      "min": [
        0
      ],
      "type": "SCALAR"
    },
    {
      "bufferView": 2,
      "byteOffset": 14154912,
      "componentType": 5126,
      "count": 65532,
      "max": [
        1.2587579488754272,
        0.66329902410507202,
        0.1496800035238266
      ],
      "min": [
        -0.96570098400115967,
        -0.81646102666854858,
        -1.1184560060501099
      ],
      "type": "VEC3"
    },
    {
      "bufferView": 2,
      "byteOffset": 14941296,
      "componentType": 5126,
      "count": 65532,
      "max": [
        0.99992823600769043,
        0.99999940395355225,
        0.99856400489807129
      ],
      "min": [
        -0.99991071224212646,
        -0.99999970197677612,
        -0.99689823389053345
      ],
      "type": "VEC3"
    },
    {
      "bufferView": 1,
      "byteOffset": 4718304,
      "componentType": 5126,
      "count": 65532,
      "max": [
        0.99911797046661377,
        0.69773298501968384
      ],
      "min": [
        1.2000000424450263e-05,
        0.040970001369714737
      ],
      "type": "VEC2"
    },
    {
      "bufferView": 0,
      "byteOffset": 11688612,
      "componentType": 5125,
      "count": 298872,
      "max": [
        65531
      ],
      "min": [
        0
      ],
      "type": "SCALAR"
    },
    {
      "bufferView": 2,
      "byteOffset": 15727680,
      "componentType": 5126,
      "count": 65532,
      "max": [
        1.2445590496063232,
        0.52496302127838135,
        -0.12287600338459015
      ],
      "min": [
        -0.77776998281478882,
        -0.82394301891326904,
        -1.2639050483703613
      ],
      "type": "VEC3"
    },
    {
      "bufferView": 2,
      "byteOffset": 16514064,
      "componentType": 5126,
      "count": 65532,
      "max": [
        0.99999213218688965,
        0.99999165534973145,
        0.97684603929519653
      ],
      "min": [
        -0.99986886978149414,
        -1,
        -0.99998325109481812
      ],
      "type": "VEC3"
    },
    {
      "bufferView": 1,
      "byteOffset": 5242560,
      "componentType": 5126,
      "count": 65532,
      "max": [
        0.72464197874069214,
        0.62894999980926514
      ],
      "min": [
        0.0037370000500231981,
        0.14587600529193878
      ],
      "type": "VEC2"
    },
    {
      "bufferView": 0,
      "byteOffset": 12884100,
      "componentType": 5125,
      "count": 302265,
      "max": [
        65531
      ],
      "min": [
        0
      ],
      "type": "SCALAR"
    },
    {
      "bufferView": 2,
      "byteOffset": 17300448,
      "componentType": 5126,
      "count": 65532,
      "max": [
        1.2327879667282104,
        0.21773199737071991,
        -0.41504600644111633
      ],
      "min": [
        -0.6731640100479126,
        -0.81600099802017212,
        -1.3615399599075317
      ],
      "type": "VEC3"
    },
    {
      "bufferView": 2,
      "byteOffset": 18086832,
      "componentType": 5126,
      "count": 65532,
      "max": [
        0.99996376037597656,
        0.9998328685760498,
        0.99264627695083618
      ],
      "min": [
        -0.99995607137680054,
        -0.99999445676803589,
        -0.99998193979263306
      ],
      "type": "VEC3"
    },
    {
      "bufferView": 1,
      "byteOffset": 5766816,
      "componentType": 5126,
      "count": 65532,
      "max": [
        0.6614840030670166,
        0.56080102920532227
      ],
      "min": [
        0.00773600023239851,
        0.20235300064086914
      ],
      "type": "VEC2"
    },
    {
      "bufferView": 0,
      "byteOffset": 14093160,
      "componentType": 5125,
      "count": 314973,
      "max": [
        65531
      ],
      "min": [
        0
      ],
      "type": "SCALAR"
    },
    {
      "bufferView": 2,
      "byteOffset": 18873216,
      "componentType": 5126,
      "count": 4738,
      "max": [
        0.45417299866676331,
        -0.51758801937103271,
        -1.0460690259933472
      ],
      "min": [
        -0.47803801298141479,
        -0.75455999374389648,
        -1.3615399599075317
      ],
      "type": "VEC3"
    },
    {
      "bufferView": 2,
      "byteOffset": 18930072,
      "componentType": 5126,
      "count": 4738,
      "max": [
        0.99271339178085327,
        0.99899172782897949,
        0.98550611734390259
      ],
      "min": [
        -0.9041748046875,
        -0.99999094009399414,
        -0.99998193979263306
      ],
      "type": "VEC3"
    },
    {
      "bufferView": 1,
      "byteOffset": 6291072,
      "componentType": 5126,
      "count": 4738,
      "max": [
        0.39595898985862732,
        0.38889399170875549
      ],
      "min": [
        0.20798400044441223,
        0.30842301249504089
      ],
      "type": "VEC2"
    },
    {
      "bufferView": 0,
      "byteOffset": 15353052,
      "componentType": 5125,
      "count": 17121,
      "max": [
        4737
      ],
      "min": [
        0
      ],
      "type": "SCALAR"
    }
  ],
  "asset": {
    "extras": {
      "author": "rockdoc (https://sketchfab.com/rockdoc)",
      "license": "CC-BY-4.0 (http://creativecommons.org/licenses/by/4.0/)",
      "source": "https://sketchfab.com/3d-models/calcite-a4e65af1b86346a29cbd6b0a466139f9",
      "title": "calcite"
    },
    "generator": "Sketchfab-9.16.0",
    "version": "2.0"
  },
  "bufferViews": [
    {
      "buffer": 0,
      "byteLength": 15421536,
      "byteOffset": 0,
      "name": "floatBufferViews",
      "target": 34963
    },
    {
      "buffer": 0,
      "byteLength": 6328976,
      "byteOffset": 15421536,
      "byteStride": 8,
      "name": "floatBufferViews",
      "target": 34962
    },
    {
      "buffer": 0,
      "byteLength": 18986928,
      "byteOffset": 21750512,
      "byteStride": 12,
      "name": "floatBufferViews",
      "target": 34962
    }
  ],
  "buffers": [
    {
      "byteLength": 40737440,
      "uri": "scene.bin"
    }
  ],
  "extensionsUsed": [
    "KHR_materials_unlit"
  ],
  "images": [
    {
      "uri": "textures/model_baseColor.jpeg"
    }
  ],
  "materials": [
    {
      "doubleSided": true,
      "emissiveFactor": [
        0,
        0,
        0
      ],
      "extensions": {
        "KHR_materials_unlit": {}
      },
      "name": "model",
      "pbrMetallicRoughness": {
        "baseColorFactor": [
          1,
          1,
          1,
          1
        ],
        "baseColorTexture": {
          "index": 0,
          "texCoord": 0
        },
        "metallicFactor": 0,
        "roughnessFactor": 1
      }
    }
  ],
  "meshes": [
    {
      "primitives": [
        {
          "attributes": {
            "NORMAL": 1,
            "POSITION": 0,
            "TEXCOORD_0": 2
          },
          "indices": 3,
          "material": 0,
          "mode": 4
        }
      ]
    },
    {
      "primitives": [
        {
          "attributes": {
            "NORMAL": 5,
            "POSITION": 4,
            "TEXCOORD_0": 6
          },
          "indices": 7,
          "material": 0,
          "mode": 4
        }
      ]
    },
    {
      "primitives": [
        {
          "attributes": {
            "NORMAL": 9,
            "POSITION": 8,
            "TEXCOORD_0": 10
          },
          "indices": 11,
          "material": 0,
          "mode": 4
        }
      ]
    },
    {
      "primitives": [
        {
          "attributes": {
            "NORMAL": 13,
            "POSITION": 12,
            "TEXCOORD_0": 14
          },
          "indices": 15,
          "material": 0,
          "mode": 4
        }
      ]
    },
    {
      "primitives": [
        {
          "attributes": {
            "NORMAL": 17,
            "POSITION": 16,
            "TEXCOORD_0": 18
          },
          "indices": 19,
          "material": 0,
          "mode": 4
        }
      ]
    },
    {
      "primitives": [
        {
          "attributes": {
            "NORMAL": 21,
            "POSITION": 20,
            "TEXCOORD_0": 22
          },
          "indices": 23,
          "material": 0,
          "mode": 4
        }
      ]
    },
    {
      "primitives": [
        {
          "attributes": {
            "NORMAL": 25,
            "POSITION": 24,
            "TEXCOORD_0": 26
          },
          "indices": 27,
          "material": 0,
          "mode": 4
        }
      ]
    },
    {
      "primitives": [
        {
          "attributes": {
            "NORMAL": 29,
            "POSITION": 28,
            "TEXCOORD_0": 30
          },
          "indices": 31,
          "material": 0,
          "mode": 4
        }
      ]
    },
    {
      "primitives": [
        {
          "attributes": {
            "NORMAL": 33,
            "POSITION": 32,
            "TEXCOORD_0": 34
          },
          "indices": 35,
          "material": 0,
          "mode": 4
        }
      ]
    },
    {
      "primitives": [
        {
          "attributes": {
            "NORMAL": 37,
            "POSITION": 36,
            "TEXCOORD_0": 38
          },
          "indices": 39,
          "material": 0,
          "mode": 4
        }
      ]
    },
    {
      "primitives": [
        {
          "attributes": {
            "NORMAL": 41,
            "POSITION": 40,
            "TEXCOORD_0": 42
          },
          "indices": 43,
          "material": 0,
          "mode": 4
        }
      ]
    },
    {
      "primitives": [
        {
          "attributes": {
            "NORMAL": 45,
            "POSITION": 44,
            "TEXCOORD_0": 46
          },
          "indices": 47,
          "material": 0,
          "mode": 4
        }
      ]
    },
    {
      "primitives": [
        {
          "attributes": {
            "NORMAL": 49,
            "POSITION": 48,
            "TEXCOORD_0": 50
          },
          "indices": 51,
          "material": 0,
          "mode": 4
        }
      ]
    }
  ],
  "nodes": [
    {
      "children": [
        1
      ],
      "name": "RootNode (gltf orientation matrix)",
      "rotation": [
        -0.70710678118654746,
        -0,
        -0,
        0.70710678118654757
      ]
    },
    {
      "children": [
        2
      ],
      "name": "RootNode (model correction matrix)"
    },
    {
      "children": [
        3,
        4,
        5,
        6,
        7,
        8,
        9,
        10,
        11,
        12,
        13,
        14,
        15
      ],
      "name": "model.obj.cleaner.materialmerger.gles"
    },
    {
      "mesh": 0,
      "name": ""
    },
    {
      "mesh": 1,
      "name": ""
    },
    {
      "mesh": 2,
      "name": ""
    },
    {
      "mesh": 3,
      "name": ""
    },
    {
      "mesh": 4,
      "name": ""
    },
    {
      "mesh": 5,
      "name": ""
    },
    {
      "mesh": 6,
      "name": ""
    },
    {
      "mesh": 7,
      "name": ""
    },
    {
      "mesh": 8,
      "name": ""
    },
    {
      "mesh": 9,
      "name": ""
    },
    {
      "mesh": 10,
      "name": ""
    },
    {
      "mesh": 11,
      "name": ""
    },
    {
      "mesh": 12,
      "name": ""
    }
  ],
  "samplers": [
    {
      "magFilter": 9729,
      "minFilter": 9987,
      "wrapS": 10497,
      "wrapT": 10497
    }
  ],
  "scene": 0,
  "scenes": [
    {
      "name": "OSG_Scene",
      "nodes": [
        0
      ]
    }
  ],
  "textures": [
    {
      "sampler": 0,
      "source": 0
    }
  ]
}

