{
  "accessors": [
    {
      "bufferView": 2,
      "componentType": 5126,
      "count": 65532,
      "max": [
        1.8496550321578979,
        1.2518889904022217,
        1.4019190073013306
      ],
      "min": [
        -2.06131911277771,
        -1.740772008895874,
        -1.7896440029144287
      ],
      "type": "VEC3"
    },
    {
      "bufferView": 2,
      "byteOffset": 786384,
      "componentType": 5126,
      "count": 65532,
      "max": [
        0.99995929002761841,
        0.99864059686660767,
        0.99996894598007202
      ],
      "min": [
        -0.99990236759185791,
        -0.99996918439865112,
        -0.99987465143203735
      ],
      "type": "VEC3"
    },
    {
      "bufferView": 1,
      "componentType": 5126,
      "count": 65532,
      "max": [
        0.99819499254226685,
        0.94115698337554932
      ],
      "min": [
        0,
        0.029342999681830406
      ],
      "type": "VEC2"
    },
    {
      "bufferView": 0,
      "componentType": 5125,
      "count": 348003,
      "max": [
        65531
      ],
      "min": [
        0
      ],
      "type": "SCALAR"
    },
    {
      "bufferView": 2,
      "byteOffset": 1572768,
      "componentType": 5126,
      "count": 65532,
      "max": [
        1.7481319904327393,
        0.5846250057220459,
        1.6033849716186523
      ],
      "min": [
        -1.9111670255661011,
        -1.7235130071640015,
        -1.7029080390930176
      ],
      "type": "VEC3"
    },
    {
      "bufferView": 2,
      "byteOffset": 2359152,
      "componentType": 5126,
      "count": 65532,
      "max": [
        0.99985498189926147,
        0.99942642450332642,
        0.99996894598007202
      ],
      "min": [
        -0.99405163526535034,
        -0.99971020221710205,
        -0.9997517466545105
      ],
      "type": "VEC3"
    },
    {
      "bufferView": 1,
      "byteOffset": 524256,
      "componentType": 5126,
      "count": 65532,
      "max": [
        0.9945409893989563,
        0.93556702136993408
      ],
      "min": [
        0.099629998207092285,
        0.019522000104188919
      ],
      "type": "VEC2"
    },
    {
      "bufferView": 0,
      "byteOffset": 1392012,
      "componentType": 5125,
      "count": 335778,
      "max": [
        65531
      ],
      "min": [
        0
      ],
      "type": "SCALAR"
    },
    {
      "bufferView": 2,
      "byteOffset": 3145536,
      "componentType": 5126,
      "count": 65532,
      "max": [
        1.4646780490875244,
        1.683495044708252,
        1.7944649457931519
      ],
      "min": [
        -1.1451319456100464,
        -1.4881700277328491,
        -1.7340259552001953
      ],
      "type": "VEC3"
    },
    {
      "bufferView": 2,
      "byteOffset": 3931920,
      "componentType": 5126,
      "count": 65532,
      "max": [
        0.99998182058334351,
        0.99992680549621582,
        0.99999189376831055
      ],
      "min": [
        -0.99902105331420898,
        -0.99951034784317017,
        -0.99999064207077026
      ],
      "type": "VEC3"
    },
    {
      "bufferView": 1,
      "byteOffset": 1048512,
      "componentType": 5126,
      "count": 65532,
      "max": [
        0.99992597103118896,
        0.97992402315139771
      ],
      "min": [
        0.00026999998954124749,
        0.0053440001793205738
      ],
      "type": "VEC2"
    },
    {
      "bufferView": 0,
      "byteOffset": 2735124,
      "componentType": 5125,
      "count": 325419,
      "max": [
        65531
      ],
      "min": [
        0
      ],
      "type": "SCALAR"
    },
    {
      "bufferView": 2,
      "byteOffset": 4718304,
      "componentType": 5126,
      "count": 65533,
      "max": [
        1.3516629934310913,
        1.6894789934158325,
        1.8315279483795166
      ],
      "min": [
        -1.0975979566574097,
        -1.268746018409729,
        -1.7963030338287354
      ],
      "type": "VEC3"
    },
    {
      "bufferView": 2,
      "byteOffset": 5504700,
      "componentType": 5126,
      "count": 65533,
      "max": [
        0.99996930360794067,
        0.9999346137046814,
        0.9999847412109375
      ],
      "min": [
        -0.99999159574508667,
        -0.99899005889892578,
        -0.99999064207077026
      ],
      "type": "VEC3"
    },
    {
      "bufferView": 1,
      "byteOffset": 1572768,
      "componentType": 5126,
      "count": 65533,
      "max": [
        0.99919801950454712,
        0.98131102323532104
      ],
      "min": [
        0,
        0
      ],
      "type": "VEC2"
    },
    {
      "bufferView": 0,
      "byteOffset": 4036800,
      "componentType": 5125,
      "count": 312366,
      "max": [
        65532
      ],
      "min": [
        0
      ],
      "type": "SCALAR"
    },
    {
      "bufferView": 2,
      "byteOffset": 6291096,
      "componentType": 5126,
      "count": 65532,
      "max": [
        0.87717801332473755,
        1.6826410293579102,
        1.8305950164794922
      ],
      "min": [
        -2.2577691078186035,
        -1.0555839538574219,
        -1.7345789670944214
      ],
      "type": "VEC3"
    },
    {
      "bufferView": 2,
      "byteOffset": 7077480,
      "componentType": 5126,
      "count": 65532,
      "max": [
        0.99859786033630371,
        0.99998122453689575,
        0.99999189376831055
      ],
      "min": [
        -0.9999467134475708,
        -0.99968439340591431,
        -0.99990952014923096
      ],
      "type": "VEC3"
    },
    {
      "bufferView": 1,
      "byteOffset": 2097032,
      "componentType": 5126,
      "count": 65532,
      "max": [
        0.9987800121307373,
        0.98018002510070801
      ],
      "min": [
        1.5999999959603883e-05,
        0.0079479999840259552
      ],
      "type": "VEC2"
    },
    {
      "bufferView": 0,
      "byteOffset": 5286264,
      "componentType": 5125,
      "count": 317832,
      "max": [
        65531
      ],
      "min": [
        0
      ],
      "type": "SCALAR"
    },
    {
      "bufferView": 2,
      "byteOffset": 7863864,
      "componentType": 5126,
      "count": 60562,
      "max": [
        -0.0049859997816383839,
        1.4520469903945923,
        1.7409759759902954
      ],
      "min": [
        -2.2620849609375,
        -0.78346997499465942,
        -1.3879339694976807
      ],
      "type": "VEC3"
    },
    {
      "bufferView": 2,
      "byteOffset": 8590608,
      "componentType": 5126,
      "count": 60562,
      "max": [
        0.99933862686157227,
        0.99988621473312378,
        0.99964499473571777
      ],
      "min": [
        -0.9999467134475708,
        -0.99855363368988037,
        -0.99995923042297363
      ],
      "type": "VEC3"
    },
    {
      "bufferView": 1,
      "byteOffset": 2621288,
      "componentType": 5126,
      "count": 60562,
      "max": [
        0.9524649977684021,
        0.75842201709747314
      ],
      "min": [
        0.0045929998159408569,
        0.0082010002806782722
      ],
      "type": "VEC2"
    },
    {
      "bufferView": 0,
      "byteOffset": 6557592,
      "componentType": 5125,
      "count": 299586,
      "max": [
        60561
      ],
      "min": [
        0
      ],
      "type": "SCALAR"
    }
  ],
  "asset": {
    "extras": {
      "author": "rockdoc (https://sketchfab.com/rockdoc)",
      "license": "CC-BY-4.0 (http://creativecommons.org/licenses/by/4.0/)",
      "source": "https://sketchfab.com/3d-models/halite-323cf8eb403d459e9d0359d68ab1cf1d",
      "title": "halite"
    },
    "generator": "Sketchfab-9.16.0",
    "version": "2.0"
  },
  "bufferViews": [
    {
      "buffer": 0,
      "byteLength": 7755936,
      "byteOffset": 0,
      "name": "floatBufferViews",
      "target": 34963
    },
    {
      "buffer": 0,
      "byteLength": 3105784,
      "byteOffset": 7755936,
      "byteStride": 8,
      "name": "floatBufferViews",
      "target": 34962
    },
    {
      "buffer": 0,
      "byteLength": 9317352,
      "byteOffset": 10861720,
      "byteStride": 12,
      "name": "floatBufferViews",
      "target": 34962
    }
  ],
  "buffers": [
    {
      "byteLength": 20179072,
      "uri": "scene.bin"
    }
  ],
  "extensionsUsed": [
    "KHR_materials_unlit"
  ],
  "images": [
    {
      "uri": "textures/model_baseColor.jpeg"
    }
  ],
  "materials": [
    {
      "doubleSided": true,
      "emissiveFactor": [
        0,
        0,
        0
      ],
      "extensions": {
        "KHR_materials_unlit": {}
      },
      "name": "model",
      "pbrMetallicRoughness": {
        "baseColorFactor": [
          1,
          1,
          1,
          1
        ],
        "baseColorTexture": {
          "index": 0,
          "texCoord": 0
        },
        "metallicFactor": 0,
        "roughnessFactor": 1
      }
    }
  ],
  "meshes": [
    {
      "primitives": [
        {
          "attributes": {
            "NORMAL": 1,
            "POSITION": 0,
            "TEXCOORD_0": 2
          },
          "indices": 3,
          "material": 0,
          "mode": 4
        }
      ]
    },
    {
      "primitives": [
        {
          "attributes": {
            "NORMAL": 5,
            "POSITION": 4,
            "TEXCOORD_0": 6
          },
          "indices": 7,
          "material": 0,
          "mode": 4
        }
      ]
    },
    {
      "primitives": [
        {
          "attributes": {
            "NORMAL": 9,
            "POSITION": 8,
            "TEXCOORD_0": 10
          },
          "indices": 11,
          "material": 0,
          "mode": 4
        }
      ]
    },
    {
      "primitives": [
        {
          "attributes": {
            "NORMAL": 13,
            "POSITION": 12,
            "TEXCOORD_0": 14
          },
          "indices": 15,
          "material": 0,
          "mode": 4
        }
      ]
    },
    {
      "primitives": [
        {
          "attributes": {
            "NORMAL": 17,
            "POSITION": 16,
            "TEXCOORD_0": 18
          },
          "indices": 19,
          "material": 0,
          "mode": 4
        }
      ]
    },
    {
      "primitives": [
        {
          "attributes": {
            "NORMAL": 21,
            "POSITION": 20,
            "TEXCOORD_0": 22
          },
          "indices": 23,
          "material": 0,
          "mode": 4
        }
      ]
    }
  ],
  "nodes": [
    {
      "children": [
        1
      ],
      "name": "RootNode (gltf orientation matrix)",
      "rotation": [
        -0.70710678118654746,
        -0,
        -0,
        0.70710678118654757
      ]
    },
    {
      "children": [
        2
      ],
      "name": "RootNode (model correction matrix)"
    },
    {
      "children": [
        3,
        4,
        5,
        6,
        7,
        8
      ],
      "name": "model.obj.cleaner.materialmerger.gles"
    },
    {
      "mesh": 0,
      "name": ""
    },
    {
      "mesh": 1,
      "name": ""
    },
    {
      "mesh": 2,
      "name": ""
    },
    {
      "mesh": 3,
      "name": ""
    },
    {
      "mesh": 4,
      "name": ""
    },
    {
      "mesh": 5,
      "name": ""
    }
  ],
  "samplers": [
    {
      "magFilter": 9729,
      "minFilter": 9987,
      "wrapS": 10497,
      "wrapT": 10497
    }
  ],
  "scene": 0,
  "scenes": [
    {
      "name": "OSG_Scene",
      "nodes": [
        0
      ]
    }
  ],
  "textures": [
    {
      "sampler": 0,
      "source": 0
    }
  ]
}

