{
  "accessors": [
    {
      "bufferView": 2,
      "componentType": 5126,
      "count": 65532,
      "max": [
        2.3160970211029053,
        2.1770367622375488,
        1.656097412109375
      ],
      "min": [
        -1.2263696193695068,
        -2.0241119861602783,
        -2.434417724609375
      ],
      "type": "VEC3"
    },
    {
      "bufferView": 2,
      "byteOffset": 786384,
      "componentType": 5126,
      "count": 65532,
      "max": [
        0.99994730949401855,
        0.99998468160629272,
        0.99996715784072876
      ],
      "min": [
        -0.99941819906234741,
        -0.99999463558197021,
        -0.99987292289733887
      ],
      "type": "VEC3"
    },
    {
      "bufferView": 1,
      "componentType": 5126,
      "count": 65532,
      "max": [
        1,
        0.99103599786758423
      ],
      "min": [
        3.3634714782238007e-05,
        0.00013830326497554779
      ],
      "type": "VEC2"
    },
    {
      "bufferView": 0,
      "componentType": 5125,
      "count": 361593,
      "max": [
        65531
      ],
      "min": [
        0
      ],
      "type": "SCALAR"
    },
    {
      "bufferView": 2,
      "byteOffset": 1572768,
      "componentType": 5126,
      "count": 46185,
      "max": [
        0.16094276309013367,
        1.5160140991210938,
        2.2025928497314453
      ],
      "min": [
        -2.3911845684051514,
        -1.7188704013824463,
        -0.14119917154312134
      ],
      "type": "VEC3"
    },
    {
      "bufferView": 2,
      "byteOffset": 2126988,
      "componentType": 5126,
      "count": 46185,
      "max": [
        0.99993503093719482,
        0.99985206127166748,
        0.99998271465301514
      ],
      "min": [
        -0.99986827373504639,
        -0.99996703863143921,
        -0.99395674467086792
      ],
      "type": "VEC3"
    },
    {
      "bufferView": 1,
      "byteOffset": 524256,
      "componentType": 5126,
      "count": 46185,
      "max": [
        0.99954414367675781,
        0.9722105860710144
      ],
      "min": [
        0.0024906187318265438,
        0.00029930472373962402
      ],
      "type": "VEC2"
    },
    {
      "bufferView": 0,
      "byteOffset": 1446372,
      "componentType": 5125,
      "count": 260805,
      "max": [
        46184
      ],
      "min": [
        0
      ],
      "type": "SCALAR"
    },
    {
      "bufferView": 2,
      "byteOffset": 2681208,
      "componentType": 5126,
      "count": 65532,
      "max": [
        2.290149450302124,
        1.9760611057281494,
        2.0288944244384766
      ],
      "min": [
        -2.3045206069946289,
        -2.0656969547271729,
        -1.7099466323852539
      ],
      "type": "VEC3"
    },
    {
      "bufferView": 2,
      "byteOffset": 3467592,
      "componentType": 5126,
      "count": 65532,
      "max": [
        0.99997919797897339,
        0.99999982118606567,
        0.99999034404754639
      ],
      "min": [
        -0.99997156858444214,
        -0.99990826845169067,
        -0.99998700618743896
      ],
      "type": "VEC3"
    },
    {
      "bufferView": 1,
      "byteOffset": 893736,
      "componentType": 5126,
      "count": 65532,
      "max": [
        0.97911131381988525,
        1
      ],
      "min": [
        0.00034762918949127197,
        0
      ],
      "type": "VEC2"
    },
    {
      "bufferView": 0,
      "byteOffset": 2489592,
      "componentType": 5125,
      "count": 360804,
      "max": [
        65531
      ],
      "min": [
        0
      ],
      "type": "SCALAR"
    },
    {
      "bufferView": 2,
      "byteOffset": 4253976,
      "componentType": 5126,
      "count": 43556,
      "max": [
        0.45118102431297302,
        1.4394235610961914,
        2.0941371917724609
      ],
      "min": [
        -2.3148088455200195,
        -2.0656969547271729,
        -0.87872797250747681
      ],
      "type": "VEC3"
    },
    {
      "bufferView": 2,
      "byteOffset": 4776648,
      "componentType": 5126,
      "count": 43556,
      "max": [
        0.99978500604629517,
        0.99996721744537354,
        0.99994605779647827
      ],
      "min": [
        -0.99997156858444214,
        -0.99987393617630005,
        -0.99997317790985107
      ],
      "type": "VEC3"
    },
    {
      "bufferView": 1,
      "byteOffset": 1417992,
      "componentType": 5126,
      "count": 43556,
      "max": [
        0.97895842790603638,
        0.9659532904624939
      ],
      "min": [
        0.017148137092590332,
        0.00027456134557723999
      ],
      "type": "VEC2"
    },
    {
      "bufferView": 0,
      "byteOffset": 3932808,
      "componentType": 5125,
      "count": 237501,
      "max": [
        43555
      ],
      "min": [
        0
      ],
      "type": "SCALAR"
    },
    {
      "bufferView": 2,
      "byteOffset": 5299320,
      "componentType": 5126,
      "count": 65532,
      "max": [
        2.3528792858123779,
        2.1675887107849121,
        0.89375394582748413
      ],
      "min": [
        -0.45879223942756653,
        -2.0402660369873047,
        -2.2995548248291016
      ],
      "type": "VEC3"
    },
    {
      "bufferView": 2,
      "byteOffset": 6085704,
      "componentType": 5126,
      "count": 65532,
      "max": [
        0.99999946355819702,
        1,
        0.99997091293334961
      ],
      "min": [
        -0.99936151504516602,
        -0.9999772310256958,
        -0.99983119964599609
      ],
      "type": "VEC3"
    },
    {
      "bufferView": 1,
      "byteOffset": 1766440,
      "componentType": 5126,
      "count": 65532,
      "max": [
        1,
        0.99718737602233887
      ],
      "min": [
        0.00030887126922607422,
        0.0012817474780604243
      ],
      "type": "VEC2"
    },
    {
      "bufferView": 0,
      "byteOffset": 4882812,
      "componentType": 5125,
      "count": 373194,
      "max": [
        65531
      ],
      "min": [
        0
      ],
      "type": "SCALAR"
    },
    {
      "bufferView": 2,
      "byteOffset": 6872088,
      "componentType": 5126,
      "count": 48794,
      "max": [
        1.4419838190078735,
        2.1718347072601318,
        1.6701507568359375
      ],
      "min": [
        -2.3496055603027344,
        -2.0059986114501953,
        -1.0796957015991211
      ],
      "type": "VEC3"
    },
    {
      "bufferView": 2,
      "byteOffset": 7457616,
      "componentType": 5126,
      "count": 48794,
      "max": [
        0.99961113929748535,
        0.99998551607131958,
        0.99998378753662109
      ],
      "min": [
        -0.99987196922302246,
        -0.99994784593582153,
        -0.99997711181640625
      ],
      "type": "VEC3"
    },
    {
      "bufferView": 1,
      "byteOffset": 2290696,
      "componentType": 5126,
      "count": 48794,
      "max": [
        0.99972474575042725,
        0.99680966138839722
      ],
      "min": [
        1.0855495929718018e-05,
        0.00013207286247052252
      ],
      "type": "VEC2"
    },
    {
      "bufferView": 0,
      "byteOffset": 6375588,
      "componentType": 5125,
      "count": 267486,
      "max": [
        48793
      ],
      "min": [
        0
      ],
      "type": "SCALAR"
    },
    {
      "bufferView": 2,
      "byteOffset": 8043144,
      "componentType": 5126,
      "count": 65532,
      "max": [
        1.8391003608703613,
        1.9808969497680664,
        1.3403806686401367
      ],
      "min": [
        -1.8010139465332031,
        -2.0402660369873047,
        -2.3408174514770508
      ],
      "type": "VEC3"
    },
    {
      "bufferView": 2,
      "byteOffset": 8829528,
      "componentType": 5126,
      "count": 65532,
      "max": [
        0.99996852874755859,
        0.9999849796295166,
        0.99984204769134521
      ],
      "min": [
        -0.99997740983963013,
        -0.99996936321258545,
        -0.99999070167541504
      ],
      "type": "VEC3"
    },
    {
      "bufferView": 1,
      "byteOffset": 2681048,
      "componentType": 5126,
      "count": 65532,
      "max": [
        0.99997872114181519,
        0.98187476396560669
      ],
      "min": [
        0,
        0.00019987388805020601
      ],
      "type": "VEC2"
    },
    {
      "bufferView": 0,
      "byteOffset": 7445532,
      "componentType": 5125,
      "count": 367686,
      "max": [
        65531
      ],
      "min": [
        0
      ],
      "type": "SCALAR"
    },
    {
      "bufferView": 2,
      "byteOffset": 9615912,
      "componentType": 5126,
      "count": 42444,
      "max": [
        0.030879473313689232,
        1.0496362447738647,
        1.8944787979125977
      ],
      "min": [
        -2.817307710647583,
        -1.7153840065002441,
        -0.35506349802017212
      ],
      "type": "VEC3"
    },
    {
      "bufferView": 2,
      "byteOffset": 10125240,
      "componentType": 5126,
      "count": 42444,
      "max": [
        0.99661880731582642,
        0.99996215105056763,
        0.99986028671264648
      ],
      "min": [
        -0.99992501735687256,
        -0.99997711181640625,
        -0.9999348521232605
      ],
      "type": "VEC3"
    },
    {
      "bufferView": 1,
      "byteOffset": 3205304,
      "componentType": 5126,
      "count": 42444,
      "max": [
        0.99995863437652588,
        0.94780707359313965
      ],
      "min": [
        0.0004243701696395874,
        0.018814563751220703
      ],
      "type": "VEC2"
    },
    {
      "bufferView": 0,
      "byteOffset": 8916276,
      "componentType": 5125,
      "count": 247050,
      "max": [
        42443
      ],
      "min": [
        0
      ],
      "type": "SCALAR"
    },
    {
      "bufferView": 2,
      "byteOffset": 10634568,
      "componentType": 5126,
      "count": 65532,
      "max": [
        2.2468397617340088,
        1.888253927230835,
        1.7833194732666016
      ],
      "min": [
        -1.4394431114196777,
        -2.0146617889404297,
        -2.4546298980712891
      ],
      "type": "VEC3"
    },
    {
      "bufferView": 2,
      "byteOffset": 11420952,
      "componentType": 5126,
      "count": 65532,
      "max": [
        0.9999355673789978,
        0.99997001886367798,
        0.99993711709976196
      ],
      "min": [
        -0.99907320737838745,
        -0.99998289346694946,
        -0.99997735023498535
      ],
      "type": "VEC3"
    },
    {
      "bufferView": 1,
      "byteOffset": 3544856,
      "componentType": 5126,
      "count": 65532,
      "max": [
        0.99398279190063477,
        0.99996203184127808
      ],
      "min": [
        1.0018377906817477e-05,
        2.7214002784603508e-06
      ],
      "type": "VEC2"
    },
    {
      "bufferView": 0,
      "byteOffset": 9904476,
      "componentType": 5125,
      "count": 363819,
      "max": [
        65531
      ],
      "min": [
        0
      ],
      "type": "SCALAR"
    },
    {
      "bufferView": 2,
      "byteOffset": 12207336,
      "componentType": 5126,
      "count": 47147,
      "max": [
        0.85966157913208008,
        1.6038262844085693,
        2.1707820892333984
      ],
      "min": [
        -2.2866573333740234,
        -2.0153257846832275,
        -1.1590356826782227
      ],
      "type": "VEC3"
    },
    {
      "bufferView": 2,
      "byteOffset": 12773100,
      "componentType": 5126,
      "count": 47147,
      "max": [
        0.99995332956314087,
        0.99997830390930176,
        0.99999099969863892
      ],
      "min": [
        -0.99998015165328979,
        -0.9999963641166687,
        -0.99882042407989502
      ],
      "type": "VEC3"
    },
    {
      "bufferView": 1,
      "byteOffset": 4069112,
      "componentType": 5126,
      "count": 47147,
      "max": [
        0.99272596836090088,
        0.99663901329040527
      ],
      "min": [
        0.00019106268882751465,
        0.00085174210835248232
      ],
      "type": "VEC2"
    },
    {
      "bufferView": 0,
      "byteOffset": 11359752,
      "componentType": 5125,
      "count": 251646,
      "max": [
        47146
      ],
      "min": [
        0
      ],
      "type": "SCALAR"
    },
    {
      "bufferView": 2,
      "byteOffset": 13338864,
      "componentType": 5126,
      "count": 65532,
      "max": [
        2.1595749855041504,
        1.9940025806427002,
        1.989008903503418
      ],
      "min": [
        -2.3646872043609619,
        -2.028989315032959,
        -1.5169801712036133
      ],
      "type": "VEC3"
    },
    {
      "bufferView": 2,
      "byteOffset": 14125248,
      "componentType": 5126,
      "count": 65532,
      "max": [
        0.99968177080154419,
        0.99999421834945679,
        0.99999696016311646
      ],
      "min": [
        -0.99983906745910645,
        -0.99996381998062134,
        -0.99998170137405396
      ],
      "type": "VEC3"
    },
    {
      "bufferView": 1,
      "byteOffset": 4446288,
      "componentType": 5126,
      "count": 65532,
      "max": [
        0.99690574407577515,
        0.99996525049209595
      ],
      "min": [
        0.00045331940054893494,
        0.0031344466842710972
      ],
      "type": "VEC2"
    },
    {
      "bufferView": 0,
      "byteOffset": 12366336,
      "componentType": 5125,
      "count": 363096,
      "max": [
        65531
      ],
      "min": [
        0
      ],
      "type": "SCALAR"
    },
    {
      "bufferView": 2,
      "byteOffset": 14911632,
      "componentType": 5126,
      "count": 41595,
      "max": [
        -1.3098633289337158,
        1.1793086528778076,
        1.9885110855102539
      ],
      "min": [
        -2.8583731651306152,
        -1.6342427730560303,
        0.27606195211410522
      ],
      "type": "VEC3"
    },
    {
      "bufferView": 2,
      "byteOffset": 15410772,
      "componentType": 5126,
      "count": 41595,
      "max": [
        0.99212461709976196,
        0.99972105026245117,
        0.9999881386756897
      ],
      "min": [
        -0.99997729063034058,
        -0.99994796514511108,
        -0.99106764793395996
      ],
      "type": "VEC3"
    },
    {
      "bufferView": 1,
      "byteOffset": 4970544,
      "componentType": 5126,
      "count": 41595,
      "max": [
        0.99676370620727539,
        0.98689711093902588
      ],
      "min": [
        0.0074850693345069885,
        0.00012166837404947728
      ],
      "type": "VEC2"
    },
    {
      "bufferView": 0,
      "byteOffset": 13818720,
      "componentType": 5125,
      "count": 237882,
      "max": [
        41594
      ],
      "min": [
        0
      ],
      "type": "SCALAR"
    }
  ],
  "asset": {
    "extras": {
      "author": "Sara Carena (https://sketchfab.com/saracarena1)",
      "license": "CC-BY-4.0 (http://creativecommons.org/licenses/by/4.0/)",
      "source": "https://sketchfab.com/3d-models/bandelier-tuff-usa-8fcb9d982ffa4dca8ce5c58285927253",
      "title": "Bandelier tuff, USA"
    },
    "generator": "Sketchfab-8.36.0",
    "version": "2.0"
  },
  "bufferViews": [
    {
      "buffer": 0,
      "byteLength": 14770248,
      "byteOffset": 0,
      "name": "floatBufferViews",
      "target": 34963
    },
    {
      "buffer": 0,
      "byteLength": 5303304,
      "byteOffset": 14770248,
      "byteStride": 8,
      "name": "floatBufferViews",
      "target": 34962
    },
    {
      "buffer": 0,
      "byteLength": 15909912,
      "byteOffset": 20073552,
      "byteStride": 12,
      "name": "floatBufferViews",
      "target": 34962
    }
  ],
  "buffers": [
    {
      "byteLength": 35983464,
      "uri": "scene.bin"
    }
  ],
  "extensionsUsed": [
    "KHR_materials_unlit"
  ],
  "images": [
    {
      "uri": "textures/material0_baseColor.jpeg"
    },
    {
      "uri": "textures/material4_baseColor.jpeg"
    },
    {
      "uri": "textures/material3_baseColor.jpeg"
    },
    {
      "uri": "textures/material5_baseColor.jpeg"
    },
    {
      "uri": "textures/material2_baseColor.jpeg"
    },
    {
      "uri": "textures/material1_baseColor.jpeg"
    }
  ],
  "materials": [
    {
      "doubleSided": true,
      "emissiveFactor": [
        0,
        0,
        0
      ],
      "extensions": {
        "KHR_materials_unlit": {}
      },
      "name": "material0",
      "pbrMetallicRoughness": {
        "baseColorFactor": [
          1,
          1,
          1,
          1
        ],
        "baseColorTexture": {
          "index": 0,
          "texCoord": 0
        },
        "metallicFactor": 0,
        "roughnessFactor": 1
      }
    },
    {
      "doubleSided": true,
      "emissiveFactor": [
        0,
        0,
        0
      ],
      "extensions": {
        "KHR_materials_unlit": {}
      },
      "name": "material4",
      "pbrMetallicRoughness": {
        "baseColorFactor": [
          1,
          1,
          1,
          1
        ],
        "baseColorTexture": {
          "index": 1,
          "texCoord": 0
        },
        "metallicFactor": 0,
        "roughnessFactor": 1
      }
    },
    {
      "doubleSided": true,
      "emissiveFactor": [
        0,
        0,
        0
      ],
      "extensions": {
        "KHR_materials_unlit": {}
      },
      "name": "material3",
      "pbrMetallicRoughness": {
        "baseColorFactor": [
          1,
          1,
          1,
          1
        ],
        "baseColorTexture": {
          "index": 2,
          "texCoord": 0
        },
        "metallicFactor": 0,
        "roughnessFactor": 1
      }
    },
    {
      "doubleSided": true,
      "emissiveFactor": [
        0,
        0,
        0
      ],
      "extensions": {
        "KHR_materials_unlit": {}
      },
      "name": "material5",
      "pbrMetallicRoughness": {
        "baseColorFactor": [
          1,
          1,
          1,
          1
        ],
        "baseColorTexture": {
          "index": 3,
          "texCoord": 0
        },
        "metallicFactor": 0,
        "roughnessFactor": 1
      }
    },
    {
      "doubleSided": true,
      "emissiveFactor": [
        0,
        0,
        0
      ],
      "extensions": {
        "KHR_materials_unlit": {}
      },
      "name": "material2",
      "pbrMetallicRoughness": {
        "baseColorFactor": [
          1,
          1,
          1,
          1
        ],
        "baseColorTexture": {
          "index": 4,
          "texCoord": 0
        },
        "metallicFactor": 0,
        "roughnessFactor": 1
      }
    },
    {
      "doubleSided": true,
      "emissiveFactor": [
        0,
        0,
        0
      ],
      "extensions": {
        "KHR_materials_unlit": {}
      },
      "name": "material1",
      "pbrMetallicRoughness": {
        "baseColorFactor": [
          1,
          1,
          1,
          1
        ],
        "baseColorTexture": {
          "index": 5,
          "texCoord": 0
        },
        "metallicFactor": 0,
        "roughnessFactor": 1
      }
    }
  ],
  "meshes": [
    {
      "name": "Model_material0_0",
      "primitives": [
        {
          "attributes": {
            "NORMAL": 1,
            "POSITION": 0,
            "TEXCOORD_0": 2
          },
          "indices": 3,
          "material": 0,
          "mode": 4
        }
      ]
    },
    {
      "name": "Model_material0_0",
      "primitives": [
        {
          "attributes": {
            "NORMAL": 5,
            "POSITION": 4,
            "TEXCOORD_0": 6
          },
          "indices": 7,
          "material": 0,
          "mode": 4
        }
      ]
    },
    {
      "name": "Model_material4_0",
      "primitives": [
        {
          "attributes": {
            "NORMAL": 9,
            "POSITION": 8,
            "TEXCOORD_0": 10
          },
          "indices": 11,
          "material": 1,
          "mode": 4
        }
      ]
    },
    {
      "name": "Model_material4_0",
      "primitives": [
        {
          "attributes": {
            "NORMAL": 13,
            "POSITION": 12,
            "TEXCOORD_0": 14
          },
          "indices": 15,
          "material": 1,
          "mode": 4
        }
      ]
    },
    {
      "name": "Model_material3_0",
      "primitives": [
        {
          "attributes": {
            "NORMAL": 17,
            "POSITION": 16,
            "TEXCOORD_0": 18
          },
          "indices": 19,
          "material": 2,
          "mode": 4
        }
      ]
    },
    {
      "name": "Model_material3_0",
      "primitives": [
        {
          "attributes": {
            "NORMAL": 21,
            "POSITION": 20,
            "TEXCOORD_0": 22
          },
          "indices": 23,
          "material": 2,
          "mode": 4
        }
      ]
    },
    {
      "name": "Model_material5_0",
      "primitives": [
        {
          "attributes": {
            "NORMAL": 25,
            "POSITION": 24,
            "TEXCOORD_0": 26
          },
          "indices": 27,
          "material": 3,
          "mode": 4
        }
      ]
    },
    {
      "name": "Model_material5_0",
      "primitives": [
        {
          "attributes": {
            "NORMAL": 29,
            "POSITION": 28,
            "TEXCOORD_0": 30
          },
          "indices": 31,
          "material": 3,
          "mode": 4
        }
      ]
    },
    {
      "name": "Model_material2_0",
      "primitives": [
        {
          "attributes": {
            "NORMAL": 33,
            "POSITION": 32,
            "TEXCOORD_0": 34
          },
          "indices": 35,
          "material": 4,
          "mode": 4
        }
      ]
    },
    {
      "name": "Model_material2_0",
      "primitives": [
        {
          "attributes": {
            "NORMAL": 37,
            "POSITION": 36,
            "TEXCOORD_0": 38
          },
          "indices": 39,
          "material": 4,
          "mode": 4
        }
      ]
    },
    {
      "name": "Model_material1_0",
      "primitives": [
        {
          "attributes": {
            "NORMAL": 41,
            "POSITION": 40,
            "TEXCOORD_0": 42
          },
          "indices": 43,
          "material": 5,
          "mode": 4
        }
      ]
    },
    {
      "name": "Model_material1_0",
      "primitives": [
        {
          "attributes": {
            "NORMAL": 45,
            "POSITION": 44,
            "TEXCOORD_0": 46
          },
          "indices": 47,
          "material": 5,
          "mode": 4
        }
      ]
    }
  ],
  "nodes": [
    {
      "children": [
        1
      ],
      "name": "RootNode (gltf orientation matrix)",
      "rotation": [
        -0.70710678118654746,
        -0,
        -0,
        0.70710678118654757
      ]
    },
    {
      "children": [
        2
      ],
      "name": "RootNode (model correction matrix)"
    },
    {
      "children": [
        3
      ],
      "matrix": [
        1,
        0,
        0,
        0,
        0,
        -1,
        0,
        0,
        0,
        0,
        -1,
        0,
        0,
        0,
        0,
        1
      ],
      "name": "model.fbx"
    },
    {
      "children": [
        4
      ],
      "name": "RootNode"
    },
    {
      "children": [
        5,
        6,
        7,
        8,
        9,
        10,
        11,
        12,
        13,
        14,
        15,
        16
      ],
      "name": "Model"
    },
    {
      "mesh": 0,
      "name": "Model_material0_0"
    },
    {
      "mesh": 1,
      "name": "Model_material0_0"
    },
    {
      "mesh": 2,
      "name": "Model_material4_0"
    },
    {
      "mesh": 3,
      "name": "Model_material4_0"
    },
    {
      "mesh": 4,
      "name": "Model_material3_0"
    },
    {
      "mesh": 5,
      "name": "Model_material3_0"
    },
    {
      "mesh": 6,
      "name": "Model_material5_0"
    },
    {
      "mesh": 7,
      "name": "Model_material5_0"
    },
    {
      "mesh": 8,
      "name": "Model_material2_0"
    },
    {
      "mesh": 9,
      "name": "Model_material2_0"
    },
    {
      "mesh": 10,
      "name": "Model_material1_0"
    },
    {
      "mesh": 11,
      "name": "Model_material1_0"
    }
  ],
  "samplers": [
    {
      "magFilter": 9729,
      "minFilter": 9987,
      "wrapS": 10497,
      "wrapT": 10497
    }
  ],
  "scene": 0,
  "scenes": [
    {
      "name": "OSG_Scene",
      "nodes": [
        0
      ]
    }
  ],
  "textures": [
    {
      "sampler": 0,
      "source": 0
    },
    {
      "sampler": 0,
      "source": 1
    },
    {
      "sampler": 0,
      "source": 2
    },
    {
      "sampler": 0,
      "source": 3
    },
    {
      "sampler": 0,
      "source": 4
    },
    {
      "sampler": 0,
      "source": 5
    }
  ]
}

