{
    "asset" : {
        "generator" : "Khronos glTF Blender I/O v1.2.75",
        "version" : "2.0"
    },
    "scene" : 0,
    "scenes" : [
        {
            "name" : "Scene",
            "nodes" : [
                4
            ]
        }
    ],
    "nodes" : [
        {
            "mesh" : 0,
            "name" : "Mesh_0"
        },
        {
            "mesh" : 1,
            "name" : "Mesh_1"
        },
        {
            "children" : [
                0,
                1
            ],
            "name" : "Feldspar.obj.cleaner.materialmerger.gles"
        },
        {
            "children" : [
                2
            ],
            "name" : "RootNode (model correction matrix)"
        },
        {
            "children" : [
                3
            ],
            "name" : "RootNode (gltf orientation matrix)",
            "rotation" : [
                -0.7071067690849304,
                0,
                0,
                0.7071067690849304
            ]
        }
    ],
    "materials" : [
        {
            "doubleSided" : true,
            "emissiveFactor" : [
                1,
                1,
                1
            ],
            "emissiveTexture" : {
                "index" : 0,
                "texCoord" : 0
            },
            "name" : "Feldspar",
            "pbrMetallicRoughness" : {}
        }
    ],
    "meshes" : [
        {
            "name" : "Mesh_0",
            "primitives" : [
                {
                    "attributes" : {
                        "POSITION" : 0,
                        "NORMAL" : 1,
                        "TEXCOORD_0" : 2
                    },
                    "indices" : 3,
                    "material" : 0
                }
            ]
        },
        {
            "name" : "Mesh_1",
            "primitives" : [
                {
                    "attributes" : {
                        "POSITION" : 4,
                        "NORMAL" : 5,
                        "TEXCOORD_0" : 6
                    },
                    "indices" : 7,
                    "material" : 0
                }
            ]
        }
    ],
    "textures" : [
        {
            "source" : 0
        }
    ],
    "images" : [
        {
            "mimeType" : "image/jpeg",
            "name" : "Feldspar_baseColor",
            "uri" : "Feldspar_baseColor.jpg"
        }
    ],
    "accessors" : [
        {
            "bufferView" : 0,
            "componentType" : 5126,
            "count" : 65630,
            "max" : [
                1.0937199592590332,
                0.7981472015380859,
                0.6528926491737366
            ],
            "min" : [
                -1.1659409999847412,
                -0.7495393753051758,
                -0.7731723785400391
            ],
            "type" : "VEC3"
        },
        {
            "bufferView" : 1,
            "componentType" : 5126,
            "count" : 65630,
            "type" : "VEC3"
        },
        {
            "bufferView" : 2,
            "componentType" : 5126,
            "count" : 65630,
            "type" : "VEC2"
        },
        {
            "bufferView" : 3,
            "componentType" : 5125,
            "count" : 373017,
            "type" : "SCALAR"
        },
        {
            "bufferView" : 4,
            "componentType" : 5126,
            "count" : 45670,
            "max" : [
                0.0630120038986206,
                0.8384904861450195,
                0.6807736158370972
            ],
            "min" : [
                -1.1874339580535889,
                -0.64569091796875,
                -0.7454613447189331
            ],
            "type" : "VEC3"
        },
        {
            "bufferView" : 5,
            "componentType" : 5126,
            "count" : 45670,
            "type" : "VEC3"
        },
        {
            "bufferView" : 6,
            "componentType" : 5126,
            "count" : 45670,
            "type" : "VEC2"
        },
        {
            "bufferView" : 7,
            "componentType" : 5123,
            "count" : 247905,
            "type" : "SCALAR"
        }
    ],
    "bufferViews" : [
        {
            "buffer" : 0,
            "byteLength" : 787560,
            "byteOffset" : 0
        },
        {
            "buffer" : 0,
            "byteLength" : 787560,
            "byteOffset" : 787560
        },
        {
            "buffer" : 0,
            "byteLength" : 525040,
            "byteOffset" : 1575120
        },
        {
            "buffer" : 0,
            "byteLength" : 1492068,
            "byteOffset" : 2100160
        },
        {
            "buffer" : 0,
            "byteLength" : 548040,
            "byteOffset" : 3592228
        },
        {
            "buffer" : 0,
            "byteLength" : 548040,
            "byteOffset" : 4140268
        },
        {
            "buffer" : 0,
            "byteLength" : 365360,
            "byteOffset" : 4688308
        },
        {
            "buffer" : 0,
            "byteLength" : 495810,
            "byteOffset" : 5053668
        }
    ],
    "buffers" : [
        {
            "byteLength" : 5549480,
            "uri" : "scene.bin"
        }
    ]
}
