{
    "asset" : {
        "generator" : "Khronos glTF Blender I/O v1.2.75",
        "version" : "2.0"
    },
    "scene" : 0,
    "scenes" : [
        {
            "name" : "Scene",
            "nodes" : [
                5
            ]
        }
    ],
    "nodes" : [
        {
            "mesh" : 0,
            "name" : "Model_material0_0"
        },
        {
            "children" : [
                0
            ],
            "name" : "Model"
        },
        {
            "children" : [
                1
            ],
            "name" : "RootNode"
        },
        {
            "children" : [
                2
            ],
            "name" : "model.fbx",
            "rotation" : [
                1,
                0,
                0,
                0
            ]
        },
        {
            "children" : [
                3
            ],
            "name" : "RootNode (model correction matrix)"
        },
        {
            "children" : [
                4
            ],
            "name" : "RootNode (gltf orientation matrix)",
            "rotation" : [
                -0.7071067690849304,
                0,
                0,
                0.7071067690849304
            ]
        }
    ],
    "materials" : [
        {
            "doubleSided" : true,
            "emissiveFactor" : [
                1,
                1,
                1
            ],
            "emissiveTexture" : {
                "index" : 0,
                "texCoord" : 0
            },
            "name" : "material0",
            "pbrMetallicRoughness" : {}
        }
    ],
    "meshes" : [
        {
            "name" : "Model_material0_0",
            "primitives" : [
                {
                    "attributes" : {
                        "POSITION" : 0,
                        "NORMAL" : 1,
                        "TEXCOORD_0" : 2
                    },
                    "indices" : 3,
                    "material" : 0
                }
            ]
        }
    ],
    "textures" : [
        {
            "source" : 0
        }
    ],
    "images" : [
        {
            "bufferView" : 4,
            "mimeType" : "image/jpeg",
            "name" : "material0_baseColor"
        }
    ],
    "accessors" : [
        {
            "bufferView" : 0,
            "componentType" : 5126,
            "count" : 5275,
            "max" : [
                0.46623578667640686,
                0.28567177057266235,
                0.20179162919521332
            ],
            "min" : [
                -0.43340224027633667,
                -0.3872336149215698,
                -0.13765062391757965
            ],
            "type" : "VEC3"
        },
        {
            "bufferView" : 1,
            "componentType" : 5126,
            "count" : 5275,
            "type" : "VEC3"
        },
        {
            "bufferView" : 2,
            "componentType" : 5126,
            "count" : 5275,
            "type" : "VEC2"
        },
        {
            "bufferView" : 3,
            "componentType" : 5123,
            "count" : 29745,
            "type" : "SCALAR"
        }
    ],
    "bufferViews" : [
        {
            "buffer" : 0,
            "byteLength" : 63300,
            "byteOffset" : 0
        },
        {
            "buffer" : 0,
            "byteLength" : 63300,
            "byteOffset" : 63300
        },
        {
            "buffer" : 0,
            "byteLength" : 42200,
            "byteOffset" : 126600
        },
        {
            "buffer" : 0,
            "byteLength" : 59490,
            "byteOffset" : 168800
        },
        {
            "buffer" : 0,
            "byteLength" : 2243247,
            "byteOffset" : 228292
        }
    ],
    "buffers" : [
        {
            "byteLength" : 2471540,
            "uri" : "data:application/octet-stream;base64,"
        }
    ]
}
