{
  "accessors": [
    {
      "bufferView": 2,
      "componentType": 5126,
      "count": 65532,
      "max": [
        3.0129294395446777,
        1.9325189590454102,
        1.7936025857925415
      ],
      "min": [
        -3.438971996307373,
        -1.6475826501846313,
        -1.9088348150253296
      ],
      "type": "VEC3"
    },
    {
      "bufferView": 2,
      "byteOffset": 786384,
      "componentType": 5126,
      "count": 65532,
      "max": [
        0.99999451637268066,
        0.99998539686203003,
        0.9999656081199646
      ],
      "min": [
        -0.99990934133529663,
        -0.99997657537460327,
        -0.99999070167541504
      ],
      "type": "VEC3"
    },
    {
      "bufferView": 1,
      "componentType": 5126,
      "count": 65532,
      "max": [
        0.99995666742324829,
        1
      ],
      "min": [
        0.00035242881858721375,
        0.00047021455247886479
      ],
      "type": "VEC2"
    },
    {
      "bufferView": 0,
      "componentType": 5125,
      "count": 336150,
      "max": [
        65531
      ],
      "min": [
        0
      ],
      "type": "SCALAR"
    },
    {
      "bufferView": 2,
      "byteOffset": 1572768,
      "componentType": 5126,
      "count": 58805,
      "max": [
        1.210624098777771,
        2.0817794799804688,
        1.7826782464981079
      ],
      "min": [
        -3.6381373405456543,
        -1.6195988655090332,
        -1.9018110036849976
      ],
      "type": "VEC3"
    },
    {
      "bufferView": 2,
      "byteOffset": 2278428,
      "componentType": 5126,
      "count": 58805,
      "max": [
        0.9994966983795166,
        0.99997240304946899,
        0.99998480081558228
      ],
      "min": [
        -0.99989742040634155,
        -0.99983328580856323,
        -0.99999946355819702
      ],
      "type": "VEC3"
    },
    {
      "bufferView": 1,
      "byteOffset": 524256,
      "componentType": 5126,
      "count": 58805,
      "max": [
        0.99770474433898926,
        0.99618685245513916
      ],
      "min": [
        0.0007509702118113637,
        9.5816329121589661e-05
      ],
      "type": "VEC2"
    },
    {
      "bufferView": 0,
      "byteOffset": 1344600,
      "componentType": 5125,
      "count": 299889,
      "max": [
        58804
      ],
      "min": [
        0
      ],
      "type": "SCALAR"
    },
    {
      "bufferView": 2,
      "byteOffset": 2984088,
      "componentType": 5126,
      "count": 65532,
      "max": [
        3.016331672668457,
        1.9980020523071289,
        1.7870928049087524
      ],
      "min": [
        -3.4361515045166016,
        -1.5194916725158691,
        -1.8083308935165405
      ],
      "type": "VEC3"
    },
    {
      "bufferView": 2,
      "byteOffset": 3770472,
      "componentType": 5126,
      "count": 65532,
      "max": [
        0.99999701976776123,
        0.99996989965438843,
        0.9999808669090271
      ],
      "min": [
        -0.99990981817245483,
        -0.99997586011886597,
        -0.99998313188552856
      ],
      "type": "VEC3"
    },
    {
      "bufferView": 1,
      "byteOffset": 994696,
      "componentType": 5126,
      "count": 65532,
      "max": [
        0.99995201826095581,
        1
      ],
      "min": [
        0.00037179645732976496,
        0
      ],
      "type": "VEC2"
    },
    {
      "bufferView": 0,
      "byteOffset": 2544156,
      "componentType": 5125,
      "count": 331896,
      "max": [
        65531
      ],
      "min": [
        0
      ],
      "type": "SCALAR"
    },
    {
      "bufferView": 2,
      "byteOffset": 4556856,
      "componentType": 5126,
      "count": 59655,
      "max": [
        0.78123116493225098,
        1.8580846786499023,
        1.6233154535293579
      ],
      "min": [
        -3.5886497497558594,
        -1.6186587810516357,
        -1.9353183507919312
      ],
      "type": "VEC3"
    },
    {
      "bufferView": 2,
      "byteOffset": 5272716,
      "componentType": 5126,
      "count": 59655,
      "max": [
        0.99966758489608765,
        0.99999642372131348,
        0.99999165534973145
      ],
      "min": [
        -0.99996399879455566,
        -0.99999028444290161,
        -0.99993604421615601
      ],
      "type": "VEC3"
    },
    {
      "bufferView": 1,
      "byteOffset": 1518952,
      "componentType": 5126,
      "count": 59655,
      "max": [
        0.99989998340606689,
        0.99974608421325684
      ],
      "min": [
        0,
        0
      ],
      "type": "VEC2"
    },
    {
      "bufferView": 0,
      "byteOffset": 3871740,
      "componentType": 5125,
      "count": 305718,
      "max": [
        59654
      ],
      "min": [
        0
      ],
      "type": "SCALAR"
    },
    {
      "bufferView": 2,
      "byteOffset": 5988576,
      "componentType": 5126,
      "count": 65532,
      "max": [
        3.0321149826049805,
        2.0920052528381348,
        1.7874170541763306
      ],
      "min": [
        -3.4906725883483887,
        -1.6186587810516357,
        -1.832882285118103
      ],
      "type": "VEC3"
    },
    {
      "bufferView": 2,
      "byteOffset": 6774960,
      "componentType": 5126,
      "count": 65532,
      "max": [
        0.99999260902404785,
        0.99998319149017334,
        0.99998438358306885
      ],
      "min": [
        -0.99967575073242188,
        -0.9998629093170166,
        -0.99996304512023926
      ],
      "type": "VEC3"
    },
    {
      "bufferView": 1,
      "byteOffset": 1996192,
      "componentType": 5126,
      "count": 65532,
      "max": [
        0.99805527925491333,
        1
      ],
      "min": [
        0,
        4.6899076551198959e-06
      ],
      "type": "VEC2"
    },
    {
      "bufferView": 0,
      "byteOffset": 5094612,
      "componentType": 5125,
      "count": 324684,
      "max": [
        65531
      ],
      "min": [
        0
      ],
      "type": "SCALAR"
    },
    {
      "bufferView": 2,
      "byteOffset": 7561344,
      "componentType": 5126,
      "count": 49825,
      "max": [
        2.4874930381774902,
        1.5750631093978882,
        1.5568910837173462
      ],
      "min": [
        -3.6456704139709473,
        -1.6195988655090332,
        -1.8848785161972046
      ],
      "type": "VEC3"
    },
    {
      "bufferView": 2,
      "byteOffset": 8159244,
      "componentType": 5126,
      "count": 49825,
      "max": [
        0.99978584051132202,
        0.9999503493309021,
        0.99999421834945679
      ],
      "min": [
        -0.99988555908203125,
        -0.99999105930328369,
        -0.99997007846832275
      ],
      "type": "VEC3"
    },
    {
      "bufferView": 1,
      "byteOffset": 2520448,
      "componentType": 5126,
      "count": 49825,
      "max": [
        0.9979788064956665,
        1
      ],
      "min": [
        0.00013557347119785845,
        0.0021041627041995525
      ],
      "type": "VEC2"
    },
    {
      "bufferView": 0,
      "byteOffset": 6393348,
      "componentType": 5125,
      "count": 257889,
      "max": [
        49824
      ],
      "min": [
        0
      ],
      "type": "SCALAR"
    },
    {
      "bufferView": 2,
      "byteOffset": 8757144,
      "componentType": 5126,
      "count": 65532,
      "max": [
        3.0163731575012207,
        2.1358406543731689,
        1.8930479288101196
      ],
      "min": [
        -3.4981222152709961,
        -1.4156312942504883,
        -1.8316930532455444
      ],
      "type": "VEC3"
    },
    {
      "bufferView": 2,
      "byteOffset": 9543528,
      "componentType": 5126,
      "count": 65532,
      "max": [
        0.99997603893280029,
        0.99998766183853149,
        0.99997830390930176
      ],
      "min": [
        -0.99988657236099243,
        -0.99996787309646606,
        -0.99998927116394043
      ],
      "type": "VEC3"
    },
    {
      "bufferView": 1,
      "byteOffset": 2919048,
      "componentType": 5126,
      "count": 65532,
      "max": [
        0.99994754791259766,
        1
      ],
      "min": [
        1.2841488569392823e-05,
        0
      ],
      "type": "VEC2"
    },
    {
      "bufferView": 0,
      "byteOffset": 7424904,
      "componentType": 5125,
      "count": 327642,
      "max": [
        65531
      ],
      "min": [
        0
      ],
      "type": "SCALAR"
    },
    {
      "bufferView": 2,
      "byteOffset": 10329912,
      "componentType": 5126,
      "count": 62754,
      "max": [
        0.93020594120025635,
        2.1220803260803223,
        1.7893701791763306
      ],
      "min": [
        -3.6424837112426758,
        -1.5469666719436646,
        -1.9320501089096069
      ],
      "type": "VEC3"
    },
    {
      "bufferView": 2,
      "byteOffset": 11082960,
      "componentType": 5126,
      "count": 62754,
      "max": [
        0.99996727705001831,
        0.99999755620956421,
        0.99998486042022705
      ],
      "min": [
        -0.99998140335083008,
        -0.99999839067459106,
        -0.99999845027923584
      ],
      "type": "VEC3"
    },
    {
      "bufferView": 1,
      "byteOffset": 3443304,
      "componentType": 5126,
      "count": 62754,
      "max": [
        0.99985724687576294,
        0.99991059303283691
      ],
      "min": [
        0.0018763628322631121,
        0.0020492007024586201
      ],
      "type": "VEC2"
    },
    {
      "bufferView": 0,
      "byteOffset": 8735472,
      "componentType": 5125,
      "count": 321990,
      "max": [
        62753
      ],
      "min": [
        0
      ],
      "type": "SCALAR"
    },
    {
      "bufferView": 2,
      "byteOffset": 11836008,
      "componentType": 5126,
      "count": 65532,
      "max": [
        3.0435404777526855,
        2.0181114673614502,
        1.8781572580337524
      ],
      "min": [
        -3.4916138648986816,
        -1.6667813062667847,
        -1.903922438621521
      ],
      "type": "VEC3"
    },
    {
      "bufferView": 2,
      "byteOffset": 12622392,
      "componentType": 5126,
      "count": 65532,
      "max": [
        0.99998551607131958,
        0.99999380111694336,
        0.99998253583908081
      ],
      "min": [
        -0.99998891353607178,
        -0.99998873472213745,
        -0.99999576807022095
      ],
      "type": "VEC3"
    },
    {
      "bufferView": 1,
      "byteOffset": 3945336,
      "componentType": 5126,
      "count": 65532,
      "max": [
        0.99890309572219849,
        1
      ],
      "min": [
        5.6540826335549355e-05,
        2.9556336812674999e-05
      ],
      "type": "VEC2"
    },
    {
      "bufferView": 0,
      "byteOffset": 10023432,
      "componentType": 5125,
      "count": 325698,
      "max": [
        65531
      ],
      "min": [
        0
      ],
      "type": "SCALAR"
    },
    {
      "bufferView": 2,
      "byteOffset": 13408776,
      "componentType": 5126,
      "count": 55384,
      "max": [
        2.7419724464416504,
        2.0181114673614502,
        1.8497291803359985
      ],
      "min": [
        -3.581275463104248,
        -1.3874591588973999,
        -1.9387353658676147
      ],
      "type": "VEC3"
    },
    {
      "bufferView": 2,
      "byteOffset": 14073384,
      "componentType": 5126,
      "count": 55384,
      "max": [
        0.99921154975891113,
        0.99997842311859131,
        0.99999284744262695
      ],
      "min": [
        -0.99997919797897339,
        -0.99997276067733765,
        -0.99998021125793457
      ],
      "type": "VEC3"
    },
    {
      "bufferView": 1,
      "byteOffset": 4469592,
      "componentType": 5126,
      "count": 55384,
      "max": [
        0.99884742498397827,
        1
      ],
      "min": [
        7.0780515670776367e-07,
        0.0011359112104400992
      ],
      "type": "VEC2"
    },
    {
      "bufferView": 0,
      "byteOffset": 11326224,
      "componentType": 5125,
      "count": 277962,
      "max": [
        55383
      ],
      "min": [
        0
      ],
      "type": "SCALAR"
    },
    {
      "bufferView": 2,
      "byteOffset": 14737992,
      "componentType": 5126,
      "count": 65532,
      "max": [
        3.0368857383728027,
        2.1360020637512207,
        1.9276186227798462
      ],
      "min": [
        -3.4705057144165039,
        -1.4038118124008179,
        -1.903922438621521
      ],
      "type": "VEC3"
    },
    {
      "bufferView": 2,
      "byteOffset": 15524376,
      "componentType": 5126,
      "count": 65532,
      "max": [
        0.99986362457275391,
        0.99994069337844849,
        0.9999995231628418
      ],
      "min": [
        -0.99994933605194092,
        -0.99999815225601196,
        -0.99997466802597046
      ],
      "type": "VEC3"
    },
    {
      "bufferView": 1,
      "byteOffset": 4912664,
      "componentType": 5126,
      "count": 65532,
      "max": [
        0.99975705146789551,
        1
      ],
      "min": [
        4.4576823711395264e-05,
        0
      ],
      "type": "VEC2"
    },
    {
      "bufferView": 0,
      "byteOffset": 12438072,
      "componentType": 5125,
      "count": 333186,
      "max": [
        65531
      ],
      "min": [
        0
      ],
      "type": "SCALAR"
    },
    {
      "bufferView": 2,
      "byteOffset": 16310760,
      "componentType": 5126,
      "count": 63381,
      "max": [
        2.7378907203674316,
        2.1202061176300049,
        1.8138290643692017
      ],
      "min": [
        -3.6459417343139648,
        -1.6186587810516357,
        -1.9427827596664429
      ],
      "type": "VEC3"
    },
    {
      "bufferView": 2,
      "byteOffset": 17071332,
      "componentType": 5126,
      "count": 63381,
      "max": [
        0.99976992607116699,
        0.99991726875305176,
        0.99996346235275269
      ],
      "min": [
        -0.99999922513961792,
        -0.99999779462814331,
        -0.99998867511749268
      ],
      "type": "VEC3"
    },
    {
      "bufferView": 1,
      "byteOffset": 5436920,
      "componentType": 5126,
      "count": 63381,
      "max": [
        0.99886435270309448,
        0.99989509582519531
      ],
      "min": [
        0.00010667221067706123,
        2.8930138796567917e-05
      ],
      "type": "VEC2"
    },
    {
      "bufferView": 0,
      "byteOffset": 13770816,
      "componentType": 5125,
      "count": 326754,
      "max": [
        63380
      ],
      "min": [
        0
      ],
      "type": "SCALAR"
    }
  ],
  "asset": {
    "extras": {
      "author": "Sara Carena (https://sketchfab.com/saracarena1)",
      "license": "CC-BY-NC-4.0 (http://creativecommons.org/licenses/by-nc/4.0/)",
      "source": "https://sketchfab.com/3d-models/pumice-5374302b2d204984accda59833e5a85b",
      "title": "Pumice"
    },
    "generator": "Sketchfab-8.59.0",
    "version": "2.0"
  },
  "bufferViews": [
    {
      "buffer": 0,
      "byteLength": 15077832,
      "byteOffset": 0,
      "name": "floatBufferViews",
      "target": 34963
    },
    {
      "buffer": 0,
      "byteLength": 5943968,
      "byteOffset": 15077832,
      "byteStride": 8,
      "name": "floatBufferViews",
      "target": 34962
    },
    {
      "buffer": 0,
      "byteLength": 17831904,
      "byteOffset": 21021800,
      "byteStride": 12,
      "name": "floatBufferViews",
      "target": 34962
    }
  ],
  "buffers": [
    {
      "byteLength": 38853704,
      "uri": "scene.bin"
    }
  ],
  "extensionsUsed": [
    "KHR_materials_unlit"
  ],
  "images": [
    {
      "uri": "textures/material5_baseColor.jpeg"
    },
    {
      "uri": "textures/material0_baseColor.jpeg"
    },
    {
      "uri": "textures/material4_baseColor.jpeg"
    },
    {
      "uri": "textures/material2_baseColor.jpeg"
    },
    {
      "uri": "textures/material3_baseColor.jpeg"
    },
    {
      "uri": "textures/material1_baseColor.jpeg"
    }
  ],
  "materials": [
    {
      "doubleSided": true,
      "emissiveFactor": [
        0,
        0,
        0
      ],
      "extensions": {
        "KHR_materials_unlit": {}
      },
      "name": "material5",
      "pbrMetallicRoughness": {
        "baseColorFactor": [
          1,
          1,
          1,
          1
        ],
        "baseColorTexture": {
          "index": 0,
          "texCoord": 0
        },
        "metallicFactor": 0,
        "roughnessFactor": 1
      }
    },
    {
      "doubleSided": true,
      "emissiveFactor": [
        0,
        0,
        0
      ],
      "extensions": {
        "KHR_materials_unlit": {}
      },
      "name": "material0",
      "pbrMetallicRoughness": {
        "baseColorFactor": [
          1,
          1,
          1,
          1
        ],
        "baseColorTexture": {
          "index": 1,
          "texCoord": 0
        },
        "metallicFactor": 0,
        "roughnessFactor": 1
      }
    },
    {
      "doubleSided": true,
      "emissiveFactor": [
        0,
        0,
        0
      ],
      "extensions": {
        "KHR_materials_unlit": {}
      },
      "name": "material4",
      "pbrMetallicRoughness": {
        "baseColorFactor": [
          1,
          1,
          1,
          1
        ],
        "baseColorTexture": {
          "index": 2,
          "texCoord": 0
        },
        "metallicFactor": 0,
        "roughnessFactor": 1
      }
    },
    {
      "doubleSided": true,
      "emissiveFactor": [
        0,
        0,
        0
      ],
      "extensions": {
        "KHR_materials_unlit": {}
      },
      "name": "material2",
      "pbrMetallicRoughness": {
        "baseColorFactor": [
          1,
          1,
          1,
          1
        ],
        "baseColorTexture": {
          "index": 3,
          "texCoord": 0
        },
        "metallicFactor": 0,
        "roughnessFactor": 1
      }
    },
    {
      "doubleSided": true,
      "emissiveFactor": [
        0,
        0,
        0
      ],
      "extensions": {
        "KHR_materials_unlit": {}
      },
      "name": "material3",
      "pbrMetallicRoughness": {
        "baseColorFactor": [
          1,
          1,
          1,
          1
        ],
        "baseColorTexture": {
          "index": 4,
          "texCoord": 0
        },
        "metallicFactor": 0,
        "roughnessFactor": 1
      }
    },
    {
      "doubleSided": true,
      "emissiveFactor": [
        0,
        0,
        0
      ],
      "extensions": {
        "KHR_materials_unlit": {}
      },
      "name": "material1",
      "pbrMetallicRoughness": {
        "baseColorFactor": [
          1,
          1,
          1,
          1
        ],
        "baseColorTexture": {
          "index": 5,
          "texCoord": 0
        },
        "metallicFactor": 0,
        "roughnessFactor": 1
      }
    }
  ],
  "meshes": [
    {
      "name": "Model_material5_0",
      "primitives": [
        {
          "attributes": {
            "NORMAL": 1,
            "POSITION": 0,
            "TEXCOORD_0": 2
          },
          "indices": 3,
          "material": 0,
          "mode": 4
        }
      ]
    },
    {
      "name": "Model_material5_0",
      "primitives": [
        {
          "attributes": {
            "NORMAL": 5,
            "POSITION": 4,
            "TEXCOORD_0": 6
          },
          "indices": 7,
          "material": 0,
          "mode": 4
        }
      ]
    },
    {
      "name": "Model_material0_0",
      "primitives": [
        {
          "attributes": {
            "NORMAL": 9,
            "POSITION": 8,
            "TEXCOORD_0": 10
          },
          "indices": 11,
          "material": 1,
          "mode": 4
        }
      ]
    },
    {
      "name": "Model_material0_0",
      "primitives": [
        {
          "attributes": {
            "NORMAL": 13,
            "POSITION": 12,
            "TEXCOORD_0": 14
          },
          "indices": 15,
          "material": 1,
          "mode": 4
        }
      ]
    },
    {
      "name": "Model_material4_0",
      "primitives": [
        {
          "attributes": {
            "NORMAL": 17,
            "POSITION": 16,
            "TEXCOORD_0": 18
          },
          "indices": 19,
          "material": 2,
          "mode": 4
        }
      ]
    },
    {
      "name": "Model_material4_0",
      "primitives": [
        {
          "attributes": {
            "NORMAL": 21,
            "POSITION": 20,
            "TEXCOORD_0": 22
          },
          "indices": 23,
          "material": 2,
          "mode": 4
        }
      ]
    },
    {
      "name": "Model_material2_0",
      "primitives": [
        {
          "attributes": {
            "NORMAL": 25,
            "POSITION": 24,
            "TEXCOORD_0": 26
          },
          "indices": 27,
          "material": 3,
          "mode": 4
        }
      ]
    },
    {
      "name": "Model_material2_0",
      "primitives": [
        {
          "attributes": {
            "NORMAL": 29,
            "POSITION": 28,
            "TEXCOORD_0": 30
          },
          "indices": 31,
          "material": 3,
          "mode": 4
        }
      ]
    },
    {
      "name": "Model_material3_0",
      "primitives": [
        {
          "attributes": {
            "NORMAL": 33,
            "POSITION": 32,
            "TEXCOORD_0": 34
          },
          "indices": 35,
          "material": 4,
          "mode": 4
        }
      ]
    },
    {
      "name": "Model_material3_0",
      "primitives": [
        {
          "attributes": {
            "NORMAL": 37,
            "POSITION": 36,
            "TEXCOORD_0": 38
          },
          "indices": 39,
          "material": 4,
          "mode": 4
        }
      ]
    },
    {
      "name": "Model_material1_0",
      "primitives": [
        {
          "attributes": {
            "NORMAL": 41,
            "POSITION": 40,
            "TEXCOORD_0": 42
          },
          "indices": 43,
          "material": 5,
          "mode": 4
        }
      ]
    },
    {
      "name": "Model_material1_0",
      "primitives": [
        {
          "attributes": {
            "NORMAL": 45,
            "POSITION": 44,
            "TEXCOORD_0": 46
          },
          "indices": 47,
          "material": 5,
          "mode": 4
        }
      ]
    }
  ],
  "nodes": [
    {
      "children": [
        1
      ],
      "name": "RootNode (gltf orientation matrix)",
      "rotation": [
        -0.70710678118654746,
        -0,
        -0,
        0.70710678118654757
      ]
    },
    {
      "children": [
        2
      ],
      "matrix": [
        1,
        0,
        0,
        0,
        0,
        -0.80980563163757324,
        0.58669823408126831,
        0,
        0,
        -0.58669823408126831,
        -0.80980563163757324,
        0,
        0,
        -0.42015707492828369,
        0.15136626362800598,
        1
      ],
      "name": "RootNode (model correction matrix)"
    },
    {
      "children": [
        3
      ],
      "matrix": [
        1,
        0,
        0,
        0,
        0,
        -1,
        0,
        0,
        0,
        0,
        -1,
        0,
        0,
        0,
        0,
        1
      ],
      "name": "model.fbx"
    },
    {
      "children": [
        4
      ],
      "name": "RootNode"
    },
    {
      "children": [
        5,
        6,
        7,
        8,
        9,
        10,
        11,
        12,
        13,
        14,
        15,
        16
      ],
      "name": "Model"
    },
    {
      "mesh": 0,
      "name": "Model_material5_0"
    },
    {
      "mesh": 1,
      "name": "Model_material5_0"
    },
    {
      "mesh": 2,
      "name": "Model_material0_0"
    },
    {
      "mesh": 3,
      "name": "Model_material0_0"
    },
    {
      "mesh": 4,
      "name": "Model_material4_0"
    },
    {
      "mesh": 5,
      "name": "Model_material4_0"
    },
    {
      "mesh": 6,
      "name": "Model_material2_0"
    },
    {
      "mesh": 7,
      "name": "Model_material2_0"
    },
    {
      "mesh": 8,
      "name": "Model_material3_0"
    },
    {
      "mesh": 9,
      "name": "Model_material3_0"
    },
    {
      "mesh": 10,
      "name": "Model_material1_0"
    },
    {
      "mesh": 11,
      "name": "Model_material1_0"
    }
  ],
  "samplers": [
    {
      "magFilter": 9729,
      "minFilter": 9987,
      "wrapS": 10497,
      "wrapT": 10497
    }
  ],
  "scene": 0,
  "scenes": [
    {
      "name": "OSG_Scene",
      "nodes": [
        0
      ]
    }
  ],
  "textures": [
    {
      "sampler": 0,
      "source": 0
    },
    {
      "sampler": 0,
      "source": 1
    },
    {
      "sampler": 0,
      "source": 2
    },
    {
      "sampler": 0,
      "source": 3
    },
    {
      "sampler": 0,
      "source": 4
    },
    {
      "sampler": 0,
      "source": 5
    }
  ]
}

