{
  "accessors": [
    {
      "bufferView": 2,
      "componentType": 5126,
      "count": 65532,
      "max": [
        1.0300869941711426,
        0.75249201059341431,
        0.94911998510360718
      ],
      "min": [
        -0.86868798732757568,
        -0.83300900459289551,
        -1.3103439807891846
      ],
      "type": "VEC3"
    },
    {
      "bufferView": 2,
      "byteOffset": 786384,
      "componentType": 5126,
      "count": 65532,
      "max": [
        0.99993437528610229,
        0.99998968839645386,
        0.98867529630661011
      ],
      "min": [
        -0.9999508261680603,
        -0.99990499019622803,
        -0.9999966025352478
      ],
      "type": "VEC3"
    },
    {
      "bufferView": 1,
      "componentType": 5126,
      "count": 65532,
      "max": [
        0.96490901708602905,
        0.9861140251159668
      ],
      "min": [
        0,
        0.083324000239372253
      ],
      "type": "VEC2"
    },
    {
      "bufferView": 0,
      "componentType": 5125,
      "count": 367464,
      "max": [
        65531
      ],
      "min": [
        0
      ],
      "type": "SCALAR"
    },
    {
      "bufferView": 2,
      "byteOffset": 1572768,
      "componentType": 5126,
      "count": 65532,
      "max": [
        0.97335797548294067,
        0.79886198043823242,
        1.2768679857254028
      ],
      "min": [
        -0.98313301801681519,
        -0.82009899616241455,
        -1.0516699552536011
      ],
      "type": "VEC3"
    },
    {
      "bufferView": 2,
      "byteOffset": 2359152,
      "componentType": 5126,
      "count": 65532,
      "max": [
        0.99990445375442505,
        0.99998968839645386,
        0.99999779462814331
      ],
      "min": [
        -0.9999692440032959,
        -0.99994438886642456,
        -0.99947601556777954
      ],
      "type": "VEC3"
    },
    {
      "bufferView": 1,
      "byteOffset": 524256,
      "componentType": 5126,
      "count": 65532,
      "max": [
        1,
        0.98247700929641724
      ],
      "min": [
        0,
        0
      ],
      "type": "VEC2"
    },
    {
      "bufferView": 0,
      "byteOffset": 1469856,
      "componentType": 5125,
      "count": 343656,
      "max": [
        65531
      ],
      "min": [
        0
      ],
      "type": "SCALAR"
    },
    {
      "bufferView": 2,
      "byteOffset": 3145536,
      "componentType": 5126,
      "count": 9140,
      "max": [
        0.027604000642895699,
        0.70121097564697266,
        1.3098180294036865
      ],
      "min": [
        -0.97876501083374023,
        -0.6395990252494812,
        0.8274189829826355
      ],
      "type": "VEC3"
    },
    {
      "bufferView": 2,
      "byteOffset": 3255216,
      "componentType": 5126,
      "count": 9140,
      "max": [
        0.96382027864456177,
        0.98556852340698242,
        0.99998974800109863
      ],
      "min": [
        -0.99968928098678589,
        -0.99137568473815918,
        -0.99852931499481201
      ],
      "type": "VEC3"
    },
    {
      "bufferView": 1,
      "byteOffset": 1048512,
      "componentType": 5126,
      "count": 9140,
      "max": [
        0.9899439811706543,
        0.91097897291183472
      ],
      "min": [
        0.46674799919128418,
        0.55490398406982422
      ],
      "type": "VEC2"
    },
    {
      "bufferView": 0,
      "byteOffset": 2844480,
      "componentType": 5125,
      "count": 40836,
      "max": [
        9139
      ],
      "min": [
        0
      ],
      "type": "SCALAR"
    }
  ],
  "asset": {
    "extras": {
      "author": "rockdoc (https://sketchfab.com/rockdoc)",
      "license": "CC-BY-SA-4.0 (http://creativecommons.org/licenses/by-sa/4.0/)",
      "source": "https://sketchfab.com/3d-models/plagioclase-a62ef54936ea48898fbf89b36f8e1303",
      "title": "plagioclase"
    },
    "generator": "Sketchfab-9.15.0",
    "version": "2.0"
  },
  "bufferViews": [
    {
      "buffer": 0,
      "byteLength": 3007824,
      "byteOffset": 0,
      "name": "floatBufferViews",
      "target": 34963
    },
    {
      "buffer": 0,
      "byteLength": 1121632,
      "byteOffset": 3007824,
      "byteStride": 8,
      "name": "floatBufferViews",
      "target": 34962
    },
    {
      "buffer": 0,
      "byteLength": 3364896,
      "byteOffset": 4129456,
      "byteStride": 12,
      "name": "floatBufferViews",
      "target": 34962
    }
  ],
  "buffers": [
    {
      "byteLength": 7494352,
      "uri": "scene.bin"
    }
  ],
  "extensionsUsed": [
    "KHR_materials_unlit"
  ],
  "images": [
    {
      "uri": "textures/model_baseColor.jpeg"
    }
  ],
  "materials": [
    {
      "doubleSided": true,
      "emissiveFactor": [
        0,
        0,
        0
      ],
      "extensions": {
        "KHR_materials_unlit": {}
      },
      "name": "model",
      "pbrMetallicRoughness": {
        "baseColorFactor": [
          1,
          1,
          1,
          1
        ],
        "baseColorTexture": {
          "index": 0,
          "texCoord": 0
        },
        "metallicFactor": 0,
        "roughnessFactor": 1
      }
    }
  ],
  "meshes": [
    {
      "primitives": [
        {
          "attributes": {
            "NORMAL": 1,
            "POSITION": 0,
            "TEXCOORD_0": 2
          },
          "indices": 3,
          "material": 0,
          "mode": 4
        }
      ]
    },
    {
      "primitives": [
        {
          "attributes": {
            "NORMAL": 5,
            "POSITION": 4,
            "TEXCOORD_0": 6
          },
          "indices": 7,
          "material": 0,
          "mode": 4
        }
      ]
    },
    {
      "primitives": [
        {
          "attributes": {
            "NORMAL": 9,
            "POSITION": 8,
            "TEXCOORD_0": 10
          },
          "indices": 11,
          "material": 0,
          "mode": 4
        }
      ]
    }
  ],
  "nodes": [
    {
      "children": [
        1
      ],
      "name": "RootNode (gltf orientation matrix)",
      "rotation": [
        -0.70710678118654746,
        -0,
        -0,
        0.70710678118654757
      ]
    },
    {
      "children": [
        2
      ],
      "matrix": [
        -0.65441077947616577,
        -0.66992485523223877,
        -0.35063827037811279,
        0,
        -0.34439638257026672,
        0.6769072413444519,
        -0.65052878856658936,
        0,
        0.67315500974655151,
        -0.30495449900627136,
        -0.6736951470375061,
        0,
        0.033134590834379196,
        0.010132117196917534,
        -0.0033092936500906944,
        1
      ],
      "name": "RootNode (model correction matrix)"
    },
    {
      "children": [
        3,
        4,
        5
      ],
      "name": "model.obj.cleaner.materialmerger.gles"
    },
    {
      "mesh": 0,
      "name": ""
    },
    {
      "mesh": 1,
      "name": ""
    },
    {
      "mesh": 2,
      "name": ""
    }
  ],
  "samplers": [
    {
      "magFilter": 9729,
      "minFilter": 9987,
      "wrapS": 10497,
      "wrapT": 10497
    }
  ],
  "scene": 0,
  "scenes": [
    {
      "name": "OSG_Scene",
      "nodes": [
        0
      ]
    }
  ],
  "textures": [
    {
      "sampler": 0,
      "source": 0
    }
  ]
}

