{
  "accessors": [
    {
      "bufferView": 2,
      "componentType": 5126,
      "count": 65532,
      "max": [
        2.1378679275512695,
        0.25885799527168274,
        1.195464015007019
      ],
      "min": [
        -0.40897700190544128,
        -0.25328201055526733,
        -1.8754570484161377
      ],
      "type": "VEC3"
    },
    {
      "bufferView": 2,
      "byteOffset": 786384,
      "componentType": 5126,
      "count": 65532,
      "max": [
        0.99999624490737915,
        0.99999845027923584,
        0.99935352802276611
      ],
      "min": [
        -0.99884885549545288,
        -0.99999982118606567,
        -0.99988764524459839
      ],
      "type": "VEC3"
    },
    {
      "bufferView": 1,
      "componentType": 5126,
      "count": 65532,
      "max": [
        0.94291901588439941,
        0.91000598669052124
      ],
      "min": [
        0.0015399999683722854,
        0
      ],
      "type": "VEC2"
    },
    {
      "bufferView": 0,
      "componentType": 5125,
      "count": 353472,
      "max": [
        65531
      ],
      "min": [
        0
      ],
      "type": "SCALAR"
    },
    {
      "bufferView": 2,
      "byteOffset": 1572768,
      "componentType": 5126,
      "count": 65532,
      "max": [
        2.137092113494873,
        0.20252500474452972,
        1.3950109481811523
      ],
      "min": [
        -0.045867998152971268,
        -0.24658000469207764,
        -1.8874870538711548
      ],
      "type": "VEC3"
    },
    {
      "bufferView": 2,
      "byteOffset": 2359152,
      "componentType": 5126,
      "count": 65532,
      "max": [
        0.99984633922576904,
        0.99999994039535522,
        0.99999946355819702
      ],
      "min": [
        -0.99498724937438965,
        -0.99999988079071045,
        -0.99999034404754639
      ],
      "type": "VEC3"
    },
    {
      "bufferView": 1,
      "byteOffset": 524256,
      "componentType": 5126,
      "count": 65532,
      "max": [
        0.99837297201156616,
        0.90265601873397827
      ],
      "min": [
        0.000653000024612993,
        0.0059210001491010189
      ],
      "type": "VEC2"
    },
    {
      "bufferView": 0,
      "byteOffset": 1413888,
      "componentType": 5125,
      "count": 327423,
      "max": [
        65531
      ],
      "min": [
        0
      ],
      "type": "SCALAR"
    },
    {
      "bufferView": 2,
      "byteOffset": 3145536,
      "componentType": 5126,
      "count": 65532,
      "max": [
        1.8538769483566284,
        0.20467199385166168,
        1.1306240558624268
      ],
      "min": [
        -0.52437502145767212,
        -0.224713996052742,
        -1.9376660585403442
      ],
      "type": "VEC3"
    },
    {
      "bufferView": 2,
      "byteOffset": 3931920,
      "componentType": 5126,
      "count": 65532,
      "max": [
        0.99953377246856689,
        0.99999994039535522,
        0.9992719292640686
      ],
      "min": [
        -0.9997248649597168,
        -1,
        -0.99955898523330688
      ],
      "type": "VEC3"
    },
    {
      "bufferView": 1,
      "byteOffset": 1048512,
      "componentType": 5126,
      "count": 65532,
      "max": [
        1,
        0.94591599702835083
      ],
      "min": [
        0.0036949999630451202,
        0.01782199926674366
      ],
      "type": "VEC2"
    },
    {
      "bufferView": 0,
      "byteOffset": 2723580,
      "componentType": 5125,
      "count": 312018,
      "max": [
        65531
      ],
      "min": [
        0
      ],
      "type": "SCALAR"
    },
    {
      "bufferView": 2,
      "byteOffset": 4718304,
      "componentType": 5126,
      "count": 65532,
      "max": [
        1.2985210418701172,
        0.22836300730705261,
        1.6707899570465088
      ],
      "min": [
        -0.55049902200698853,
        -0.21668000519275665,
        -1.8448319435119629
      ],
      "type": "VEC3"
    },
    {
      "bufferView": 2,
      "byteOffset": 5504688,
      "componentType": 5126,
      "count": 65532,
      "max": [
        0.99984133243560791,
        0.99999988079071045,
        0.99998396635055542
      ],
      "min": [
        -0.99986433982849121,
        -0.99999988079071045,
        -0.99951940774917603
      ],
      "type": "VEC3"
    },
    {
      "bufferView": 1,
      "byteOffset": 1572768,
      "componentType": 5126,
      "count": 65532,
      "max": [
        1,
        0.94695901870727539
      ],
      "min": [
        2.7000000045518391e-05,
        0.0041760001331567764
      ],
      "type": "VEC2"
    },
    {
      "bufferView": 0,
      "byteOffset": 3971652,
      "componentType": 5125,
      "count": 328725,
      "max": [
        65531
      ],
      "min": [
        0
      ],
      "type": "SCALAR"
    },
    {
      "bufferView": 2,
      "byteOffset": 6291072,
      "componentType": 5126,
      "count": 65532,
      "max": [
        1.0643340349197388,
        0.23879699409008026,
        1.6396739482879639
      ],
      "min": [
        -1.4847129583358765,
        -0.25552898645401001,
        -1.5163199901580811
      ],
      "type": "VEC3"
    },
    {
      "bufferView": 2,
      "byteOffset": 7077456,
      "componentType": 5126,
      "count": 65532,
      "max": [
        0.9999924898147583,
        0.99999970197677612,
        0.99997580051422119
      ],
      "min": [
        -0.99950885772705078,
        -0.99999982118606567,
        -0.99941807985305786
      ],
      "type": "VEC3"
    },
    {
      "bufferView": 1,
      "byteOffset": 2097024,
      "componentType": 5126,
      "count": 65532,
      "max": [
        0.97876900434494019,
        0.95495098829269409
      ],
      "min": [
        2.7000000045518391e-05,
        0.0029200001154094934
      ],
      "type": "VEC2"
    },
    {
      "bufferView": 0,
      "byteOffset": 5286552,
      "componentType": 5125,
      "count": 312030,
      "max": [
        65531
      ],
      "min": [
        0
      ],
      "type": "SCALAR"
    },
    {
      "bufferView": 2,
      "byteOffset": 7863840,
      "componentType": 5126,
      "count": 65532,
      "max": [
        0.54693400859832764,
        0.22952599823474884,
        1.6707899570465088
      ],
      "min": [
        -1.7933460474014282,
        -0.25552898645401001,
        -1.2497760057449341
      ],
      "type": "VEC3"
    },
    {
      "bufferView": 2,
      "byteOffset": 8650224,
      "componentType": 5126,
      "count": 65532,
      "max": [
        0.9999924898147583,
        0.99999773502349854,
        0.99999189376831055
      ],
      "min": [
        -0.98521637916564941,
        -0.99999970197677612,
        -0.99957245588302612
      ],
      "type": "VEC3"
    },
    {
      "bufferView": 1,
      "byteOffset": 2621280,
      "componentType": 5126,
      "count": 65532,
      "max": [
        0.91035902500152588,
        0.96161597967147827
      ],
      "min": [
        0.0019189999438822269,
        0.00080899999011307955
      ],
      "type": "VEC2"
    },
    {
      "bufferView": 0,
      "byteOffset": 6534672,
      "componentType": 5125,
      "count": 323076,
      "max": [
        65531
      ],
      "min": [
        0
      ],
      "type": "SCALAR"
    },
    {
      "bufferView": 2,
      "byteOffset": 9436608,
      "componentType": 5126,
      "count": 65532,
      "max": [
        0.18170100450515747,
        0.23879699409008026,
        1.6701869964599609
      ],
      "min": [
        -2.0860230922698975,
        -0.24739399552345276,
        -1.0887019634246826
      ],
      "type": "VEC3"
    },
    {
      "bufferView": 2,
      "byteOffset": 10222992,
      "componentType": 5126,
      "count": 65532,
      "max": [
        0.99284571409225464,
        0.99999970197677612,
        0.99999880790710449
      ],
      "min": [
        -0.99998140335083008,
        -0.99999982118606567,
        -0.99775916337966919
      ],
      "type": "VEC3"
    },
    {
      "bufferView": 1,
      "byteOffset": 3145536,
      "componentType": 5126,
      "count": 65532,
      "max": [
        0.97889900207519531,
        0.92059898376464844
      ],
      "min": [
        0.0003060000017285347,
        0
      ],
      "type": "VEC2"
    },
    {
      "bufferView": 0,
      "byteOffset": 7826976,
      "componentType": 5125,
      "count": 307251,
      "max": [
        65531
      ],
      "min": [
        0
      ],
      "type": "SCALAR"
    },
    {
      "bufferView": 2,
      "byteOffset": 11009376,
      "componentType": 5126,
      "count": 56357,
      "max": [
        -0.48938998579978943,
        0.23231099545955658,
        1.6209360361099243
      ],
      "min": [
        -2.1582601070404053,
        -0.23807300627231598,
        -0.80565398931503296
      ],
      "type": "VEC3"
    },
    {
      "bufferView": 2,
      "byteOffset": 11685660,
      "componentType": 5126,
      "count": 56357,
      "max": [
        0.97831326723098755,
        0.99999505281448364,
        0.99997580051422119
      ],
      "min": [
        -0.99984127283096313,
        -0.99999940395355225,
        -0.99530881643295288
      ],
      "type": "VEC3"
    },
    {
      "bufferView": 1,
      "byteOffset": 3669792,
      "componentType": 5126,
      "count": 56357,
      "max": [
        0.92148000001907349,
        0.9594770073890686
      ],
      "min": [
        0.15205700695514679,
        0.0009180000051856041
      ],
      "type": "VEC2"
    },
    {
      "bufferView": 0,
      "byteOffset": 9055980,
      "componentType": 5125,
      "count": 265713,
      "max": [
        56356
      ],
      "min": [
        0
      ],
      "type": "SCALAR"
    }
  ],
  "asset": {
    "extras": {
      "author": "rocksandminerals (https://sketchfab.com/rocksandminerals)",
      "license": "CC-BY-4.0 (http://creativecommons.org/licenses/by/4.0/)",
      "source": "https://sketchfab.com/3d-models/biotite-5-31-2020-938eb730c5ff4e42b838f7620e8dff20",
      "title": "Biotite 5-31-2020"
    },
    "generator": "Sketchfab-8.59.0",
    "version": "2.0"
  },
  "bufferViews": [
    {
      "buffer": 0,
      "byteLength": 10118832,
      "byteOffset": 0,
      "name": "floatBufferViews",
      "target": 34963
    },
    {
      "buffer": 0,
      "byteLength": 4120648,
      "byteOffset": 10118832,
      "byteStride": 8,
      "name": "floatBufferViews",
      "target": 34962
    },
    {
      "buffer": 0,
      "byteLength": 12361944,
      "byteOffset": 14239480,
      "byteStride": 12,
      "name": "floatBufferViews",
      "target": 34962
    }
  ],
  "buffers": [
    {
      "byteLength": 26601424,
      "uri": "scene.bin"
    }
  ],
  "extensionsUsed": [
    "KHR_materials_unlit"
  ],
  "images": [
    {
      "uri": "textures/model_baseColor.jpeg"
    }
  ],
  "materials": [
    {
      "doubleSided": true,
      "emissiveFactor": [
        0,
        0,
        0
      ],
      "extensions": {
        "KHR_materials_unlit": {}
      },
      "name": "model",
      "pbrMetallicRoughness": {
        "baseColorFactor": [
          1,
          1,
          1,
          1
        ],
        "baseColorTexture": {
          "index": 0,
          "texCoord": 0
        },
        "metallicFactor": 0,
        "roughnessFactor": 1
      }
    }
  ],
  "meshes": [
    {
      "primitives": [
        {
          "attributes": {
            "NORMAL": 1,
            "POSITION": 0,
            "TEXCOORD_0": 2
          },
          "indices": 3,
          "material": 0,
          "mode": 4
        }
      ]
    },
    {
      "primitives": [
        {
          "attributes": {
            "NORMAL": 5,
            "POSITION": 4,
            "TEXCOORD_0": 6
          },
          "indices": 7,
          "material": 0,
          "mode": 4
        }
      ]
    },
    {
      "primitives": [
        {
          "attributes": {
            "NORMAL": 9,
            "POSITION": 8,
            "TEXCOORD_0": 10
          },
          "indices": 11,
          "material": 0,
          "mode": 4
        }
      ]
    },
    {
      "primitives": [
        {
          "attributes": {
            "NORMAL": 13,
            "POSITION": 12,
            "TEXCOORD_0": 14
          },
          "indices": 15,
          "material": 0,
          "mode": 4
        }
      ]
    },
    {
      "primitives": [
        {
          "attributes": {
            "NORMAL": 17,
            "POSITION": 16,
            "TEXCOORD_0": 18
          },
          "indices": 19,
          "material": 0,
          "mode": 4
        }
      ]
    },
    {
      "primitives": [
        {
          "attributes": {
            "NORMAL": 21,
            "POSITION": 20,
            "TEXCOORD_0": 22
          },
          "indices": 23,
          "material": 0,
          "mode": 4
        }
      ]
    },
    {
      "primitives": [
        {
          "attributes": {
            "NORMAL": 25,
            "POSITION": 24,
            "TEXCOORD_0": 26
          },
          "indices": 27,
          "material": 0,
          "mode": 4
        }
      ]
    },
    {
      "primitives": [
        {
          "attributes": {
            "NORMAL": 29,
            "POSITION": 28,
            "TEXCOORD_0": 30
          },
          "indices": 31,
          "material": 0,
          "mode": 4
        }
      ]
    }
  ],
  "nodes": [
    {
      "children": [
        1
      ],
      "name": "RootNode (gltf orientation matrix)",
      "rotation": [
        -0.70710678118654746,
        -0,
        -0,
        0.70710678118654757
      ]
    },
    {
      "children": [
        2
      ],
      "name": "RootNode (model correction matrix)"
    },
    {
      "children": [
        3,
        4,
        5,
        6,
        7,
        8,
        9,
        10
      ],
      "name": "model.obj.cleaner.materialmerger.gles"
    },
    {
      "mesh": 0,
      "name": ""
    },
    {
      "mesh": 1,
      "name": ""
    },
    {
      "mesh": 2,
      "name": ""
    },
    {
      "mesh": 3,
      "name": ""
    },
    {
      "mesh": 4,
      "name": ""
    },
    {
      "mesh": 5,
      "name": ""
    },
    {
      "mesh": 6,
      "name": ""
    },
    {
      "mesh": 7,
      "name": ""
    }
  ],
  "samplers": [
    {
      "magFilter": 9729,
      "minFilter": 9987,
      "wrapS": 10497,
      "wrapT": 10497
    }
  ],
  "scene": 0,
  "scenes": [
    {
      "name": "OSG_Scene",
      "nodes": [
        0
      ]
    }
  ],
  "textures": [
    {
      "sampler": 0,
      "source": 0
    }
  ]
}

