{
  "accessors": [
    {
      "bufferView": 2,
      "componentType": 5126,
      "count": 65532,
      "max": [
        27.474576950073242,
        620.4107666015625,
        27.229953765869141
      ],
      "min": [
        -28.226736068725586,
        617.28045654296875,
        -5.5534734725952148
      ],
      "type": "VEC3"
    },
    {
      "bufferView": 2,
      "byteOffset": 786384,
      "componentType": 5126,
      "count": 65532,
      "max": [
        0.76539707183837891,
        0.99999964237213135,
        0.51021462678909302
      ],
      "min": [
        -0.6318897008895874,
        0.63934814929962158,
        -0.63150674104690552
      ],
      "type": "VEC3"
    },
    {
      "bufferView": 1,
      "componentType": 5126,
      "count": 65532,
      "max": [
        0.39320001006126404,
        0.67750000953674316
      ],
      "min": [
        0.00060000002849847078,
        0.0063000000081956387
      ],
      "type": "VEC2"
    },
    {
      "bufferView": 0,
      "componentType": 5125,
      "count": 321099,
      "max": [
        65531
      ],
      "min": [
        0
      ],
      "type": "SCALAR"
    },
    {
      "bufferView": 2,
      "byteOffset": 1572768,
      "componentType": 5126,
      "count": 65532,
      "max": [
        26.6070556640625,
        620.5828857421875,
        27.997535705566406
      ],
      "min": [
        -26.553804397583008,
        617.8760986328125,
        -2.6403863430023193
      ],
      "type": "VEC3"
    },
    {
      "bufferView": 2,
      "byteOffset": 2359152,
      "componentType": 5126,
      "count": 65532,
      "max": [
        0.44413504004478455,
        0.99999994039535522,
        0.47688037157058716
      ],
      "min": [
        -0.55867666006088257,
        0.82306778430938721,
        -0.53690814971923828
      ],
      "type": "VEC3"
    },
    {
      "bufferView": 1,
      "byteOffset": 524256,
      "componentType": 5126,
      "count": 65532,
      "max": [
        0.40149998664855957,
        0.66589999198913574
      ],
      "min": [
        0.03319999948143959,
        0.023099999874830246
      ],
      "type": "VEC2"
    },
    {
      "bufferView": 0,
      "byteOffset": 1284396,
      "componentType": 5125,
      "count": 316314,
      "max": [
        65531
      ],
      "min": [
        0
      ],
      "type": "SCALAR"
    },
    {
      "bufferView": 2,
      "byteOffset": 3145536,
      "componentType": 5126,
      "count": 65532,
      "max": [
        25.269111633300781,
        620.478515625,
        25.885274887084961
      ],
      "min": [
        -28.729576110839844,
        617.39544677734375,
        -3.9819045066833496
      ],
      "type": "VEC3"
    },
    {
      "bufferView": 2,
      "byteOffset": 3931920,
      "componentType": 5126,
      "count": 65532,
      "max": [
        0.51758766174316406,
        0.99999988079071045,
        0.52385240793228149
      ],
      "min": [
        -0.58867323398590088,
        0.74311190843582153,
        -0.66866517066955566
      ],
      "type": "VEC3"
    },
    {
      "bufferView": 1,
      "byteOffset": 1048512,
      "componentType": 5126,
      "count": 65532,
      "max": [
        0.37259998917579651,
        0.65609997510910034
      ],
      "min": [
        0.0031999999191612005,
        0.000699999975040555
      ],
      "type": "VEC2"
    },
    {
      "bufferView": 0,
      "byteOffset": 2549652,
      "componentType": 5125,
      "count": 315576,
      "max": [
        65531
      ],
      "min": [
        0
      ],
      "type": "SCALAR"
    },
    {
      "bufferView": 2,
      "byteOffset": 4718304,
      "componentType": 5126,
      "count": 65532,
      "max": [
        26.25657844543457,
        620.5821533203125,
        28.237184524536133
      ],
      "min": [
        -27.254186630249023,
        617.63079833984375,
        -3.6176187992095947
      ],
      "type": "VEC3"
    },
    {
      "bufferView": 2,
      "byteOffset": 5504688,
      "componentType": 5126,
      "count": 65532,
      "max": [
        0.54980754852294922,
        0.99999994039535522,
        0.46526619791984558
      ],
      "min": [
        -0.55702108144760132,
        0.7939070463180542,
        -0.52148282527923584
      ],
      "type": "VEC3"
    },
    {
      "bufferView": 1,
      "byteOffset": 1572768,
      "componentType": 5126,
      "count": 65532,
      "max": [
        0.40169999003410339,
        0.66699999570846558
      ],
      "min": [
        0.0092000002041459084,
        0.01549999974668026
      ],
      "type": "VEC2"
    },
    {
      "bufferView": 0,
      "byteOffset": 3811956,
      "componentType": 5125,
      "count": 308895,
      "max": [
        65531
      ],
      "min": [
        0
      ],
      "type": "SCALAR"
    },
    {
      "bufferView": 2,
      "byteOffset": 6291072,
      "componentType": 5126,
      "count": 65532,
      "max": [
        27.459323883056641,
        620.5828857421875,
        29.406345367431641
      ],
      "min": [
        -28.237577438354492,
        617.30108642578125,
        -5.4794349670410156
      ],
      "type": "VEC3"
    },
    {
      "bufferView": 2,
      "byteOffset": 7077456,
      "componentType": 5126,
      "count": 65532,
      "max": [
        0.64721393585205078,
        0.99999994039535522,
        0.55275434255599976
      ],
      "min": [
        -0.52792835235595703,
        0.71969330310821533,
        -0.58807045221328735
      ],
      "type": "VEC3"
    },
    {
      "bufferView": 1,
      "byteOffset": 2097024,
      "componentType": 5126,
      "count": 65532,
      "max": [
        0.41830000281333923,
        0.68169999122619629
      ],
      "min": [
        0.0010999999940395355,
        0.0068000000901520252
      ],
      "type": "VEC2"
    },
    {
      "bufferView": 0,
      "byteOffset": 5047536,
      "componentType": 5125,
      "count": 286248,
      "max": [
        65531
      ],
      "min": [
        0
      ],
      "type": "SCALAR"
    },
    {
      "bufferView": 2,
      "byteOffset": 7863840,
      "componentType": 5126,
      "count": 65532,
      "max": [
        27.167448043823242,
        620.5589599609375,
        29.412029266357422
      ],
      "min": [
        -28.687709808349609,
        613.9927978515625,
        -5.4428005218505859
      ],
      "type": "VEC3"
    },
    {
      "bufferView": 2,
      "byteOffset": 8650224,
      "componentType": 5126,
      "count": 65532,
      "max": [
        0.68393433094024658,
        0.99999994039535522,
        0.62864804267883301
      ],
      "min": [
        -0.71846204996109009,
        -0.99999696016311646,
        -0.68958199024200439
      ],
      "type": "VEC3"
    },
    {
      "bufferView": 1,
      "byteOffset": 2621280,
      "componentType": 5126,
      "count": 65532,
      "max": [
        0.8410000205039978,
        0.67919999361038208
      ],
      "min": [
        0.0010999999940395355,
        0.0015999999595806003
      ],
      "type": "VEC2"
    },
    {
      "bufferView": 0,
      "byteOffset": 6192528,
      "componentType": 5125,
      "count": 181611,
      "max": [
        65531
      ],
      "min": [
        0
      ],
      "type": "SCALAR"
    },
    {
      "bufferView": 2,
      "byteOffset": 9436608,
      "componentType": 5126,
      "count": 65532,
      "max": [
        25.480527877807617,
        618.39678955078125,
        29.261550903320312
      ],
      "min": [
        -28.869058609008789,
        613.89019775390625,
        -5.3338379859924316
      ],
      "type": "VEC3"
    },
    {
      "bufferView": 2,
      "byteOffset": 10222992,
      "componentType": 5126,
      "count": 65532,
      "max": [
        0.47404447197914124,
        -0.6680222749710083,
        0.5456317663192749
      ],
      "min": [
        -0.67058420181274414,
        -1,
        -0.74347645044326782
      ],
      "type": "VEC3"
    },
    {
      "bufferView": 1,
      "byteOffset": 3145536,
      "componentType": 5126,
      "count": 65532,
      "max": [
        0.83910000324249268,
        0.67589998245239258
      ],
      "min": [
        0.42080000042915344,
        0.014999999664723873
      ],
      "type": "VEC2"
    },
    {
      "bufferView": 0,
      "byteOffset": 6918972,
      "componentType": 5125,
      "count": 313038,
      "max": [
        65531
      ],
      "min": [
        0
      ],
      "type": "SCALAR"
    },
    {
      "bufferView": 2,
      "byteOffset": 11009376,
      "componentType": 5126,
      "count": 65532,
      "max": [
        26.935571670532227,
        617.880859375,
        27.653360366821289
      ],
      "min": [
        -27.568746566772461,
        613.82757568359375,
        -4.7549200057983398
      ],
      "type": "VEC3"
    },
    {
      "bufferView": 2,
      "byteOffset": 11795760,
      "componentType": 5126,
      "count": 65532,
      "max": [
        0.70110082626342773,
        -0.70220440626144409,
        0.44124326109886169
      ],
      "min": [
        -0.5371052622795105,
        -0.99999988079071045,
        -0.70911520719528198
      ],
      "type": "VEC3"
    },
    {
      "bufferView": 1,
      "byteOffset": 3669792,
      "componentType": 5126,
      "count": 65532,
      "max": [
        0.81790000200271606,
        0.66149997711181641
      ],
      "min": [
        0.42689999938011169,
        0.00079999997979030013
      ],
      "type": "VEC2"
    },
    {
      "bufferView": 0,
      "byteOffset": 8171124,
      "componentType": 5125,
      "count": 313242,
      "max": [
        65531
      ],
      "min": [
        0
      ],
      "type": "SCALAR"
    },
    {
      "bufferView": 2,
      "byteOffset": 12582144,
      "componentType": 5126,
      "count": 65532,
      "max": [
        25.652666091918945,
        618.43389892578125,
        27.33671760559082
      ],
      "min": [
        -27.912817001342773,
        613.83099365234375,
        -4.294558048248291
      ],
      "type": "VEC3"
    },
    {
      "bufferView": 2,
      "byteOffset": 13368528,
      "componentType": 5126,
      "count": 65532,
      "max": [
        0.52265185117721558,
        -0.63729709386825562,
        0.38647457957267761
      ],
      "min": [
        -0.63376253843307495,
        -0.99999994039535522,
        -0.74334889650344849
      ],
      "type": "VEC3"
    },
    {
      "bufferView": 1,
      "byteOffset": 4194048,
      "componentType": 5126,
      "count": 65532,
      "max": [
        0.81620001792907715,
        0.66519999504089355
      ],
      "min": [
        0.41999998688697815,
        0.017300000414252281
      ],
      "type": "VEC2"
    },
    {
      "bufferView": 0,
      "byteOffset": 9424092,
      "componentType": 5125,
      "count": 303330,
      "max": [
        65531
      ],
      "min": [
        0
      ],
      "type": "SCALAR"
    },
    {
      "bufferView": 2,
      "byteOffset": 14154912,
      "componentType": 5126,
      "count": 65532,
      "max": [
        26.771875381469727,
        618.4371337890625,
        29.022129058837891
      ],
      "min": [
        -28.131341934204102,
        613.83331298828125,
        -5.418126106262207
      ],
      "type": "VEC3"
    },
    {
      "bufferView": 2,
      "byteOffset": 14941296,
      "componentType": 5126,
      "count": 65532,
      "max": [
        0.71885085105895996,
        -0.56788516044616699,
        0.34024748206138611
      ],
      "min": [
        -0.52790355682373047,
        -1,
        -0.82149052619934082
      ],
      "type": "VEC3"
    },
    {
      "bufferView": 1,
      "byteOffset": 4718304,
      "componentType": 5126,
      "count": 65532,
      "max": [
        0.83609998226165771,
        0.66699999570846558
      ],
      "min": [
        0.42089998722076416,
        0.0024000001139938831
      ],
      "type": "VEC2"
    },
    {
      "bufferView": 0,
      "byteOffset": 10637412,
      "componentType": 5125,
      "count": 305421,
      "max": [
        65531
      ],
      "min": [
        0
      ],
      "type": "SCALAR"
    },
    {
      "bufferView": 2,
      "byteOffset": 15727680,
      "componentType": 5126,
      "count": 65532,
      "max": [
        26.793643951416016,
        618.486083984375,
        29.137893676757812
      ],
      "min": [
        -28.336223602294922,
        613.83343505859375,
        -5.3686366081237793
      ],
      "type": "VEC3"
    },
    {
      "bufferView": 2,
      "byteOffset": 16514064,
      "componentType": 5126,
      "count": 65532,
      "max": [
        0.56894052028656006,
        -0.6686934232711792,
        0.46588227152824402
      ],
      "min": [
        -0.63922303915023804,
        -1,
        -0.73612773418426514
      ],
      "type": "VEC3"
    },
    {
      "bufferView": 1,
      "byteOffset": 5242560,
      "componentType": 5126,
      "count": 65532,
      "max": [
        0.8377000093460083,
        0.66949999332427979
      ],
      "min": [
        0.42059999704360962,
        0.00279999990016222
      ],
      "type": "VEC2"
    },
    {
      "bufferView": 0,
      "byteOffset": 11859096,
      "componentType": 5125,
      "count": 261471,
      "max": [
        65531
      ],
      "min": [
        0
      ],
      "type": "SCALAR"
    },
    {
      "bufferView": 2,
      "byteOffset": 17300448,
      "componentType": 5126,
      "count": 65532,
      "max": [
        26.921937942504883,
        619.8736572265625,
        29.807256698608398
      ],
      "min": [
        -28.691974639892578,
        613.8282470703125,
        -5.4845027923583984
      ],
      "type": "VEC3"
    },
    {
      "bufferView": 2,
      "byteOffset": 18086832,
      "componentType": 5126,
      "count": 65532,
      "max": [
        0.87829917669296265,
        0.96610808372497559,
        0.99999642372131348
      ],
      "min": [
        -0.99610227346420288,
        -0.99999994039535522,
        -0.99995905160903931
      ],
      "type": "VEC3"
    },
    {
      "bufferView": 1,
      "byteOffset": 5766816,
      "componentType": 5126,
      "count": 65532,
      "max": [
        0.99839997291564941,
        0.8353000283241272
      ],
      "min": [
        0.29899999499320984,
        0.00139999995008111
      ],
      "type": "VEC2"
    },
    {
      "bufferView": 0,
      "byteOffset": 12904980,
      "componentType": 5125,
      "count": 180447,
      "max": [
        65531
      ],
      "min": [
        0
      ],
      "type": "SCALAR"
    },
    {
      "bufferView": 2,
      "byteOffset": 18873216,
      "componentType": 5126,
      "count": 65532,
      "max": [
        27.563962936401367,
        620.43035888671875,
        29.877998352050781
      ],
      "min": [
        -28.970687866210938,
        614.00042724609375,
        -5.7119998931884766
      ],
      "type": "VEC3"
    },
    {
      "bufferView": 2,
      "byteOffset": 19659600,
      "componentType": 5126,
      "count": 65532,
      "max": [
        0.99999994039535522,
        0.97269773483276367,
        0.99998408555984497
      ],
      "min": [
        -0.98029935359954834,
        -0.98833715915679932,
        -0.99992012977600098
      ],
      "type": "VEC3"
    },
    {
      "bufferView": 1,
      "byteOffset": 6291072,
      "componentType": 5126,
      "count": 65532,
      "max": [
        0.99299997091293335,
        0.85019999742507935
      ],
      "min": [
        0.0027000000700354576,
        0.00039999998989515007
      ],
      "type": "VEC2"
    },
    {
      "bufferView": 0,
      "byteOffset": 13626768,
      "componentType": 5125,
      "count": 342681,
      "max": [
        65531
      ],
      "min": [
        0
      ],
      "type": "SCALAR"
    },
    {
      "bufferView": 2,
      "byteOffset": 20445984,
      "componentType": 5126,
      "count": 62762,
      "max": [
        27.563962936401367,
        620.422607421875,
        29.724380493164062
      ],
      "min": [
        -28.982728958129883,
        613.90728759765625,
        -5.7119998931884766
      ],
      "type": "VEC3"
    },
    {
      "bufferView": 2,
      "byteOffset": 21199128,
      "componentType": 5126,
      "count": 62762,
      "max": [
        0.99999898672103882,
        0.97300434112548828,
        0.99994748830795288
      ],
      "min": [
        -0.99995726346969604,
        -0.9948773980140686,
        -0.99997395277023315
      ],
      "type": "VEC3"
    },
    {
      "bufferView": 1,
      "byteOffset": 6815328,
      "componentType": 5126,
      "count": 62762,
      "max": [
        1,
        0.87050002813339233
      ],
      "min": [
        9.9999997473787516e-05,
        9.9999997473787516e-05
      ],
      "type": "VEC2"
    },
    {
      "bufferView": 0,
      "byteOffset": 14997492,
      "componentType": 5125,
      "count": 315243,
      "max": [
        62761
      ],
      "min": [
        0
      ],
      "type": "SCALAR"
    }
  ],
  "asset": {
    "extras": {
      "author": "Global Digital Heritage (https://sketchfab.com/GlobalDigitalHeritage)",
      "license": "CC-BY-NC-4.0 (http://creativecommons.org/licenses/by-nc/4.0/)",
      "source": "https://sketchfab.com/3d-models/slate-fragment-xfp-087-sanak-island-alaska-96702879e2e248308327437e71015005",
      "title": "Slate Fragment, XFP-087. Sanak Island, Alaska"
    },
    "generator": "Sketchfab-8.74.0",
    "version": "2.0"
  },
  "bufferViews": [
    {
      "buffer": 0,
      "byteLength": 16258464,
      "byteOffset": 0,
      "name": "floatBufferViews",
      "target": 34963
    },
    {
      "buffer": 0,
      "byteLength": 7317424,
      "byteOffset": 16258464,
      "byteStride": 8,
      "name": "floatBufferViews",
      "target": 34962
    },
    {
      "buffer": 0,
      "byteLength": 21952272,
      "byteOffset": 23575888,
      "byteStride": 12,
      "name": "floatBufferViews",
      "target": 34962
    }
  ],
  "buffers": [
    {
      "byteLength": 45528160,
      "uri": "scene.bin"
    }
  ],
  "images": [
    {
      "uri": "textures/image_baseColor.png"
    }
  ],
  "materials": [
    {
      "doubleSided": true,
      "emissiveFactor": [
        0,
        0,
        0
      ],
      "name": "image",
      "pbrMetallicRoughness": {
        "baseColorFactor": [
          1,
          1,
          1,
          1
        ],
        "baseColorTexture": {
          "index": 0,
          "texCoord": 0
        },
        "metallicFactor": 0.3175854109438731,
        "roughnessFactor": 0.94929735029952689
      }
    }
  ],
  "meshes": [
    {
      "primitives": [
        {
          "attributes": {
            "NORMAL": 1,
            "POSITION": 0,
            "TEXCOORD_0": 2
          },
          "indices": 3,
          "material": 0,
          "mode": 4
        }
      ]
    },
    {
      "primitives": [
        {
          "attributes": {
            "NORMAL": 5,
            "POSITION": 4,
            "TEXCOORD_0": 6
          },
          "indices": 7,
          "material": 0,
          "mode": 4
        }
      ]
    },
    {
      "primitives": [
        {
          "attributes": {
            "NORMAL": 9,
            "POSITION": 8,
            "TEXCOORD_0": 10
          },
          "indices": 11,
          "material": 0,
          "mode": 4
        }
      ]
    },
    {
      "primitives": [
        {
          "attributes": {
            "NORMAL": 13,
            "POSITION": 12,
            "TEXCOORD_0": 14
          },
          "indices": 15,
          "material": 0,
          "mode": 4
        }
      ]
    },
    {
      "primitives": [
        {
          "attributes": {
            "NORMAL": 17,
            "POSITION": 16,
            "TEXCOORD_0": 18
          },
          "indices": 19,
          "material": 0,
          "mode": 4
        }
      ]
    },
    {
      "primitives": [
        {
          "attributes": {
            "NORMAL": 21,
            "POSITION": 20,
            "TEXCOORD_0": 22
          },
          "indices": 23,
          "material": 0,
          "mode": 4
        }
      ]
    },
    {
      "primitives": [
        {
          "attributes": {
            "NORMAL": 25,
            "POSITION": 24,
            "TEXCOORD_0": 26
          },
          "indices": 27,
          "material": 0,
          "mode": 4
        }
      ]
    },
    {
      "primitives": [
        {
          "attributes": {
            "NORMAL": 29,
            "POSITION": 28,
            "TEXCOORD_0": 30
          },
          "indices": 31,
          "material": 0,
          "mode": 4
        }
      ]
    },
    {
      "primitives": [
        {
          "attributes": {
            "NORMAL": 33,
            "POSITION": 32,
            "TEXCOORD_0": 34
          },
          "indices": 35,
          "material": 0,
          "mode": 4
        }
      ]
    },
    {
      "primitives": [
        {
          "attributes": {
            "NORMAL": 37,
            "POSITION": 36,
            "TEXCOORD_0": 38
          },
          "indices": 39,
          "material": 0,
          "mode": 4
        }
      ]
    },
    {
      "primitives": [
        {
          "attributes": {
            "NORMAL": 41,
            "POSITION": 40,
            "TEXCOORD_0": 42
          },
          "indices": 43,
          "material": 0,
          "mode": 4
        }
      ]
    },
    {
      "primitives": [
        {
          "attributes": {
            "NORMAL": 45,
            "POSITION": 44,
            "TEXCOORD_0": 46
          },
          "indices": 47,
          "material": 0,
          "mode": 4
        }
      ]
    },
    {
      "primitives": [
        {
          "attributes": {
            "NORMAL": 49,
            "POSITION": 48,
            "TEXCOORD_0": 50
          },
          "indices": 51,
          "material": 0,
          "mode": 4
        }
      ]
    },
    {
      "primitives": [
        {
          "attributes": {
            "NORMAL": 53,
            "POSITION": 52,
            "TEXCOORD_0": 54
          },
          "indices": 55,
          "material": 0,
          "mode": 4
        }
      ]
    }
  ],
  "nodes": [
    {
      "children": [
        1
      ],
      "name": "RootNode (gltf orientation matrix)",
      "rotation": [
        -0.70710678118654746,
        -0,
        -0,
        0.70710678118654757
      ]
    },
    {
      "children": [
        2
      ],
      "matrix": [
        0.98160016536712646,
        -0.19012817740440369,
        0.017673611640930176,
        0,
        -0.19090238213539124,
        -0.97917360067367554,
        0.069104030728340149,
        0,
        0.0041669099591672421,
        -0.071206465363502502,
        -0.99745291471481323,
        0,
        117.73991394042969,
        1222.840087890625,
        -18.716499328613281,
        1
      ],
      "name": "RootNode (model correction matrix)"
    },
    {
      "children": [
        3,
        4,
        5,
        6,
        7,
        8,
        9,
        10,
        11,
        12,
        13,
        14,
        15,
        16
      ],
      "name": "XFP-087-5.obj.cleaner.materialmerger.gles"
    },
    {
      "mesh": 0,
      "name": ""
    },
    {
      "mesh": 1,
      "name": ""
    },
    {
      "mesh": 2,
      "name": ""
    },
    {
      "mesh": 3,
      "name": ""
    },
    {
      "mesh": 4,
      "name": ""
    },
    {
      "mesh": 5,
      "name": ""
    },
    {
      "mesh": 6,
      "name": ""
    },
    {
      "mesh": 7,
      "name": ""
    },
    {
      "mesh": 8,
      "name": ""
    },
    {
      "mesh": 9,
      "name": ""
    },
    {
      "mesh": 10,
      "name": ""
    },
    {
      "mesh": 11,
      "name": ""
    },
    {
      "mesh": 12,
      "name": ""
    },
    {
      "mesh": 13,
      "name": ""
    }
  ],
  "samplers": [
    {
      "magFilter": 9729,
      "minFilter": 9987,
      "wrapS": 10497,
      "wrapT": 10497
    }
  ],
  "scene": 0,
  "scenes": [
    {
      "name": "OSG_Scene",
      "nodes": [
        0
      ]
    }
  ],
  "textures": [
    {
      "sampler": 0,
      "source": 0
    }
  ]
}

