{
    "asset" : {
        "generator" : "Khronos glTF Blender I/O v1.2.75",
        "version" : "2.0"
    },
    "scene" : 0,
    "scenes" : [
        {
            "name" : "Scene",
            "nodes" : [
                3
            ]
        }
    ],
    "nodes" : [
        {
            "mesh" : 0,
            "name" : "Mesh_2.002"
        },
        {
            "children" : [
                0
            ],
            "name" : "model.obj.cleaner.materialmerger.gles"
        },
        {
            "children" : [
                1
            ],
            "name" : "RootNode (model correction matrix)"
        },
        {
            "children" : [
                2
            ],
            "name" : "RootNode (gltf orientation matrix)",
            "rotation" : [
                -0.7071067690849304,
                0,
                0,
                0.7071067690849304
            ]
        }
    ],
    "materials" : [
        {
            "doubleSided" : true,
            "emissiveFactor" : [
                1,
                1,
                1
            ],
            "name" : "model_Material_u1_v1",
            "pbrMetallicRoughness" : {}
        }
    ],
    "meshes" : [
        {
            "name" : "Mesh_2.002",
            "primitives" : [
                {
                    "attributes" : {
                        "POSITION" : 0,
                        "NORMAL" : 1,
                        "TEXCOORD_0" : 2
                    },
                    "indices" : 3,
                    "material" : 0
                }
            ]
        }
    ],
    "accessors" : [
        {
            "bufferView" : 0,
            "componentType" : 5126,
            "count" : 169915,
            "max" : [
                1.7564116716384888,
                0.8343809843063354,
                1.1661912202835083
            ],
            "min" : [
                -1.3143666982650757,
                -1.077553629875183,
                -1.1408146619796753
            ],
            "type" : "VEC3"
        },
        {
            "bufferView" : 1,
            "componentType" : 5126,
            "count" : 169915,
            "type" : "VEC3"
        },
        {
            "bufferView" : 2,
            "componentType" : 5126,
            "count" : 169915,
            "type" : "VEC2"
        },
        {
            "bufferView" : 3,
            "componentType" : 5125,
            "count" : 600000,
            "type" : "SCALAR"
        }
    ],
    "bufferViews" : [
        {
            "buffer" : 0,
            "byteLength" : 2038980,
            "byteOffset" : 0
        },
        {
            "buffer" : 0,
            "byteLength" : 2038980,
            "byteOffset" : 2038980
        },
        {
            "buffer" : 0,
            "byteLength" : 1359320,
            "byteOffset" : 4077960
        },
        {
            "buffer" : 0,
            "byteLength" : 2400000,
            "byteOffset" : 5437280
        }
    ],
    "buffers" : [
        {
            "byteLength" : 7837280,
            "uri" : "scene.bin"
        }
    ]
}
