{
  "accessors": [
    {
      "bufferView": 2,
      "componentType": 5126,
      "count": 40715,
      "max": [
        0.39975357055664062,
        0.34143638610839844,
        0.32126587629318237
      ],
      "min": [
        -0.56319063901901245,
        -0.30895787477493286,
        -0.26570826768875122
      ],
      "type": "VEC3"
    },
    {
      "bufferView": 2,
      "byteOffset": 488580,
      "componentType": 5126,
      "count": 40715,
      "max": [
        0.99835991859436035,
        0.99999856948852539,
        0.99999856948852539
      ],
      "min": [
        -0.99991166591644287,
        -0.99979704618453979,
        -0.99999141693115234
      ],
      "type": "VEC3"
    },
    {
      "bufferView": 1,
      "componentType": 5126,
      "count": 40715,
      "max": [
        0.91764217615127563,
        0.99978864192962646
      ],
      "min": [
        1.7076730728149414e-05,
        0.00015305390115827322
      ],
      "type": "VEC2"
    },
    {
      "bufferView": 0,
      "componentType": 5125,
      "count": 234063,
      "max": [
        40714
      ],
      "min": [
        0
      ],
      "type": "SCALAR"
    },
    {
      "bufferView": 2,
      "byteOffset": 977160,
      "componentType": 5126,
      "count": 56203,
      "max": [
        0.41391831636428833,
        0.39516705274581909,
        0.30057400465011597
      ],
      "min": [
        -0.57111555337905884,
        -0.44071781635284424,
        -0.27964001893997192
      ],
      "type": "VEC3"
    },
    {
      "bufferView": 2,
      "byteOffset": 1651596,
      "componentType": 5126,
      "count": 56203,
      "max": [
        0.99952822923660278,
        0.99998700618743896,
        0.99990695714950562
      ],
      "min": [
        -0.99988836050033569,
        -0.99999457597732544,
        -0.99995338916778564
      ],
      "type": "VEC3"
    },
    {
      "bufferView": 1,
      "byteOffset": 325720,
      "componentType": 5126,
      "count": 56203,
      "max": [
        0.9693489670753479,
        0.99978691339492798
      ],
      "min": [
        8.3610415458679199e-05,
        3.554951399564743e-05
      ],
      "type": "VEC2"
    },
    {
      "bufferView": 0,
      "byteOffset": 936252,
      "componentType": 5125,
      "count": 323814,
      "max": [
        56202
      ],
      "min": [
        0
      ],
      "type": "SCALAR"
    },
    {
      "bufferView": 2,
      "byteOffset": 2326032,
      "componentType": 5126,
      "count": 49910,
      "max": [
        0.27195554971694946,
        0.39517492055892944,
        0.2687341570854187
      ],
      "min": [
        -0.48370128870010376,
        -0.24366721510887146,
        -0.320392906665802
      ],
      "type": "VEC3"
    },
    {
      "bufferView": 2,
      "byteOffset": 2924952,
      "componentType": 5126,
      "count": 49910,
      "max": [
        0.99992096424102783,
        0.99999570846557617,
        0.99946033954620361
      ],
      "min": [
        -0.99981504678726196,
        -0.99985611438751221,
        -0.99999809265136719
      ],
      "type": "VEC3"
    },
    {
      "bufferView": 1,
      "byteOffset": 775344,
      "componentType": 5126,
      "count": 49910,
      "max": [
        0.99994653463363647,
        0.9753340482711792
      ],
      "min": [
        0.00011086463928222656,
        0.00030303327366709709
      ],
      "type": "VEC2"
    },
    {
      "bufferView": 0,
      "byteOffset": 2231508,
      "componentType": 5125,
      "count": 288264,
      "max": [
        49909
      ],
      "min": [
        0
      ],
      "type": "SCALAR"
    },
    {
      "bufferView": 2,
      "byteOffset": 3523872,
      "componentType": 5126,
      "count": 51562,
      "max": [
        0.4332730770111084,
        0.36583888530731201,
        0.32934445142745972
      ],
      "min": [
        -0.32391974329948425,
        -0.49482089281082153,
        -0.20076829195022583
      ],
      "type": "VEC3"
    },
    {
      "bufferView": 2,
      "byteOffset": 4142616,
      "componentType": 5126,
      "count": 51562,
      "max": [
        0.99993717670440674,
        0.99999481439590454,
        0.99999910593032837
      ],
      "min": [
        -0.99839013814926147,
        -0.99999278783798218,
        -0.99280852079391479
      ],
      "type": "VEC3"
    },
    {
      "bufferView": 1,
      "byteOffset": 1174624,
      "componentType": 5126,
      "count": 51562,
      "max": [
        0.99997168779373169,
        0.98316287994384766
      ],
      "min": [
        0.00022004544734954834,
        0.00041216611862182617
      ],
      "type": "VEC2"
    },
    {
      "bufferView": 0,
      "byteOffset": 3384564,
      "componentType": 5125,
      "count": 298089,
      "max": [
        51561
      ],
      "min": [
        0
      ],
      "type": "SCALAR"
    },
    {
      "bufferView": 2,
      "byteOffset": 4761360,
      "componentType": 5126,
      "count": 45847,
      "max": [
        0.33115339279174805,
        0.32046639919281006,
        0.32586830854415894
      ],
      "min": [
        -0.51007252931594849,
        -0.43691563606262207,
        -0.27826434373855591
      ],
      "type": "VEC3"
    },
    {
      "bufferView": 2,
      "byteOffset": 5311524,
      "componentType": 5126,
      "count": 45847,
      "max": [
        0.99966448545455933,
        0.99993407726287842,
        0.9999956488609314
      ],
      "min": [
        -0.99998724460601807,
        -0.99999964237213135,
        -0.99979352951049805
      ],
      "type": "VEC3"
    },
    {
      "bufferView": 1,
      "byteOffset": 1587120,
      "componentType": 5126,
      "count": 45847,
      "max": [
        0.96210962533950806,
        0.9999309778213501
      ],
      "min": [
        0.00048667192459106445,
        0.00020071794278919697
      ],
      "type": "VEC2"
    },
    {
      "bufferView": 0,
      "byteOffset": 4576920,
      "componentType": 5125,
      "count": 263070,
      "max": [
        45846
      ],
      "min": [
        0
      ],
      "type": "SCALAR"
    },
    {
      "bufferView": 2,
      "byteOffset": 5861688,
      "componentType": 5126,
      "count": 47222,
      "max": [
        0.49236458539962769,
        0.28303653001785278,
        0.23496884107589722
      ],
      "min": [
        -0.066398315131664276,
        -0.41605401039123535,
        -0.28234034776687622
      ],
      "type": "VEC3"
    },
    {
      "bufferView": 2,
      "byteOffset": 6428352,
      "componentType": 5126,
      "count": 47222,
      "max": [
        0.99994689226150513,
        0.99985533952713013,
        0.9962577223777771
      ],
      "min": [
        -0.99309623241424561,
        -0.99820053577423096,
        -0.99999988079071045
      ],
      "type": "VEC3"
    },
    {
      "bufferView": 1,
      "byteOffset": 1953896,
      "componentType": 5126,
      "count": 47222,
      "max": [
        0.90344583988189697,
        0.99954724311828613
      ],
      "min": [
        0.00013563036918640137,
        0.00045248866081237793
      ],
      "type": "VEC2"
    },
    {
      "bufferView": 0,
      "byteOffset": 5629200,
      "componentType": 5125,
      "count": 278526,
      "max": [
        47221
      ],
      "min": [
        0
      ],
      "type": "SCALAR"
    }
  ],
  "asset": {
    "extras": {
      "author": "Sara Carena (https://sketchfab.com/saracarena1)",
      "license": "CC-BY-NC-4.0 (http://creativecommons.org/licenses/by-nc/4.0/)",
      "source": "https://sketchfab.com/3d-models/andesite-taiwan-555a7c42b41f4112abc027a8a03c6385",
      "title": "Andesite, Taiwan"
    },
    "generator": "Sketchfab-8.59.0",
    "version": "2.0"
  },
  "bufferViews": [
    {
      "buffer": 0,
      "byteLength": 6743304,
      "byteOffset": 0,
      "name": "floatBufferViews",
      "target": 34963
    },
    {
      "buffer": 0,
      "byteLength": 2331672,
      "byteOffset": 6743304,
      "byteStride": 8,
      "name": "floatBufferViews",
      "target": 34962
    },
    {
      "buffer": 0,
      "byteLength": 6995016,
      "byteOffset": 9074976,
      "byteStride": 12,
      "name": "floatBufferViews",
      "target": 34962
    }
  ],
  "buffers": [
    {
      "byteLength": 16069992,
      "uri": "scene.bin"
    }
  ],
  "extensionsUsed": [
    "KHR_materials_unlit"
  ],
  "images": [
    {
      "uri": "textures/material3_baseColor.jpeg"
    },
    {
      "uri": "textures/material2_baseColor.jpeg"
    },
    {
      "uri": "textures/material1_baseColor.jpeg"
    },
    {
      "uri": "textures/material4_baseColor.jpeg"
    },
    {
      "uri": "textures/material5_baseColor.jpeg"
    },
    {
      "uri": "textures/material0_baseColor.jpeg"
    }
  ],
  "materials": [
    {
      "doubleSided": true,
      "emissiveFactor": [
        0,
        0,
        0
      ],
      "extensions": {
        "KHR_materials_unlit": {}
      },
      "name": "material3",
      "pbrMetallicRoughness": {
        "baseColorFactor": [
          1,
          1,
          1,
          1
        ],
        "baseColorTexture": {
          "index": 0,
          "texCoord": 0
        },
        "metallicFactor": 0,
        "roughnessFactor": 1
      }
    },
    {
      "doubleSided": true,
      "emissiveFactor": [
        0,
        0,
        0
      ],
      "extensions": {
        "KHR_materials_unlit": {}
      },
      "name": "material2",
      "pbrMetallicRoughness": {
        "baseColorFactor": [
          1,
          1,
          1,
          1
        ],
        "baseColorTexture": {
          "index": 1,
          "texCoord": 0
        },
        "metallicFactor": 0,
        "roughnessFactor": 1
      }
    },
    {
      "doubleSided": true,
      "emissiveFactor": [
        0,
        0,
        0
      ],
      "extensions": {
        "KHR_materials_unlit": {}
      },
      "name": "material1",
      "pbrMetallicRoughness": {
        "baseColorFactor": [
          1,
          1,
          1,
          1
        ],
        "baseColorTexture": {
          "index": 2,
          "texCoord": 0
        },
        "metallicFactor": 0,
        "roughnessFactor": 1
      }
    },
    {
      "doubleSided": true,
      "emissiveFactor": [
        0,
        0,
        0
      ],
      "extensions": {
        "KHR_materials_unlit": {}
      },
      "name": "material4",
      "pbrMetallicRoughness": {
        "baseColorFactor": [
          1,
          1,
          1,
          1
        ],
        "baseColorTexture": {
          "index": 3,
          "texCoord": 0
        },
        "metallicFactor": 0,
        "roughnessFactor": 1
      }
    },
    {
      "doubleSided": true,
      "emissiveFactor": [
        0,
        0,
        0
      ],
      "extensions": {
        "KHR_materials_unlit": {}
      },
      "name": "material5",
      "pbrMetallicRoughness": {
        "baseColorFactor": [
          1,
          1,
          1,
          1
        ],
        "baseColorTexture": {
          "index": 4,
          "texCoord": 0
        },
        "metallicFactor": 0,
        "roughnessFactor": 1
      }
    },
    {
      "doubleSided": true,
      "emissiveFactor": [
        0,
        0,
        0
      ],
      "extensions": {
        "KHR_materials_unlit": {}
      },
      "name": "material0",
      "pbrMetallicRoughness": {
        "baseColorFactor": [
          1,
          1,
          1,
          1
        ],
        "baseColorTexture": {
          "index": 5,
          "texCoord": 0
        },
        "metallicFactor": 0,
        "roughnessFactor": 1
      }
    }
  ],
  "meshes": [
    {
      "name": "Model_material3_0",
      "primitives": [
        {
          "attributes": {
            "NORMAL": 1,
            "POSITION": 0,
            "TEXCOORD_0": 2
          },
          "indices": 3,
          "material": 0,
          "mode": 4
        }
      ]
    },
    {
      "name": "Model_material2_0",
      "primitives": [
        {
          "attributes": {
            "NORMAL": 5,
            "POSITION": 4,
            "TEXCOORD_0": 6
          },
          "indices": 7,
          "material": 1,
          "mode": 4
        }
      ]
    },
    {
      "name": "Model_material1_0",
      "primitives": [
        {
          "attributes": {
            "NORMAL": 9,
            "POSITION": 8,
            "TEXCOORD_0": 10
          },
          "indices": 11,
          "material": 2,
          "mode": 4
        }
      ]
    },
    {
      "name": "Model_material4_0",
      "primitives": [
        {
          "attributes": {
            "NORMAL": 13,
            "POSITION": 12,
            "TEXCOORD_0": 14
          },
          "indices": 15,
          "material": 3,
          "mode": 4
        }
      ]
    },
    {
      "name": "Model_material5_0",
      "primitives": [
        {
          "attributes": {
            "NORMAL": 17,
            "POSITION": 16,
            "TEXCOORD_0": 18
          },
          "indices": 19,
          "material": 4,
          "mode": 4
        }
      ]
    },
    {
      "name": "Model_material0_0",
      "primitives": [
        {
          "attributes": {
            "NORMAL": 21,
            "POSITION": 20,
            "TEXCOORD_0": 22
          },
          "indices": 23,
          "material": 5,
          "mode": 4
        }
      ]
    }
  ],
  "nodes": [
    {
      "children": [
        1
      ],
      "name": "RootNode (gltf orientation matrix)",
      "rotation": [
        -0.70710678118654746,
        -0,
        -0,
        0.70710678118654757
      ]
    },
    {
      "children": [
        2
      ],
      "matrix": [
        1.1805423980026859,
        0.078499623429345355,
        0.40711350596077622,
        0,
        -0.40388590041735739,
        0.49539059647119643,
        1.0756618303800707,
        0,
        -0.093700497017668027,
        -1.1463027442471372,
        0.49274157711704092,
        0,
        0.060190737247467041,
        -0.0050298110581934452,
        0.029310243204236031,
        1
      ],
      "name": "RootNode (model correction matrix)"
    },
    {
      "children": [
        3
      ],
      "matrix": [
        1,
        0,
        0,
        0,
        0,
        -1,
        0,
        0,
        0,
        0,
        -1,
        0,
        0,
        0,
        0,
        1
      ],
      "name": "model.fbx"
    },
    {
      "children": [
        4
      ],
      "name": "RootNode"
    },
    {
      "children": [
        5,
        6,
        7,
        8,
        9,
        10
      ],
      "name": "Model"
    },
    {
      "mesh": 0,
      "name": "Model_material3_0"
    },
    {
      "mesh": 1,
      "name": "Model_material2_0"
    },
    {
      "mesh": 2,
      "name": "Model_material1_0"
    },
    {
      "mesh": 3,
      "name": "Model_material4_0"
    },
    {
      "mesh": 4,
      "name": "Model_material5_0"
    },
    {
      "mesh": 5,
      "name": "Model_material0_0"
    }
  ],
  "samplers": [
    {
      "magFilter": 9729,
      "minFilter": 9987,
      "wrapS": 10497,
      "wrapT": 10497
    }
  ],
  "scene": 0,
  "scenes": [
    {
      "name": "OSG_Scene",
      "nodes": [
        0
      ]
    }
  ],
  "textures": [
    {
      "sampler": 0,
      "source": 0
    },
    {
      "sampler": 0,
      "source": 1
    },
    {
      "sampler": 0,
      "source": 2
    },
    {
      "sampler": 0,
      "source": 3
    },
    {
      "sampler": 0,
      "source": 4
    },
    {
      "sampler": 0,
      "source": 5
    }
  ]
}

