{
  "accessors": [
    {
      "bufferView": 2,
      "componentType": 5126,
      "count": 65532,
      "max": [
        1.2152420282363892,
        1.8560689687728882,
        0.97033399343490601
      ],
      "min": [
        -0.80618900060653687,
        -0.1024869978427887,
        -0.66328299045562744
      ],
      "type": "VEC3"
    },
    {
      "bufferView": 2,
      "byteOffset": 786384,
      "componentType": 5126,
      "count": 65532,
      "max": [
        0.99998760223388672,
        0.99989491701126099,
        0.99710428714752197
      ],
      "min": [
        -0.98656207323074341,
        -0.99389219284057617,
        -0.99961185455322266
      ],
      "type": "VEC3"
    },
    {
      "bufferView": 1,
      "componentType": 5126,
      "count": 65532,
      "max": [
        0.99659597873687744,
        0.92645597457885742
      ],
      "min": [
        0.17149700224399567,
        0.21039499342441559
      ],
      "type": "VEC2"
    },
    {
      "bufferView": 0,
      "componentType": 5125,
      "count": 366420,
      "max": [
        65531
      ],
      "min": [
        0
      ],
      "type": "SCALAR"
    },
    {
      "bufferView": 2,
      "byteOffset": 1572768,
      "componentType": 5126,
      "count": 65532,
      "max": [
        1.2198439836502075,
        1.654492974281311,
        1.0296889543533325
      ],
      "min": [
        -0.52930599451065063,
        -0.45741599798202515,
        -1.315513014793396
      ],
      "type": "VEC3"
    },
    {
      "bufferView": 2,
      "byteOffset": 2359152,
      "componentType": 5126,
      "count": 65532,
      "max": [
        0.99995666742324829,
        0.9902421236038208,
        0.99990671873092651
      ],
      "min": [
        -0.96912312507629395,
        -0.9800611138343811,
        -0.99922424554824829
      ],
      "type": "VEC3"
    },
    {
      "bufferView": 1,
      "byteOffset": 524256,
      "componentType": 5126,
      "count": 65532,
      "max": [
        0.98895901441574097,
        0.92597502470016479
      ],
      "min": [
        0.00019500000053085387,
        0.21209500730037689
      ],
      "type": "VEC2"
    },
    {
      "bufferView": 0,
      "byteOffset": 1465680,
      "componentType": 5125,
      "count": 350211,
      "max": [
        65531
      ],
      "min": [
        0
      ],
      "type": "SCALAR"
    },
    {
      "bufferView": 2,
      "byteOffset": 3145536,
      "componentType": 5126,
      "count": 65532,
      "max": [
        1.2151939868927002,
        1.5694259405136108,
        1.0158309936523438
      ],
      "min": [
        -1.4451340436935425,
        -0.20264199376106262,
        -0.79574400186538696
      ],
      "type": "VEC3"
    },
    {
      "bufferView": 2,
      "byteOffset": 3931920,
      "componentType": 5126,
      "count": 65532,
      "max": [
        0.9999539852142334,
        0.99999374151229858,
        0.99999964237213135
      ],
      "min": [
        -0.99989944696426392,
        -0.99518787860870361,
        -0.9999879002571106
      ],
      "type": "VEC3"
    },
    {
      "bufferView": 1,
      "byteOffset": 1048512,
      "componentType": 5126,
      "count": 65532,
      "max": [
        0.99983400106430054,
        0.93971800804138184
      ],
      "min": [
        0.012969999574124813,
        0.21939699351787567
      ],
      "type": "VEC2"
    },
    {
      "bufferView": 0,
      "byteOffset": 2866524,
      "componentType": 5125,
      "count": 344973,
      "max": [
        65531
      ],
      "min": [
        0
      ],
      "type": "SCALAR"
    },
    {
      "bufferView": 2,
      "byteOffset": 4718304,
      "componentType": 5126,
      "count": 65532,
      "max": [
        1.2151939868927002,
        1.1955709457397461,
        1.0296889543533325
      ],
      "min": [
        -1.7860419750213623,
        -1.2641810178756714,
        -0.92495501041412354
      ],
      "type": "VEC3"
    },
    {
      "bufferView": 2,
      "byteOffset": 5504688,
      "componentType": 5126,
      "count": 65532,
      "max": [
        0.9998747706413269,
        0.98944348096847534,
        0.99999785423278809
      ],
      "min": [
        -0.99993473291397095,
        -0.99982964992523193,
        -0.99962019920349121
      ],
      "type": "VEC3"
    },
    {
      "bufferView": 1,
      "byteOffset": 1572768,
      "componentType": 5126,
      "count": 65532,
      "max": [
        0.99393701553344727,
        0.93870997428894043
      ],
      "min": [
        0.0072530000470578671,
        0.0046970001421868801
      ],
      "type": "VEC2"
    },
    {
      "bufferView": 0,
      "byteOffset": 4246416,
      "componentType": 5125,
      "count": 312933,
      "max": [
        65531
      ],
      "min": [
        0
      ],
      "type": "SCALAR"
    },
    {
      "bufferView": 2,
      "byteOffset": 6291072,
      "componentType": 5126,
      "count": 65532,
      "max": [
        1.214758038520813,
        0.72040200233459473,
        0.98276299238204956
      ],
      "min": [
        -1.7867300510406494,
        -1.4896019697189331,
        -1.3165500164031982
      ],
      "type": "VEC3"
    },
    {
      "bufferView": 2,
      "byteOffset": 7077456,
      "componentType": 5126,
      "count": 65532,
      "max": [
        0.99999517202377319,
        0.96652817726135254,
        0.99999755620956421
      ],
      "min": [
        -0.99998199939727783,
        -0.99989205598831177,
        -0.9999687671661377
      ],
      "type": "VEC3"
    },
    {
      "bufferView": 1,
      "byteOffset": 2097024,
      "componentType": 5126,
      "count": 65532,
      "max": [
        0.97181099653244019,
        0.92858701944351196
      ],
      "min": [
        0.0038360001053661108,
        0.0023469999432563782
      ],
      "type": "VEC2"
    },
    {
      "bufferView": 0,
      "byteOffset": 5498148,
      "componentType": 5125,
      "count": 318807,
      "max": [
        65531
      ],
      "min": [
        0
      ],
      "type": "SCALAR"
    },
    {
      "bufferView": 2,
      "byteOffset": 7863840,
      "componentType": 5126,
      "count": 65532,
      "max": [
        1.2662830352783203,
        0.2968049943447113,
        0.84251499176025391
      ],
      "min": [
        -1.7714509963989258,
        -1.7010630369186401,
        -1.2429720163345337
      ],
      "type": "VEC3"
    },
    {
      "bufferView": 2,
      "byteOffset": 8650224,
      "componentType": 5126,
      "count": 65532,
      "max": [
        0.999988853931427,
        0.99184936285018921,
        0.99999785423278809
      ],
      "min": [
        -0.99985986948013306,
        -0.99997174739837646,
        -0.99992930889129639
      ],
      "type": "VEC3"
    },
    {
      "bufferView": 1,
      "byteOffset": 2621280,
      "componentType": 5126,
      "count": 65532,
      "max": [
        0.97536402940750122,
        0.71460402011871338
      ],
      "min": [
        0.002899999963119626,
        0.00020799999765586108
      ],
      "type": "VEC2"
    },
    {
      "bufferView": 0,
      "byteOffset": 6773376,
      "componentType": 5125,
      "count": 320865,
      "max": [
        65531
      ],
      "min": [
        0
      ],
      "type": "SCALAR"
    },
    {
      "bufferView": 2,
      "byteOffset": 9436608,
      "componentType": 5126,
      "count": 65532,
      "max": [
        1.2785279750823975,
        0.016544999554753304,
        0.86628401279449463
      ],
      "min": [
        -1.4378750324249268,
        -1.6207640171051025,
        -1.3150850534439087
      ],
      "type": "VEC3"
    },
    {
      "bufferView": 2,
      "byteOffset": 10222992,
      "componentType": 5126,
      "count": 65532,
      "max": [
        0.99998778104782104,
        0.99462664127349854,
        0.99996787309646606
      ],
      "min": [
        -0.99993735551834106,
        -0.99989175796508789,
        -0.99998408555984497
      ],
      "type": "VEC3"
    },
    {
      "bufferView": 1,
      "byteOffset": 3145536,
      "componentType": 5126,
      "count": 65532,
      "max": [
        0.98291999101638794,
        0.95751601457595825
      ],
      "min": [
        0.0045429999008774757,
        0.0001610000035725534
      ],
      "type": "VEC2"
    },
    {
      "bufferView": 0,
      "byteOffset": 8056836,
      "componentType": 5125,
      "count": 319755,
      "max": [
        65531
      ],
      "min": [
        0
      ],
      "type": "SCALAR"
    },
    {
      "bufferView": 2,
      "byteOffset": 11009376,
      "componentType": 5126,
      "count": 65532,
      "max": [
        1.3028099536895752,
        -0.35282799601554871,
        0.91577500104904175
      ],
      "min": [
        -1.1672680377960205,
        -1.6520290374755859,
        -1.2080420255661011
      ],
      "type": "VEC3"
    },
    {
      "bufferView": 2,
      "byteOffset": 11795760,
      "componentType": 5126,
      "count": 65532,
      "max": [
        0.99998778104782104,
        0.99995875358581543,
        0.99999016523361206
      ],
      "min": [
        -0.99990272521972656,
        -0.99999821186065674,
        -0.99992495775222778
      ],
      "type": "VEC3"
    },
    {
      "bufferView": 1,
      "byteOffset": 3669792,
      "componentType": 5126,
      "count": 65532,
      "max": [
        0.99003499746322632,
        0.96216100454330444
      ],
      "min": [
        0.026466000825166702,
        0.014445000328123569
      ],
      "type": "VEC2"
    },
    {
      "bufferView": 0,
      "byteOffset": 9335856,
      "componentType": 5125,
      "count": 315699,
      "max": [
        65531
      ],
      "min": [
        0
      ],
      "type": "SCALAR"
    },
    {
      "bufferView": 2,
      "byteOffset": 12582144,
      "componentType": 5126,
      "count": 62795,
      "max": [
        1.3028099536895752,
        -0.85619497299194336,
        0.9331820011138916
      ],
      "min": [
        -0.64199298620223999,
        -1.7070480585098267,
        -0.77473902702331543
      ],
      "type": "VEC3"
    },
    {
      "bufferView": 2,
      "byteOffset": 13335684,
      "componentType": 5126,
      "count": 62795,
      "max": [
        0.99996680021286011,
        0.99999105930328369,
        0.99998515844345093
      ],
      "min": [
        -0.99998962879180908,
        -0.99999821186065674,
        -0.99997550249099731
      ],
      "type": "VEC3"
    },
    {
      "bufferView": 1,
      "byteOffset": 4194048,
      "componentType": 5126,
      "count": 62795,
      "max": [
        0.99460697174072266,
        0.97592997550964355
      ],
      "min": [
        0.026403000578284264,
        0.021023999899625778
      ],
      "type": "VEC2"
    },
    {
      "bufferView": 0,
      "byteOffset": 10598652,
      "componentType": 5125,
      "count": 299643,
      "max": [
        62794
      ],
      "min": [
        0
      ],
      "type": "SCALAR"
    }
  ],
  "asset": {
    "extras": {
      "author": "rocksandminerals (https://sketchfab.com/rocksandminerals)",
      "license": "CC-BY-4.0 (http://creativecommons.org/licenses/by/4.0/)",
      "source": "https://sketchfab.com/3d-models/breccia-2152020-69eb6f819b404f3880c4dc4291a60140",
      "title": "Breccia 2/15/2020"
    },
    "generator": "Sketchfab-7.86.0",
    "version": "2.0"
  },
  "bufferViews": [
    {
      "buffer": 0,
      "byteLength": 11797224,
      "byteOffset": 0,
      "name": "floatBufferViews",
      "target": 34963
    },
    {
      "buffer": 0,
      "byteLength": 4696408,
      "byteOffset": 11797224,
      "byteStride": 8,
      "name": "floatBufferViews",
      "target": 34962
    },
    {
      "buffer": 0,
      "byteLength": 14089224,
      "byteOffset": 16493632,
      "byteStride": 12,
      "name": "floatBufferViews",
      "target": 34962
    }
  ],
  "buffers": [
    {
      "byteLength": 30582856,
      "uri": "scene.bin"
    }
  ],
  "extensionsUsed": [
    "KHR_materials_unlit"
  ],
  "images": [
    {
      "uri": "textures/model_baseColor.jpeg"
    }
  ],
  "materials": [
    {
      "doubleSided": true,
      "emissiveFactor": [
        0,
        0,
        0
      ],
      "extensions": {
        "KHR_materials_unlit": {}
      },
      "name": "model",
      "pbrMetallicRoughness": {
        "baseColorFactor": [
          1,
          1,
          1,
          1
        ],
        "baseColorTexture": {
          "index": 0,
          "texCoord": 0
        },
        "metallicFactor": 0,
        "roughnessFactor": 1
      }
    }
  ],
  "meshes": [
    {
      "primitives": [
        {
          "attributes": {
            "NORMAL": 1,
            "POSITION": 0,
            "TEXCOORD_0": 2
          },
          "indices": 3,
          "material": 0,
          "mode": 4
        }
      ]
    },
    {
      "primitives": [
        {
          "attributes": {
            "NORMAL": 5,
            "POSITION": 4,
            "TEXCOORD_0": 6
          },
          "indices": 7,
          "material": 0,
          "mode": 4
        }
      ]
    },
    {
      "primitives": [
        {
          "attributes": {
            "NORMAL": 9,
            "POSITION": 8,
            "TEXCOORD_0": 10
          },
          "indices": 11,
          "material": 0,
          "mode": 4
        }
      ]
    },
    {
      "primitives": [
        {
          "attributes": {
            "NORMAL": 13,
            "POSITION": 12,
            "TEXCOORD_0": 14
          },
          "indices": 15,
          "material": 0,
          "mode": 4
        }
      ]
    },
    {
      "primitives": [
        {
          "attributes": {
            "NORMAL": 17,
            "POSITION": 16,
            "TEXCOORD_0": 18
          },
          "indices": 19,
          "material": 0,
          "mode": 4
        }
      ]
    },
    {
      "primitives": [
        {
          "attributes": {
            "NORMAL": 21,
            "POSITION": 20,
            "TEXCOORD_0": 22
          },
          "indices": 23,
          "material": 0,
          "mode": 4
        }
      ]
    },
    {
      "primitives": [
        {
          "attributes": {
            "NORMAL": 25,
            "POSITION": 24,
            "TEXCOORD_0": 26
          },
          "indices": 27,
          "material": 0,
          "mode": 4
        }
      ]
    },
    {
      "primitives": [
        {
          "attributes": {
            "NORMAL": 29,
            "POSITION": 28,
            "TEXCOORD_0": 30
          },
          "indices": 31,
          "material": 0,
          "mode": 4
        }
      ]
    },
    {
      "primitives": [
        {
          "attributes": {
            "NORMAL": 33,
            "POSITION": 32,
            "TEXCOORD_0": 34
          },
          "indices": 35,
          "material": 0,
          "mode": 4
        }
      ]
    }
  ],
  "nodes": [
    {
      "children": [
        1
      ],
      "name": "RootNode (gltf orientation matrix)",
      "rotation": [
        -0.70710678118654746,
        -0,
        -0,
        0.70710678118654757
      ]
    },
    {
      "children": [
        2
      ],
      "name": "RootNode (model correction matrix)"
    },
    {
      "children": [
        3,
        4,
        5,
        6,
        7,
        8,
        9,
        10,
        11
      ],
      "name": "model.obj.cleaner.materialmerger.gles"
    },
    {
      "mesh": 0,
      "name": ""
    },
    {
      "mesh": 1,
      "name": ""
    },
    {
      "mesh": 2,
      "name": ""
    },
    {
      "mesh": 3,
      "name": ""
    },
    {
      "mesh": 4,
      "name": ""
    },
    {
      "mesh": 5,
      "name": ""
    },
    {
      "mesh": 6,
      "name": ""
    },
    {
      "mesh": 7,
      "name": ""
    },
    {
      "mesh": 8,
      "name": ""
    }
  ],
  "samplers": [
    {
      "magFilter": 9729,
      "minFilter": 9987,
      "wrapS": 10497,
      "wrapT": 10497
    }
  ],
  "scene": 0,
  "scenes": [
    {
      "name": "OSG_Scene",
      "nodes": [
        0
      ]
    }
  ],
  "textures": [
    {
      "sampler": 0,
      "source": 0
    }
  ]
}

