{
  "accessors": [
    {
      "bufferView": 2,
      "componentType": 5126,
      "count": 65532,
      "max": [
        1.3182170391082764,
        0.8750380277633667,
        0.37670499086380005
      ],
      "min": [
        -0.093281000852584839,
        -0.83134299516677856,
        -0.81433099508285522
      ],
      "type": "VEC3"
    },
    {
      "bufferView": 2,
      "byteOffset": 786384,
      "componentType": 5126,
      "count": 65532,
      "max": [
        0.9999992847442627,
        0.99999821186065674,
        0.99999618530273438
      ],
      "min": [
        -0.99732589721679688,
        -0.99999958276748657,
        -0.99988448619842529
      ],
      "type": "VEC3"
    },
    {
      "bufferView": 1,
      "componentType": 5126,
      "count": 65532,
      "max": [
        0.84991300106048584,
        0.99987602233886719
      ],
      "min": [
        0.085086002945899963,
        0.0028039999306201935
      ],
      "type": "VEC2"
    },
    {
      "bufferView": 0,
      "componentType": 5125,
      "count": 366987,
      "max": [
        65531
      ],
      "min": [
        0
      ],
      "type": "SCALAR"
    },
    {
      "bufferView": 2,
      "byteOffset": 1572768,
      "componentType": 5126,
      "count": 65532,
      "max": [
        1.2039090394973755,
        0.91624599695205688,
        0.55661797523498535
      ],
      "min": [
        -1.0104720592498779,
        -0.84054899215698242,
        -0.8217809796333313
      ],
      "type": "VEC3"
    },
    {
      "bufferView": 2,
      "byteOffset": 2359152,
      "componentType": 5126,
      "count": 65532,
      "max": [
        0.99328309297561646,
        0.99999821186065674,
        0.99999618530273438
      ],
      "min": [
        -0.92477351427078247,
        -0.99999368190765381,
        -0.99999797344207764
      ],
      "type": "VEC3"
    },
    {
      "bufferView": 1,
      "byteOffset": 524256,
      "componentType": 5126,
      "count": 65532,
      "max": [
        0.92039501667022705,
        0.96458297967910767
      ],
      "min": [
        0.0060519999824464321,
        9.6000003395602107e-05
      ],
      "type": "VEC2"
    },
    {
      "bufferView": 0,
      "byteOffset": 1467948,
      "componentType": 5125,
      "count": 336003,
      "max": [
        65531
      ],
      "min": [
        0
      ],
      "type": "SCALAR"
    },
    {
      "bufferView": 2,
      "byteOffset": 3145536,
      "componentType": 5126,
      "count": 65532,
      "max": [
        0.52822399139404297,
        0.91525799036026001,
        0.78320801258087158
      ],
      "min": [
        -1.3002279996871948,
        -0.8405190110206604,
        -0.68133997917175293
      ],
      "type": "VEC3"
    },
    {
      "bufferView": 2,
      "byteOffset": 3931920,
      "componentType": 5126,
      "count": 65532,
      "max": [
        0.9770311713218689,
        0.99999701976776123,
        0.99999237060546875
      ],
      "min": [
        -0.96779149770736694,
        -0.99999809265136719,
        -0.99989265203475952
      ],
      "type": "VEC3"
    },
    {
      "bufferView": 1,
      "byteOffset": 1048512,
      "componentType": 5126,
      "count": 65532,
      "max": [
        0.88288599252700806,
        0.87820899486541748
      ],
      "min": [
        0.0001140000022132881,
        0.00013499999477062374
      ],
      "type": "VEC2"
    },
    {
      "bufferView": 0,
      "byteOffset": 2811960,
      "componentType": 5125,
      "count": 334494,
      "max": [
        65531
      ],
      "min": [
        0
      ],
      "type": "SCALAR"
    },
    {
      "bufferView": 2,
      "byteOffset": 4718304,
      "componentType": 5126,
      "count": 51004,
      "max": [
        -0.24006199836730957,
        0.8872789740562439,
        0.79276001453399658
      ],
      "min": [
        -1.4533430337905884,
        -0.83701300621032715,
        -0.42440798878669739
      ],
      "type": "VEC3"
    },
    {
      "bufferView": 2,
      "byteOffset": 5330352,
      "componentType": 5126,
      "count": 51004,
      "max": [
        0.98304760456085205,
        0.99994492530822754,
        0.99998760223388672
      ],
      "min": [
        -0.99988824129104614,
        -0.99999618530273438,
        -0.9991612434387207
      ],
      "type": "VEC3"
    },
    {
      "bufferView": 1,
      "byteOffset": 1572768,
      "componentType": 5126,
      "count": 51004,
      "max": [
        0.7722809910774231,
        0.87722402811050415
      ],
      "min": [
        0,
        0.0044300002045929432
      ],
      "type": "VEC2"
    },
    {
      "bufferView": 0,
      "byteOffset": 4149936,
      "componentType": 5125,
      "count": 265092,
      "max": [
        51003
      ],
      "min": [
        0
      ],
      "type": "SCALAR"
    }
  ],
  "asset": {
    "extras": {
      "author": "rocksandminerals (https://sketchfab.com/rocksandminerals)",
      "license": "CC-BY-4.0 (http://creativecommons.org/licenses/by/4.0/)",
      "source": "https://sketchfab.com/3d-models/chalk-02162020-2dbd32da738f4aa880948576b8f89157",
      "title": "Chalk 02/16/2020"
    },
    "generator": "Sketchfab-7.86.0",
    "version": "2.0"
  },
  "bufferViews": [
    {
      "buffer": 0,
      "byteLength": 5210304,
      "byteOffset": 0,
      "name": "floatBufferViews",
      "target": 34963
    },
    {
      "buffer": 0,
      "byteLength": 1980800,
      "byteOffset": 5210304,
      "byteStride": 8,
      "name": "floatBufferViews",
      "target": 34962
    },
    {
      "buffer": 0,
      "byteLength": 5942400,
      "byteOffset": 7191104,
      "byteStride": 12,
      "name": "floatBufferViews",
      "target": 34962
    }
  ],
  "buffers": [
    {
      "byteLength": 13133504,
      "uri": "scene.bin"
    }
  ],
  "extensionsUsed": [
    "KHR_materials_unlit"
  ],
  "images": [
    {
      "uri": "textures/model_baseColor.jpeg"
    }
  ],
  "materials": [
    {
      "doubleSided": true,
      "emissiveFactor": [
        0,
        0,
        0
      ],
      "extensions": {
        "KHR_materials_unlit": {}
      },
      "name": "model",
      "pbrMetallicRoughness": {
        "baseColorFactor": [
          1,
          1,
          1,
          1
        ],
        "baseColorTexture": {
          "index": 0,
          "texCoord": 0
        },
        "metallicFactor": 0,
        "roughnessFactor": 1
      }
    }
  ],
  "meshes": [
    {
      "primitives": [
        {
          "attributes": {
            "NORMAL": 1,
            "POSITION": 0,
            "TEXCOORD_0": 2
          },
          "indices": 3,
          "material": 0,
          "mode": 4
        }
      ]
    },
    {
      "primitives": [
        {
          "attributes": {
            "NORMAL": 5,
            "POSITION": 4,
            "TEXCOORD_0": 6
          },
          "indices": 7,
          "material": 0,
          "mode": 4
        }
      ]
    },
    {
      "primitives": [
        {
          "attributes": {
            "NORMAL": 9,
            "POSITION": 8,
            "TEXCOORD_0": 10
          },
          "indices": 11,
          "material": 0,
          "mode": 4
        }
      ]
    },
    {
      "primitives": [
        {
          "attributes": {
            "NORMAL": 13,
            "POSITION": 12,
            "TEXCOORD_0": 14
          },
          "indices": 15,
          "material": 0,
          "mode": 4
        }
      ]
    }
  ],
  "nodes": [
    {
      "children": [
        1
      ],
      "name": "RootNode (gltf orientation matrix)",
      "rotation": [
        -0.70710678118654746,
        -0,
        -0,
        0.70710678118654757
      ]
    },
    {
      "children": [
        2
      ],
      "name": "RootNode (model correction matrix)"
    },
    {
      "children": [
        3,
        4,
        5,
        6
      ],
      "name": "model.obj.cleaner.materialmerger.gles"
    },
    {
      "mesh": 0,
      "name": ""
    },
    {
      "mesh": 1,
      "name": ""
    },
    {
      "mesh": 2,
      "name": ""
    },
    {
      "mesh": 3,
      "name": ""
    }
  ],
  "samplers": [
    {
      "magFilter": 9729,
      "minFilter": 9987,
      "wrapS": 10497,
      "wrapT": 10497
    }
  ],
  "scene": 0,
  "scenes": [
    {
      "name": "OSG_Scene",
      "nodes": [
        0
      ]
    }
  ],
  "textures": [
    {
      "sampler": 0,
      "source": 0
    }
  ]
}

